<?xml version="1.0" encoding="UTF-8" standalone="no"?>
<!-- Created with the Eggbot TSP art toolkit (http://egg-bot.com) -->

<svg
   xmlns:dc="http://purl.org/dc/elements/1.1/"
   xmlns:cc="http://creativecommons.org/ns#"
   xmlns:rdf="http://www.w3.org/1999/02/22-rdf-syntax-ns#"
   xmlns:svg="http://www.w3.org/2000/svg"
   xmlns="http://www.w3.org/2000/svg"
   xmlns:sodipodi="http://sodipodi.sourceforge.net/DTD/sodipodi-0.dtd"
   xmlns:inkscape="http://www.inkscape.org/namespaces/inkscape"
   height="2267.7166"
   width="2135.4041"
   version="1.1"
   id="svg24653"
   sodipodi:docname="yoda.svg"
   inkscape:version="0.92.2 5c3e80d, 2017-08-06">
  <defs
     id="defs24655" />
  <sodipodi:namedview
     showgrid="false"
     showborder="true"
     inkscape:showpageshadow="false"
     id="namedview24645"
     inkscape:zoom="0.25455844"
     inkscape:cx="-1231.4757"
     inkscape:cy="119.5598"
     inkscape:window-width="3440"
     inkscape:window-height="1315"
     inkscape:window-x="0"
     inkscape:window-y="1"
     inkscape:window-maximized="1"
     inkscape:current-layer="layer2" />
  <metadata
     id="metadata24647">
    <rdf:RDF>
      <cc:Work
         rdf:about="">
        <dc:format>image/svg+xml</dc:format>
        <dc:type
           rdf:resource="http://purl.org/dc/dcmitype/StillImage" />
        <dc:subject>
          <rdf:Bag>
            <rdf:li>Egg-Bot</rdf:li>
            <rdf:li>Eggbot</rdf:li>
            <rdf:li>TSP</rdf:li>
            <rdf:li>TSP art</rdf:li>
          </rdf:Bag>
        </dc:subject>
        <dc:description>TSP art created with the Eggbot TSP art toolkit (http://egg-bot.com)</dc:description>
      </cc:Work>
    </rdf:RDF>
  </metadata>
  <g
     inkscape:groupmode="layer"
     id="layer2"
     inkscape:label="Layer 1">
    <g
       style=""
       transform="matrix(3.7784518,0,0,-3.7784518,-1.6169454,2272.7388)"
       id="g24651">
      <path
         style="fill:none;stroke:#000000;stroke-width:1"
         d="m 317,601 -3,-1 h -4 -3 -3 l -4,-1 -4,-1 h -3 l -4,-1 -4,-1 -4,-1 -3,-1 -4,-1 -4,-2 -3,-1 -4,-1 -4,-2 -4,-2 -3,-2 -2,-1 -4,-2 -3,-2 -3,-2 4,-3 v -5 l 4,1 3,-3 v -5 h -5 l -4,1 -5,2 -4,2 6,4 -3,3 -3,-2 -3,-2 -3,-3 -2,-3 -2,-1 5,-1 3,-2 h 5 l 3,-3 4,-1 h 5 l 1,-4 -6,-2 -5,1 -5,-2 v 5 l -5,-2 -2,3 h -5 l -1,5 -3,-2 -1,-3 -3,-2 3,-4 h 4 l 4,-2 3,-1 4,-3 5,2 2,-3 1,-5 2,-4 2,-3 4,-2 3,-4 2,-3 5,-1 h 4 l 4,-1 1,-4 5,2 6,1 h 5 l 2,-4 -1,-5 -5,-2 v 5 h -4 l -5,-1 2,-5 2,-4 5,-1 2,-3 v -3 h -2 v -3 l 1,-2 2,2 2,-2 -2,-1 1,-2 2,-1 v -2 l 1,-2 v -5 l -6,2 -3,3 -2,3 -4,2 v 4 h 4 l -2,5 -3,1 -3,3 v 5 l -3,3 -2,3 -3,2 h -4 l -3,2 -4,2 -2,5 -4,2 h -4 l -2,3 -1,4 -1,5 -2,1 h -4 l -3,3 -6,2 v -4 l 3,-4 1,-5 4,1 3,-3 v -5 l 3,-3 4,-2 h 4 l 1,-3 4,-3 3,-3 3,-2 h 4 l 3,-3 2,-3 1,-5 1,-3 h 2 l 2,-1 -1,-4 h -5 l -1,5 -2,2 -1,1 -2,1 -1,2 -3,-1 v 3 h -3 l -1,2 -1,1 -2,3 -4,2 -5,-1 -1,4 -4,2 -3,3 -3,4 -1,3 -5,2 1,-1 v -3 -3 -2 l 1,-2 2,-3 4,-3 3,-2 v -5 l 2,-1 6,2 3,-3 -6,-3 3,-3 5,1 v -3 l 2,-2 2,4 4,-1 -3,-3 2,-1 2,-2 3,1 -1,2 4,-2 -1,-3 4,-2 4,-1 h 4 l 3,-3 3,-3 2,-3 -1,-6 4,-3 4,2 -2,4 v 5 l 6,-2 v -5 l 4,1 5,-1 3,-2 2,-5 3,-3 4,2 v 5 l -3,2 -1,6 -1,1 -2,1 h -3 l -1,1 v 2 l -2,2 -1,-3 -1,1 -1,2 -2,1 v 2 l -2,2 1,3 2,-1 2,-1 v -3 h 3 l 2,-2 h 3 l -1,-3 h 3 l 1,-1 v 4 2 l -1,2 1,2 2,-2 1,-2 v -2 -2 -3 -2 l 2,-1 2,-1 3,-1 2,2 -2,1 -2,1 -1,1 -1,2 v 2 2 2 l -1,2 -1,2 -2,1 v 2 l -2,-1 -2,1 2,2 -1,1 h -2 l -3,1 -2,1 v 2 h -3 l -3,1 -2,2 v -3 l 2,-2 1,-2 2,1 2,-2 3,-1 1,-1 1,-2 1,-2 v -3 l -2,1 -1,2 -2,-1 -1,3 -1,1 -2,1 h -3 l -2,-1 v 3 l -1,2 -2,1 1,3 -1,1 -1,2 2,1 -1,2 2,2 2,-1 1,-2 2,-1 2,-1 1,-1 h 3 l 2,3 1,-2 v -2 l 2,-1 -2,-1 1,-2 2,1 3,-1 v 2 l 3,-1 -1,-2 -1,-2 h 3 l -1,-2 1,-2 1,-2 2,-2 v -3 -2 l 1,-1 1,-2 3,1 1,-2 2,-1 -2,-2 2,-1 2,1 1,-5 h 4 4 l 4,-2 3,-1 4,-1 4,-2 2,-4 1,-4 4,-1 2,-4 1,-4 -2,-1 h -3 -2 l -1,4 -1,-4 h -3 l -1,3 v 4 l -1,4 -2,3 -5,-4 -1,4 -4,2 -3,2 -5,-1 h -4 l -1,4 -4,1 -1,-6 1,-5 4,-1 4,1 h 4 l 4,-2 -1,-5 h 5 l 4,1 1,-5 h 3 v -7 h -5 l -1,-6 5,1 3,-2 4,6 2,-4 2,-1 3,-4 6,-1 4,-1 3,-2 4,-2 1,-4 v -5 l -6,1 -1,4 h -4 l -3,3 -4,2 -5,2 -4,1 -5,-2 -3,2 h -4 l -4,-1 v 5 l -5,-1 -3,2 -4,3 -3,2 h -4 l -4,3 -4,4 4,1 6,-2 5,1 3,-2 3,-4 4,-1 5,1 v 5 l -4,1 -4,1 -2,5 h -4 l -5,-1 -3,2 -3,5 -2,-5 -4,2 -4,2 -1,5 -3,2 -3,3 -6,-2 3,-4 3,-3 2,-4 3,-3 4,-2 -6,-4 3,-3 4,-3 3,-3 1,-4 4,1 3,-2 h 4 l 3,-4 4,-1 2,-3 v -3 h -3 l -2,1 -2,-1 -2,1 -3,-1 v 5 h -6 -4 l -3,1 -1,5 -2,3 -3,2 -3,3 -3,2 -3,4 5,2 -3,4 -2,3 -2,4 -3,3 h -4 l -3,4 -3,3 v 5 l -2,4 -4,3 -2,-6 2,-3 v -5 l 2,-4 -5,-4 4,-2 5,3 v -5 l 5,1 3,-2 2,-4 v -5 l -5,1 -3,3 h -4 l -4,2 -4,1 -4,3 -3,2 h -4 l -3,2 -4,-2 -1,5 -3,3 -5,-1 3,-5 -4,-2 4,-4 5,-2 h 5 l 5,-1 4,-1 2,-4 h 4 l 4,-2 5,-1 1,-4 5,2 v -5 h 5 l 1,5 3,-5 4,-2 2,-4 4,-2 1,-5 2,-1 h 3 3 2 2 2 l -1,-4 4,1 2,-2 h 4 l 4,1 v -4 l -4,-2 1,-4 v -4 l 3,-2 4,-1 4,-1 v 4 4 l -5,-2 -1,4 4,1 -2,4 1,4 v 4 l 3,1 1,-2 1,-2 -1,-4 2,-3 2,-3 v -4 l 1,-3 3,-2 3,-2 h 4 l 4,-2 2,-2 1,-4 2,-4 -3,-1 h -4 v 4 l -2,3 -3,1 h -4 l -3,2 -3,2 -2,-5 3,-2 3,-2 h 4 l 2,-2 v -4 l 2,-3 3,1 v -5 l 4,-3 -1,-4 1,-4 2,-3 2,-1 2,-3 4,-1 3,-1 2,-3 4,-2 4,2 2,-3 4,1 -1,4 -3,3 -2,3 -3,-5 -2,3 v 3 l 1,4 v 4 h -4 l -4,-2 3,-3 -1,-4 -4,2 -3,3 -2,3 5,2 -4,2 v 4 l -3,1 -2,3 5,2 4,-1 1,-4 2,-1 2,-3 h 4 5 l 1,-4 v -4 l 4,1 v -4 l 2,-3 3,-2 1,-3 v -4 l 2,-3 v -5 l -4,1 -2,3 -4,-1 -4,-2 -2,3 -4,-1 -2,3 -4,2 -4,2 -3,-1 -2,3 -3,1 -2,2 v 4 l -2,2 -4,1 4,3 1,4 -4,1 -2,1 -1,4 -2,3 -1,3 -4,1 -2,2 -4,2 h -4 l 2,5 3,1 -5,2 h -4 l -2,2 -4,1 1,4 v 4 l -1,4 -4,1 h -4 l -2,4 h -4 l -3,1 -4,2 v 3 h -3 l -2,-1 v 3 l -2,-1 h -3 l -2,1 3,4 -5,1 h -6 l -3,3 -5,2 -1,4 h -5 l -3,1 h -5 l -1,4 -4,2 h -4 -4 l -3,3 -4,-1 1,-3 2,-2 2,-1 1,-2 1,-2 2,2 1,-2 1,-1 2,-1 1,3 1,-4 h 3 v -2 l 3,1 1,-2 2,-1 2,-1 1,3 2,-3 2,-1 3,1 1,-2 1,-2 2,1 2,-1 h 2 l 1,-2 2,1 h 2 v -4 h 4 l 2,-3 4,-1 5,-1 1,-4 h 4 4 l 1,-4 h 4 4 l -1,-5 h -4 -4 -4 v 4 h -4 l -3,-1 -1,4 -2,3 h -4 -4 l -2,3 -4,1 -2,1 -3,2 -4,1 -3,4 h -4 l -2,1 -1,-6 -4,1 v 4 l -1,3 -4,1 -2,4 -3,1 -2,1 h -2 -2 v 3 l -1,2 h -3 l -1,-2 2,-1 v -2 l -4,1 -1,2 v 2 3 l 2,-1 2,1 -2,2 -2,2 1,2 1,2 v 2 3 l -1,2 1,3 -1,2 v 2 2 l -2,2 v 2 l -1,3 -1,2 -1,2 -1,2 4,-1 -2,4 h -3 l -1,1 1,3 -1,2 -1,2 v 2 2 l 4,-2 3,-4 h 4 l 1,-5 4,3 4,-1 4,-2 4,-3 4,-2 -2,-6 -5,1 -2,4 -4,1 -4,1 -5,-4 2,-4 4,1 3,-2 6,-2 3,-3 4,1 3,-3 h 5 l -1,5 -2,4 -2,2 5,5 -2,3 -4,2 -4,2 -2,3 -2,1 h -3 l -2,1 -2,1 h -2 l -1,2 h -3 l -1,2 -1,1 -2,2 h -4 l -1,5 -4,1 -1,-3 1,-2 -1,-3 1,-1 -6,2 -2,3 v 5 l -5,-1 v 5 l -3,3 -3,2 -3,3 -1,4 -4,-3 -2,4 -4,2 -4,2 -4,5 h 4 l 6,-1 v 5 l -2,3 h -4 l -5,-1 h -4 -4 -4 -4 -4 l -4,-1 -3,2 -6,-2 -4,3 -3,5 6,1 3,-3 4,3 4,-1 h 4 4 4 4 4 4 4 4 5 l 2,-4 4,-2 2,-4 -6,-1 v -5 h 4 4 l 1,-4 2,-3 3,-2 2,-4 3,-4 5,-1 1,-2 1,-1 h 3 l -2,4 -1,3 -1,2 -4,1 -1,5 -3,3 -2,3 -1,5 -3,2 -1,5 -6,5 h 4 l 5,2 3,-2 v -6 l 3,-4 3,-3 3,1 1,2 -1,3 -1,2 -1,3 -1,2 v 2 2 l -2,2 -1,2 v 2 l -3,-1 -4,-1 -3,-1 h -4 l -4,-1 h -3 -4 -4 -4 -4 -4 -4 -4 -4 -4 -4 -4 -4 -4 -3 l -3,-1 -3,2 h -4 -4 -4 -4 -4 l -3,1 h -4 -4 -4 l -5,1 h -4 l -4,1 h -4 -4 -4 l -3,1 h -4 l -4,1 h -4 -4 l -3,-1 -3,2 h -4 -4 l -3,1 h -4 -4 -4 -4 -3 l 3,-7 h -4 l -5,1 2,6 -5,-1 -3,-2 -1,-3 2,-2 v -3 l 1,-1 h 3 v -2 l 3,-1 3,1 -2,-4 2,-1 1,-2 2,-1 3,-2 3,-2 3,-2 v -2 h 3 l 2,-2 2,-2 1,3 1,5 -1,1 h -3 l 2,4 -4,1 v -3 l -3,1 -1,2 h -3 l -1,2 -1,2 -1,2 1,3 h 2 v 4 h 4 5 l 3,-2 1,-3 -3,1 h -3 l -2,1 -2,-1 v -5 h 4 4 l 3,-1 2,-2 1,-3 1,-3 -1,-3 3,1 1,-2 2,-1 3,-3 3,-1 2,-2 2,-2 3,3 -2,3 v 4 l 4,-2 2,-2 1,-4 h 4 l 3,-2 2,-3 1,-3 -4,-2 -2,4 -2,2 h -4 l -3,1 -1,-4 3,-1 2,-2 h 3 v -4 h 3 v -3 l 3,-1 4,-1 v -3 l 3,-1 1,-2 3,-2 h 3 l 1,-4 3,5 2,-2 v -3 l 3,-1 3,-2 3,-1 v 3 l 4,-2 v -3 l 3,1 2,-2 3,-1 3,-1 4,2 -1,-3 1,-1 h 3 l 3,-3 4,1 v 4 l -3,-1 -2,3 -2,4 -2,2 -4,1 1,-4 h -4 l -2,2 -3,2 -3,2 -2,2 -5,-2 -2,2 -1,3 1,4 -4,-2 -1,3 -2,3 -4,1 v -4 l 2,-3 -4,-1 -2,4 -2,2 -4,2 -2,3 4,2 2,-3 4,1 -1,3 -1,3 h -4 l -2,5 -2,3 -3,2 -3,1 -2,3 -1,3 h -4 l -3,2 -2,2 -4,-1 1,-4 v -4 l -3,1 -2,3 v 4 l -2,1 -2,3 -1,3 -2,3 -2,1 v 3 h 4 l 1,-3 h 3 v -2 l 2,-4 h 4 3 4 l 2,-3 3,-1 1,4 v 3 h -3 l -2,1 h -3 -3 l -2,1 -3,-1 1,4 5,1 4,-1 5,-1 4,-1 h 4 l -3,-3 2,-1 h 2 3 v 4 h 4 l -1,-4 -1,-3 3,-2 2,-3 3,4 3,-2 3,1 2,-2 2,-3 v -4 l -2,-4 1,-3 2,-2 3,-3 4,-1 -3,-3 -4,2 h -4 l -2,2 v 4 l -1,4 2,4 -2,3 -4,1 1,-4 -1,-4 -4,1 v 3 l -2,2 -2,3 -2,1 -2,2 -2,2 -4,-1 1,-4 1,-3 3,-1 3,-2 2,-3 1,-4 h 3 4 v -3 l 1,-4 1,-3 h 4 l 1,-3 3,-2 1,4 4,-1 -1,-4 4,-1 -4,-3 1,-3 4,2 h 3 l 1,-4 3,-2 4,1 -1,3 -3,2 v 4 l -3,1 -1,3 -3,1 1,4 4,1 2,-3 2,-3 2,-4 3,-1 1,-3 v -4 l 3,-2 1,4 4,-2 -2,-4 1,-3 1,-3 h 4 l 2,-3 2,-3 -4,-2 2,-2 h 3 l 3,-1 1,-1 h 3 l -2,4 -2,1 1,4 -2,2 -2,2 -2,3 -3,1 -1,3 4,2 3,-2 4,2 2,-3 -4,-2 3,-3 4,-1 v 4 l 3,3 -3,3 -1,3 -3,1 -4,-2 -2,3 4,2 -4,2 -2,3 -1,3 -4,-1 -1,-4 2,-2 2,-2 v -4 l -4,1 -3,2 -2,2 1,4 1,4 -3,1 -2,-5 -2,1 v 4 h -3 l -2,3 -4,2 -2,2 -2,2 -4,-1 -1,3 -2,2 2,4 3,-2 3,-2 4,-1 2,-2 2,-2 3,-2 2,-1 4,-1 1,4 -2,2 -4,1 v 3 l -4,1 -4,1 -3,2 -2,2 -2,2 -4,-1 -2,4 1,3 h -3 l -2,1 h -3 -2 l -2,1 -3,-1 -2,1 3,3 5,2 5,-2 4,-1 h 5 l -2,-4 1,-2 2,1 h 2 l 2,4 5,1 5,-1 h 4 4 l 5,-2 1,-5 2,-1 1,-3 1,-1 h 3 l 3,-1 1,-1 h 3 l 2,-1 2,-1 3,1 1,-2 v -3 l 2,-3 h 4 l 4,-1 2,-3 3,-3 1,-3 h 4 l 3,-1 1,-3 2,-3 h 4 l 3,-1 1,-4 h -4 l -4,1 -1,-4 1,-4 -4,1 -2,3 2,4 -1,3 -2,3 -3,1 -4,1 -1,4 -2,1 -2,3 -3,1 v -5 l 2,-4 2,-2 2,-3 2,-1 h 4 l 1,-4 h -4 l 2,-4 2,-2 2,-3 2,-1 h 4 l -1,-4 1,-3 4,1 2,-2 2,-3 h 4 l -1,-4 h -4 l -4,2 -2,2 h -4 l -2,3 -1,3 -3,1 -3,3 -1,-4 -4,1 v 3 l -4,1 -2,3 3,3 3,-3 h 4 l -2,4 -2,3 h -4 l 1,4 h -4 l 1,4 -2,1 -4,2 4,2 -1,3 v 3 l -2,3 -2,4 -2,-4 1,-4 v -4 l -3,1 -2,3 -1,3 3,4 -1,3 -6,2 1,-3 1,-3 -4,-1 -2,3 -1,3 -2,2 -4,2 4,2 -2,2 -3,3 v -3 h -3 l -1,2 -2,1 h -3 l -2,-1 -1,2 -2,1 h -3 v -3 l 2,-3 3,-2 4,2 1,-3 h 4 v -4 l 4,-1 2,-3 2,-3 -4,-2 2,-3 4,2 h 4 l 1,-3 1,-3 2,-2 3,-1 1,-3 h 4 l 1,-3 v -4 h 4 v -4 l -3,-3 -1,-4 4,-1 2,-2 1,-3 4,-1 4,-1 h 4 l 2,-3 2,-3 4,-1 4,-1 4,-2 -2,-4 -3,2 -4,1 -3,1 h -4 l -2,2 -1,3 -2,1 -4,1 -3,1 h -4 l -2,2 -1,3 -2,1 h -4 l 1,-5 1,-3 1,-2 2,1 3,-1 2,-1 h 3 l 2,-1 1,-2 2,1 3,-2 2,-2 h 3 l 2,-1 3,-1 2,-1 2,-1 3,-1 v -2 l 3,-1 2,-1 1,-1 h 3 l 2,-1 3,-1 2,3 2,-2 v -2 l 2,-1 4,1 -2,2 v 4 l 3,-3 2,-2 2,2 5,-2 -2,4 -2,2 -3,1 -3,3 -3,-1 -4,-2 -5,-2 -1,3 -4,-2 -2,2 4,3 -3,2 3,3 h 4 l 1,-3 2,-2 3,1 1,4 -3,2 -4,2 1,4 -2,3 h -4 l -1,3 -3,2 -3,1 1,4 v 4 l 4,-1 1,-3 2,-1 2,-2 2,-2 2,4 -1,3 -2,2 -2,3 v 3 l -1,3 -3,3 -1,3 -4,-2 v 4 l -2,2 -2,2 -4,-1 -1,3 -2,1 -3,2 v 3 h -3 -3 l -3,1 -2,1 v 3 h 5 4 4 l 2,-4 1,-2 h 3 l 2,-2 h 3 l 2,-2 2,-2 2,-2 3,-2 2,-3 1,-2 2,-2 4,-2 -3,-1 v -4 l 3,-1 1,-4 3,4 1,-4 2,-4 h 4 v -6 l 3,-4 -4,-2 -1,1 -2,1 h -3 l 1,3 -3,2 -2,3 -2,-4 2,-3 v -4 l 3,-2 3,-2 v -4 l 3,-1 2,-3 3,4 -1,3 -3,2 4,2 3,-2 1,-3 1,-2 v -3 l -4,-1 2,-2 -1,-2 h 5 v -5 -5 l 1,-3 1,-5 1,-2 h -3 l 1,-2 1,-1 v -4 l -1,1 -2,1 -2,1 v 2 2 l -3,2 v 5 l -5,2 v -5 l -4,-2 -3,3 -5,-1 -4,2 -2,3 -5,-2 -3,1 -3,4 h -4 v 5 l -5,1 h -4 -4 l -3,3 -3,1 -4,1 -2,3 -4,1 -6,-2 -4,1 -5,1 -4,2 -2,3 -7,-2 -3,2 h -4 l -3,3 -5,2 h -4 l -4,2 -3,1 -4,2 -3,2 h -5 l -3,3 -4,1 -3,3 -3,4 -2,3 h -4 l -3,3 -2,4 -3,2 -4,2 -1,5 -4,2 -3,2 -3,3 -5,1 1,-2 1,-2 2,-2 2,-2 2,-3 2,-2 1,-2 2,-2 2,-2 2,-2 2,-2 1,-2 3,-2 1,-2 2,-1 1,-2 2,-1 h 3 l -1,-3 2,-1 h 2 l 2,-2 2,-1 1,-1 2,-2 h 2 l 3,-1 v -2 h 3 v -2 l 3,1 2,-2 h 3 l 2,-2 h 3 v -2 h 3 l 2,-1 2,4 1,-4 1,-2 2,1 2,-1 h 3 l 1,-2 2,1 1,-2 3,3 1,-2 2,-1 h 2 3 l 2,-1 3,-1 h 3 l 2,-1 3,-1 3,2 3,-2 -3,-2 3,-1 h 2 l 1,-2 2,1 1,-2 3,2 v -3 l 3,-1 v -2 l 1,-2 4,-2 -1,2 v 4 l 5,1 3,-1 -4,-6 2,-2 4,2 h 4 l -5,-4 2,-1 2,-1 1,-2 -1,-3 3,-2 3,-3 2,-3 h 4 l 2,-3 2,-4 2,-3 3,-1 2,-3 -1,-4 -4,-1 -1,3 -3,2 -2,3 -1,3 -2,3 h -4 l -3,1 v 4 l -3,2 -2,3 -2,-2 -3,-3 1,-2 4,-1 v -4 l 4,-2 3,-1 2,-1 2,-4 1,-3 3,-1 2,-4 -3,-1 -4,1 -3,2 -2,1 1,4 -4,1 -2,2 -3,2 -2,4 -2,3 -2,-3 1,-3 -1,-3 -3,-2 1,-2 5,2 2,-3 3,-2 1,-3 2,-3 4,-1 2,-2 h 4 4 4 4 l -3,5 4,2 2,-1 2,-3 h 4 l -4,-5 -3,-1 3,-4 2,-3 2,-3 -5,-2 v -4 l 2,-4 v -4 l 2,-2 3,-2 2,-3 2,-3 -4,-2 -3,2 -2,3 -3,2 -3,3 1,4 -1,4 -1,4 -2,3 5,2 -2,4 -3,-1 -1,4 -3,-4 -1,4 h -4 -4 -4 l -2,3 h -4 l -2,1 v 4 l -2,3 -3,2 -2,1 -1,-3 v -3 l 1,-2 2,-1 -5,-1 v -3 -3 l 4,2 2,-2 -1,-4 3,-2 2,-3 2,-3 1,-3 4,-1 h 4 v -4 l -5,-1 -3,1 h -4 l -2,2 v 4 l -2,3 -2,2 -2,3 -2,3 -2,-2 1,-3 v -3 -3 l 4,-3 -2,1 -4,-1 1,-3 1,-1 h 3 l 3,-1 -2,-2 4,-1 1,-2 2,-1 1,3 4,-1 -3,-3 3,-1 v -2 h 3 v -2 h 3 l 1,-1 1,-2 2,-1 2,-1 -1,4 h 4 v -4 l 1,-2 4,1 -1,-3 h 3 l 2,-1 3,-1 2,-1 3,1 2,-2 2,3 2,-1 h 3 l 2,-2 1,-2 2,-1 h 3 3 l 2,2 -4,1 -3,2 -1,4 h -4 l -3,2 -4,-1 -5,-2 -3,2 -3,2 -4,2 v 4 l -3,2 h -4 l -4,1 -3,1 -2,3 5,2 4,-2 1,4 v 4 l -2,1 v 4 l -3,1 -3,3 -2,-4 -2,4 -2,3 -3,5 2,-1 5,-2 h 4 4 v -4 h 4 l 1,-4 2,-3 v -4 l 1,-3 -3,-4 4,-1 3,-2 1,-4 2,-1 3,-2 3,-2 5,2 4,2 2,-3 h 4 l 2,-3 2,-3 3,-1 h 4 l 2,-3 -4,-2 1,-2 3,1 3,-1 1,-2 3,2 2,-1 3,1 -1,2 h 4 l 1,-2 h 4 l -1,2 3,3 3,-2 -2,-3 1,-1 3,1 1,-2 3,1 h 3 l -3,3 -1,4 -3,2 -3,2 -2,3 -3,-1 -1,-5 h -4 l -5,1 v -3 l -4,-1 -1,4 -2,3 -3,1 h -4 l -2,3 5,2 -4,2 h -4 -4 l -2,3 -2,3 -2,3 -3,2 -2,3 -1,3 -3,3 4,2 4,-1 1,-4 2,-3 2,-3 3,-3 2,-3 h 4 l 4,1 2,-3 h 4 l 3,-3 -4,-2 4,-2 2,-3 4,2 3,-2 3,4 -3,3 -4,-1 v 4 l -3,2 -2,3 h -4 l -2,3 -5,-1 -3,1 -3,2 -2,3 -2,3 -2,3 -3,3 -3,2 -2,3 -2,3 -1,4 4,1 2,5 h 4 l 3,-1 4,1 h 4 v -4 l 1,-3 2,-3 3,-1 2,-3 v -4 l 2,-3 -5,-2 -2,3 v 4 l -3,2 -3,2 -2,3 v 4 l -4,-2 -4,2 -1,-4 2,-3 3,-1 2,-3 2,-2 3,-1 v -4 l 2,-3 3,-2 4,2 2,-1 3,-3 4,-1 3,-2 2,-2 2,-3 4,-2 2,-1 2,-3 3,-1 1,-4 4,-2 2,-3 2,-4 2,-3 -1,-3 h 4 l 1,-1 1,-2 3,3 v -3 h 2 3 l 2,-1 h 3 l 2,-1 3,2 1,-2 h 3 l 2,-1 2,3 1,-3 h 2 l 2,-1 h 3 3 l 3,-1 v 2 l 3,-1 2,-1 2,1 v 3 l 3,1 1,-3 1,-1 h 5 l -1,1 -1,2 v 4 l -3,3 -3,-1 -2,2 v 4 l -3,2 v 4 l -3,4 3,1 4,-1 1,-4 2,-4 3,-2 3,-2 2,-1 1,-4 v -4 l 1,-2 2,-1 1,3 3,-1 h 3 l 1,-1 3,1 1,-1 h 2 l 2,-4 v -3 l 1,-1 4,2 v -3 -3 l 1,-3 2,-1 v -3 h -3 l -3,1 v 3 4 l -4,-1 v -3 -3 l -2,-3 1,-3 3,3 2,-2 1,-2 4,-2 -1,2 1,3 5,-2 4,-6 7,-3 8,-5 2,-11 -10,-3 -4,6 -8,-2 h -7 v 3 3 2 l 1,3 v 3 l 1,3 -2,1 -2,1 -3,1 -1,2 -2,-1 -1,-4 v -3 l 3,2 3,-2 1,-3 -3,-2 -1,3 -3,-1 v -3 l -1,-3 1,-2 2,1 3,2 1,-3 -1,-3 2,-2 1,-2 v -4 l -2,1 -2,2 -2,2 -1,3 -2,-1 v -3 -3 -2 h 3 l 2,-2 h 3 v -2 l -3,-2 -3,1 -2,2 -1,-3 v -3 -3 l 3,3 1,-2 2,-2 h 3 v 3 l -1,2 2,1 7,-1 5,-4 8,4 11,5 -1,-11 3,-6 -10,4 -9,-5 6,-7 6,-3 9,2 1,-8 -9,-3 2,-8 6,2 1,-7 1,-7 -9,1 h -5 l -7,-2 -7,-2 h -5 l -2,6 -4,-1 v 2 2 2 2 3 2 2 l -2,1 2,3 -1,1 1,3 -1,1 h -3 l -1,4 h 4 l 1,-1 5,-4 3,-9 4,-5 3,-4 8,2 -1,8 -5,4 -4,7 -6,8 h -6 v -3 h -3 v 3 3 h 3 v 3 2 h -3 l -2,-3 -2,4 h -3 l 1,-3 v -2 l 1,-2 1,-2 v -3 l -3,1 v -3 l 1,-3 1,-2 -1,-3 3,-1 v -3 h -3 v -3 l 2,-1 2,-2 1,-3 -4,1 v -3 l 2,-2 1,-1 -3,-3 3,-1 3,-2 1,-2 -1,-3 1,-2 v -3 l -2,-1 2,-2 v -2 l 3,-3 h -3 l -3,1 -2,2 -1,3 2,3 -2,2 3,3 -2,2 -2,1 -9,1 -3,8 -9,-8 4,-5 6,-7 2,-7 -11,2 1,-9 2,-6 8,3 -1,-11 -8,-3 8,-6 1,-8 -10,3 2,-9 5,-6 1,-8 -9,-3 4,-9 4,-3 -3,-14 -6,-2 -1,-3 1,-3 -1,-3 1,-1 7,1 -7,-4 v -3 -3 l 1,-2 5,-3 h -6 v -3 -3 -3 l 1,-3 5,-3 h -6 v -3 -4 l -1,-4 1,-4 -1,-4 5,-4 h -6 l -1,-6 6,-10 -7,3 -12,-2 -10,-5 -3,8 -9,3 -1,12 -9,-6 -2,-13 -8,-2 -4,8 -11,2 V 22 l 3,-7 -13,-8 -5,4 1,5 v 4 l -1,4 -2,3 8,2 -5,2 h -4 l -1,2 v 2 l -2,2 -2,2 -1,2 -1,2 -1,2 -1,1 -1,2 -1,2 -1,2 -1,2 -1,2 -1,2 -1,2 -1,2 -15,2 v 10 l -7,5 h -6 l -1,1 1,-4 1,-2 1,-3 v -3 l 1,-1 v -3 l 1,-1 1,-3 v -3 l 1,-2 1,-3 v -3 h 5 l -5,-5 v -4 l -2,-6 10,7 4,-7 V 22 l -9,-3 -6,4 -12,-1 v 12 l -4,9 h -7 l 8,15 -9,-1 -5,6 13,9 v 10 l -6,-1 -4,3 -3,6 -1,14 6,2 4,-1 2,-9 5,-3 7,-9 2,-1 v 4 3 l 1,3 -1,1 2,3 v 2 l 2,2 4,-6 4,-2 3,-8 9,3 1,-1 v -3 -3 -2 -2 -3 l 1,-1 v -3 l 1,-1 v -3 l 1,-1 6,1 8,-9 2,-11 9,5 6,-5 8,4 h 9 l 4,-1 h 7 l -11,14 10,5 6,-2 6,-9 9,-7 4,-6 9,-7 v 11 12 l -2,9 -10,-6 -7,9 -4,9 -10,-2 h -6 l -8,-5 -2,7 -5,2 -4,5 -1,9 -4,3 -8,-3 -2,11 -5,2 -2,7 -5,1 v 2 l 1,3 2,3 v 3 l -8,-2 -7,-7 4,-3 6,-2 -2,-3 1,-1 -2,-3 v -2 l -1,-3 5,-2 5,-5 1,-8 8,-2 5,-1 3,-9 5,-7 4,-8 -11,3 -5,8 h -6 l -5,5 -7,3 -2,7 -3,4 1,3 -1,2 1,3 v 2 l -4,1 -4,5 -4,3 -4,3 -2,-1 -1,-3 -2,-1 v -3 l -2,-1 -6,2 -5,3 -4,8 -9,-1 -3,9 8,4 5,-3 8,-4 5,2 2,-6 6,-3 2,2 2,2 -2,4 3,-1 2,1 1,3 2,1 v 2 l 2,2 1,3 2,1 1,3 1,2 v 2 l 5,-4 7,-3 v -3 l 5,-4 3,-6 4,-3 2,-7 4,-1 h 8 l 5,-2 v -9 l 3,-6 h 7 l 3,-3 8,2 5,-2 9,2 2,-6 3,-10 11,7 -3,9 -3,7 -3,8 -6,-2 h -5 l -9,-3 -6,3 -6,1 v 9 l -4,5 -5,1 -7,-2 -5,3 -1,7 -5,2 -2,8 -6,-1 h -5 v 4 4 l 1,6 6,-2 5,-2 6,-6 5,-3 4,-6 3,-3 7,2 h 5 l 3,-5 5,-3 v -8 l 8,-3 1,9 8,-4 7,1 7,3 v -10 l 3,-7 9,-2 1,3 v 3 l -1,2 v 3 2 3 2 l -1,2 v 3 l -1,2 1,3 v 2 l -1,2 v 2 3 l -1,1 1,3 -1,1 v 2 3 l -1,2 1,2 -2,1 2,3 v 3 l -1,2 v 2 2 3 l -1,1 1,3 v 2 3 2 3 l -1,1 1,3 v 3 l 1,3 -1,2 1,2 v 3 3 l 1,3 v 3 l 1,3 v 3 2 l 2,3 v 3 l 1,3 h 7 l -6,3 1,3 1,3 1,3 2,4 1,4 3,5 3,5 -7,3 -1,11 -5,10 -10,-6 -10,8 9,4 10,5 10,-5 1,13 -7,6 -9,-3 -8,-2 -8,-4 -4,6 -7,4 -8,2 -10,-3 -9,-2 -7,1 3,16 -11,-8 -11,-2 -6,3 -8,-1 -7,4 -8,2 -6,5 -6,-1 -9,2 -7,2 h -7 l -8,-3 -8,4 -7,6 -6,6 2,21 -3,-2 -3,-2 -4,-2 -4,-3 -3,-2 -3,-2 -3,-2 -4,-2 -3,-3 -3,-2 -3,-2 -3,-2 -3,-2 -4,-3 -3,-2 -3,-3 -3,-2 -3,-3 -3,-3 1,-2 2,-1 1,-2 h 2 l 1,-2 h 2 l -2,-4 4,2 v -3 l 2,1 2,-2 -3,-3 -5,-1 1,-4 h 4 l 2,-2 2,-3 3,-2 2,-3 2,-3 3,-2 v -4 l 2,-1 3,-3 h 4 4 l 4,1 1,4 -1,2 -3,-2 v 3 2 l -2,1 v 3 l -4,-1 v -2 l 1,-6 -2,1 -2,4 -2,3 3,2 -2,2 -4,-2 2,4 h -3 v 2 h -3 v 2 l -2,1 -1,2 -2,1 -1,2 4,1 6,-1 5,-3 4,-1 4,-2 6,-4 3,-5 3,-3 6,1 2,-6 4,-7 1,-7 -7,1 1,-2 1,-2 v -2 l 2,-2 1,-2 4,1 h 8 l -9,-9 -1,2 -1,1 -1,2 -4,1 -2,2 -4,-1 1,4 v 4 l 1,4 2,3 h -3 l -2,5 -5,1 1,-2 1,-2 2,-1 v -3 l -2,-5 -3,2 -2,3 -3,1 -5,-1 h -4 l -3,-1 -2,3 -3,1 -2,3 v 4 l -3,3 -2,3 -3,3 -3,2 -3,2 h -4 v 4 4 4 l -2,3 -2,3 -3,2 v 4 h -3 l -3,-2 1,-4 3,-3 2,-3 2,-3 v -4 l -4,-2 4,-2 v -4 l 3,-2 h 4 l 3,-2 4,-2 1,-4 3,-2 v -4 l 2,-3 3,-3 2,-2 2,-3 3,-2 1,-3 3,-3 3,-2 2,-2 4,1 1,4 -3,2 -3,2 -2,1 -3,4 4,1 h 4 l 2,-3 3,-2 h 4 l -1,-4 -1,-4 3,-1 h 4 l 4,-1 1,-3 4,-1 h 3 l 1,-1 v -2 l 1,-2 4,-2 h -4 v -3 l 1,-2 1,-2 v -2 l 1,-1 v -2 l 3,-1 2,1 1,3 2,1 1,3 2,1 3,2 -1,1 3,3 1,2 6,-4 1,-9 h -6 l -8,-6 5,-5 6,1 5,-2 7,1 -1,-3 v -2 -2 -3 l -2,-1 v -3 l -1,-2 v -2 l -2,-3 2,-1 2,-4 5,-3 3,-5 3,-5 -1,-8 3,-5 3,-5 7,1 -2,7 -3,5 -1,8 -1,7 -4,4 v 7 l -4,1 -1,8 8,1 4,-4 1,-7 5,3 5,-3 6,4 3,-3 3,-2 2,-7 7,2 -2,8 5,1 4,-5 4,-5 -6,-3 4,-5 7,3 h 5 l 4,-3 5,-3 h 7 l 2,-5 4,-4 5,-3 7,2 -2,8 -5,3 -3,5 -7,3 -3,3 -5,2 -4,3 -7,-3 -4,5 7,4 -6,5 -5,-2 -3,5 -5,-1 -7,-3 -2,4 -4,1 -1,7 v 7 l -2,7 -4,6 -8,1 -5,-2 6,-6 4,-4 v -8 l 2,-6 v -7 l -6,3 -4,4 -1,7 -4,6 -6,2 3,-11 -6,1 -6,1 -1,2 1,3 -1,3 v 3 l 5,1 -5,2 v 3 l -1,3 -1,4 3,6 4,-1 2,-7 7,-2 1,8 -2,6 -4,6 -6,1 2,2 -1,5 -6,3 -4,8 -6,-1 -1,9 -2,8 -6,1 -9,-3 6,-13 4,-5 8,-9 6,-6 7,-1 -2,-2 -2,-2 -2,-2 -2,-2 v -2 l -2,-1 -2,-3 -2,-2 -1,3 v 5 l -1,4 -1,2 -1,2 -1,2 -1,2 -1,2 -2,2 -3,1 -1,2 -1,2 -1,2 -1,2 -1,2 v 3 l -2,2 -1,1 -1,2 -2,2 -1,3 -2,2 -3,2 -2,2 -1,1 -1,3 -4,2 -1,2 -3,3 -2,3 -2,2 -2,2 -2,1 1,4 -4,-1 -1,1 -1,2 -3,1 -6,2 -4,2 3,-1 4,-1 6,2 13,9 2,-11 5,-5 5,-1 7,-6 4,-6 9,1 10,1 9,1 10,-5 9,-2 7,-2 5,-3 h 6 l 4,-1 7,1 7,1 7,1 5,-9 -7,-2 -8,-3 h -6 l -7,-2 -7,-2 -6,2 -5,3 -5,5 -7,3 -10,3 1,-8 6,-6 5,-4 4,-6 6,-3 2,-7 8,6 8,2 6,1 9,3 8,2 3,-7 6,-3 5,-4 6,3 5,-3 4,-5 8,4 -2,9 -4,5 -5,3 -9,-3 -6,4 v 9 l 10,2 3,-1 8,3 5,-3 4,-6 4,-5 1,-7 v -8 l 9,5 1,-7 8,-1 7,2 1,-10 3,-9 -8,-2 -5,7 -9,2 -7,3 -8,-2 -8,-4 -8,-2 -5,5 h -6 l -7,3 -5,4 -7,-2 1,9 -7,-2 -8,-4 -7,-1 -7,-2 v -9 l 8,2 h 5 l 6,3 5,-6 -6,-3 3,-7 2,-8 v -8 l 5,-3 3,10 4,-6 5,1 3,-6 7,2 1,-6 5,-5 5,-2 4,-3 5,-3 3,-5 8,1 -1,7 9,-4 -1,8 -4,6 -6,-1 h -5 l -5,3 -4,4 h -5 l -2,8 h -8 l -4,6 h -6 l -6,4 -4,3 2,9 7,-2 4,-5 h 7 l 5,-4 h 5 l 6,1 v -9 l 5,-1 4,-5 5,-3 8,2 -2,9 -6,3 -6,7 6,2 h 10 l 5,-5 2,-8 8,2 -2,-10 -8,-4 3,-8 v -9 -10 l -9,-2 -7,-2 6,-6 4,-1 4,-2 -8,-11 h 7 l 1,-8 -8,-2 h -5 l -5,2 -8,-2 -5,2 -4,4 -4,6 h -6 l -4,4 -5,2 h -5 l -7,-1 -3,4 -3,4 -6,-1 -5,3 -3,3 -5,2 -7,1 1,-8 4,-3 2,-2 1,-3 4,1 7,-2 3,-4 3,-3 h 6 5 6 l 4,-3 1,-7 7,3 2,-6 3,-3 5,-2 8,1 5,-2 2,-6 7,5 6,1 6,2 v -11 -10 l -8,-1 -3,6 -7,-1 -8,-1 -2,7 -6,2 -8,-2 -6,3 -3,6 -7,2 -2,7 -4,1 h -6 -7 l -5,3 -3,5 -3,3 -1,1 1,-6 1,-3 v -3 l -1,-4 1,-2 4,-2 -5,-1 -1,-3 v -3 l -6,5 -2,6 -7,-2 -6,-1 -4,6 -4,1 -6,1 -2,7 10,2 -2,6 -4,4 -5,4 v 2 l 1,3 -1,1 3,3 -1,2 -4,5 v 8 l -6,1 -5,-1 -4,5 -3,1 -5,1 -1,1 v 2 l 1,2 2,3 -1,1 -4,-2 -2,3 h -4 -4 l -2,3 -2,2 -2,3 -2,1 -3,2 h -4 v 4 l 4,1 h 4 l 2,-3 4,-3 3,-2 2,-3 h 4 l -1,5 -2,3 -2,3 -3,-1 -2,3 -2,3 h -4 l -4,1 -3,-3 -3,2 -2,-5 -3,2 -1,3 -2,3 -2,3 h -4 v 4 l -3,2 -2,3 h -4 l 1,4 -3,2 -2,3 v 4 l -2,4 -2,3 -4,1 h -4 l -3,2 -3,2 v 4 l -3,3 -2,3 5,3 -2,4 -3,-3 -3,2 3,4 -1,5 -2,-1 -3,-2 v -4 l -3,1 -3,-2 -2,-3 2,-1 h 4 l 3,-2 v -4 l 2,-3 3,-2 v -4 l -5,1 -2,2 -3,-1 -5,-1 v 4 l 5,1 v 4 h -4 l -3,3 -1,-3 -1,-3 -1,-3 v -3 l -1,-3 1,-2 h 4 l 3,1 3,-2 -3,-4 3,-2 2,-3 2,-3 v -4 l 2,-3 v -4 l 2,-3 3,-2 2,-3 3,-2 -1,-3 -2,1 -2,1 -2,1 -1,2 -1,2 -3,1 -2,1 -2,1 2,3 -2,3 -1,4 -1,3 -2,3 -2,2 -2,4 -4,2 v -3 -3 l -1,-3 1,-2 3,2 2,-5 h -3 l 1,-3 h 3 l 1,-1 2,-2 1,-2 -1,-4 v -3 l -2,-3 2,-2 h -5 v -3 l -3,-3 v -3 l 6,2 2,-4 -5,-2 -4,1 -1,-3 -1,-3 1,-2 3,1 h 4 l -2,-5 -2,2 -2,-1 -4,1 v -2 -3 l 1,-2 2,-3 v 4 l 2,-1 1,3 2,-2 2,-1 1,-3 h 3 l -1,2 v 3 l -1,2 h 3 l -1,3 v 2 l 2,2 -1,2 1,3 2,-1 3,-4 v -6 l 1,-5 h -5 v -3 l 1,-2 1,-2 v -3 l -2,1 -3,2 -3,1 v -3 l 2,-2 -2,-2 2,-2 3,3 1,-1 h 3 l 3,1 v 2 l 2,3 v 3 l 1,4 1,4 1,3 -2,4 3,-1 h 3 l 3,-1 v -2 l 4,2 v -4 l 2,-2 2,-2 1,-2 2,-2 2,-2 1,-2 h 2 l 3,-1 v -2 l 3,-1 2,-2 h 3 l 2,-1 h 2 l 2,-1 1,-2 2,-2 3,-1 v -2 h 3 3 3 l 2,2 -3,1 -3,1 -2,3 h -4 v 4 l -3,1 -4,-1 -2,2 -1,2 -1,1 4,1 2,-2 5,3 2,-2 h 4 l -1,-4 4,1 v -4 l 4,-3 2,-2 3,2 1,2 -5,2 v 4 l -2,3 5,2 2,-3 v -4 l 4,-2 v 2 l 3,2 2,2 v 2 l -4,-1 -1,3 -2,3 h -4 l -4,2 -1,-4 h -4 l -3,1 -4,1 -4,-2 -1,3 -2,3 h -4 l -2,2 -3,2 -2,1 v 3 l -2,3 -2,3 -2,4 5,1 2,-3 2,-3 2,-3 2,-3 3,-2 h 4 l 2,-3 4,-1 3,-1 h 4 v 4 l -4,2 -2,1 -3,1 -4,2 -3,1 -2,3 -2,3 -2,3 -2,3 -4,1 -3,-1 -3,3 4,2 -2,4 -4,1 v -4 l -5,2 v -4 l 2,-3 2,-3 -3,-3 2,-1 v -2 l 3,-1 1,-2 2,-2 1,-2 1,-2 2,-5 h 3 l 1,-3 2,-2 3,-1 -1,-3 -3,1 h -5 l -4,2 -2,4 -3,3 -2,3 v 5 h -5 l -3,2 -2,-1 -1,-3 h -2 l -3,4 h -4 l -6,2 2,2 -1,2 -2,2 1,6 6,-2 -2,-2 -1,-2 4,-2 h 5 l 4,-3 h 3 l 2,1 v 3 l 2,1 -2,2 -2,-1 -1,2 -2,1 3,3 v 4 l -4,1 -3,4 -3,3 4,2 -4,2 -2,3 v 4 l -1,4 -2,1 -2,3 1,4 4,-2 4,2 3,-2 -4,-4 2,-3 v -4 l 2,-2 2,-1 1,-5 v -4 l 3,-1 4,-1 1,5 -2,2 -2,2 v 4 l -1,4 -2,1 -2,4 3,1 h 4 l 2,-3 1,-3 v -4 l 2,-2 2,-3 -1,-4 2,-1 4,-1 3,-2 1,-3 1,-4 h 4 l 2,-3 2,-3 2,-3 2,-3 4,2 v -4 l 3,-2 h 4 l 3,-3 3,-3 2,-2 2,-3 h 4 4 l 1,-3 2,-3 2,-1 3,-1 v -3 l 1,-3 -1,-3 1,-2 v -3 -3 -3 l -1,-3 1,-2 v -3 l -1,-3 v -2 l 1,-2 -1,-4 v -3 l 1,-2 4,1 7,-1 1,8 -7,2 1,9 v 10 l 7,1 1,-7 1,-6 7,-3 1,-2 -2,-2 v -3 l -2,-1 1,-3 -2,-2 v -2 l -1,-3 v -2 -3 l -2,-3 1,-2 4,-1 5,-3 6,-2 4,-4 6,-1 7,2 3,-6 -6,-9 -4,4 -7,-1 h -5 l -3,5 -5,2 -6,-3 v 4 4 l -1,2 1,4 -6,3 -4,4 -6,6 1,-3 -1,-3 v -3 -3 -3 -3 -3 l 5,-1 -5,-2 -1,-3 1,-3 5,-3 h -5 v -3 l -1,-3 1,-3 -1,-3 v -3 l 1,-2 4,-1 -5,-2 v -4 -3 -3 -3 -3 -3 l 1,-3 -1,-3 v -3 -3 -3 -3 -3 -2 -3 l 1,-3 -1,-3 1,-3 v -3 l -1,-3 1,-2 v -3 l 1,-3 v -3 l 1,-3 v -3 l 1,-2 1,-3 2,-2 1,-2 1,-2 5,4 -2,-6 2,-2 h 2 l 2,-2 2,-1 1,-2 h 2 l 2,-1 h 3 l 2,-2 h 3 l 2,-1 1,-1 h 3 l 2,-1 2,-1 h 2 3 l 2,-1 2,-1 h 2 l 3,9 5,-5 -5,-4 2,-1 h 3 3 l 1,-2 2,1 h 3 l 2,-1 h 3 3 3 3 l 3,1 3,1 h 3 l 2,1 3,1 h 2 l 3,1 h 2 l 2,2 2,-1 2,2 2,-1 2,2 3,1 h 3 3 l 1,6 1,-5 h 2 l 3,2 2,-1 h 3 3 l 1,-1 3,1 h 3 l 1,-1 3,1 1,-2 2,1 h 3 3 l 2,-1 1,-1 3,1 1,-2 2,1 h 3 l 2,-1 1,-1 h 3 3 l 2,-1 2,1 1,-2 3,2 1,-2 h 3 3 3 l 2,-1 h 3 3 3 l 2,1 3,1 h 3 3 l 1,2 h 3 3 l 1,2 h 3 l 2,1 -12,6 -11,-8 -4,4 -6,5 -3,10 -6,1 v -2 l -1,-3 v -3 -3 l -3,-3 2,-2 -1,-3 -3,1 -1,3 v 4 l 2,1 v 3 l -2,2 3,2 -3,2 2,1 v 3 l -1,2 v 3 3 2 l 1,3 3,-2 -1,-4 1,-3 1,-4 2,1 v 3 3 2 l 1,3 v 2 3 l -3,-2 -2,2 -2,-1 -1,2 1,3 v 2 l 1,3 -1,2 2,2 -2,2 2,1 v 3 l -1,2 v 3 l 3,-1 -1,3 -1,2 1,3 2,-1 -1,3 v 2 2 l 1,3 -1,2 v 2 h 4 l -1,2 -2,1 v 3 h 3 l -1,2 -2,2 3,2 -2,1 1,3 -1,1 1,3 -1,1 v 3 h 3 l 2,-2 v -3 l 1,-2 -1,-3 v -3 l 6,-2 -6,-1 v -3 -3 -3 -3 h -3 l 1,-3 1,-1 -1,-3 1,-1 v -4 l -2,1 -1,-3 2,-1 v -2 -2 l -4,-1 1,-3 3,1 -1,-3 1,-1 -1,-3 v -2 l -3,3 -1,-4 v -3 l 1,-2 h 3 v 3 h 7 l 4,-8 3,-8 4,-4 4,-7 8,4 v 12 l -5,8 -2,9 -4,5 -7,5 v 10 l -2,11 6,1 6,-5 1,-8 8,-1 4,-7 V 62 h 10 v -3 l -1,-3 v -2 -3 l -2,-3 1,-1 -1,-3 1,-2 -1,-3 -1,-3 1,-2 -1,-3 -1,-3 1,-1 v -3 -2 l 1,-3 -1,-3 1,-1 3,1 v -2 l 4,2 v 2 h 3 l 3,2 h 3 l 1,2 h 3 l 1,2 -7,2 -4,9 -1,11 12,3 v 11 l -5,5 -5,2 -7,-2 v 2 l 2,3 -1,2 1,3 v 2 l 1,3 v 2 2 l -8,4 -9,4 8,4 1,10 -8,-3 -7,-1 -6,5 -2,5 -6,5 -3,4 h -5 v 4 l -3,-2 -2,-1 -1,3 1,3 2,-1 3,2 -3,2 -2,1 1,3 -1,1 1,3 3,1 1,-3 v -4 l 7,-1 6,-3 2,-8 7,-1 3,-7 8,3 6,2 -1,8 -8,-3 -6,6 -3,4 -7,4 -7,3 -2,6 h -6 v -3 l -3,-1 -1,2 v 3 l 4,2 -1,2 -2,-1 -1,3 4,1 v 3 l -3,-1 -1,2 v 3 l 1,3 -1,3 v 2 l 1,3 -1,2 v 3 3 l -1,3 v 4 4 l 3,-1 1,-2 1,-1 -1,-3 1,-1 v -3 -2 -3 -3 -3 h 3 l -3,-3 v -3 -3 l 5,2 1,-6 5,1 3,-5 3,-4 h 5 l 2,-6 7,-3 3,-5 5,1 9,5 1,-2 v -3 -2 l -1,-3 1,-1 v -3 -2 -3 -2 l -1,-3 1,-1 v -3 -3 l -1,-3 v -2 l 1,-2 -1,-3 v -2 l -1,-3 1,-2 -1,-3 v -2 l 7,-2 7,-5 h 8 l 1,-10 2,-10 1,-10 3,-7 -14,-2 2,-10 v -5 l 1,-1 3,3 1,-1 3,3 4,1 -1,1 4,2 1,-1 3,3 h 2 l 3,2 h 3 l 1,2 h 3 l 1,2 h 3 l 1,2 4,2 2,1 2,2 2,3 2,4 1,4 1,4 v 4 4 l 3,4 v 3 l 2,3 1,3 3,3 v 3 l 3,3 v 3 l 1,3 2,4 v 4 l 1,4 1,4 v 4 l 1,4 v 4 4 4 4 4 4 4 4 l -1,4 v 4 4 l -1,4 v 6 4 l -1,4 v 4 l -1,4 -1,4 v 6 l -2,3 1,5 -2,4 -1,4 -1,6 -1,4 -1,4 v 4 4 l -8,1 -1,7 -3,7 7,4 6,1 1,9 -3,4 -3,6 v 9 l -4,6 -3,7 -1,7 -9,-3 -6,5 -6,3 -11,2 2,-9 4,-7 6,-1 3,-5 7,2 4,-6 3,-7 4,-6 1,-11 -5,-1 -5,3 -3,3 -2,7 -3,5 -6,-2 -6,5 -6,1 -2,8 -5,5 -9,-5 v -9 l 8,3 -1,-5 v -4 l -1,-4 v -4 -4 l 1,-3 -1,-3 1,-2 v -3 -3 l 1,-2 v -3 -2 l 1,-2 4,1 5,-3 5,-5 3,-5 3,-5 2,-6 2,-5 h 5 l 7,4 -4,5 -3,3 -1,7 -3,5 -3,5 -5,3 -4,5 -3,3 -5,5 -2,12 7,1 4,-8 6,-1 2,-6 4,-3 5,-2 2,-5 3,-4 1,-8 2,-7 5,2 v -8 l 1,-6 4,-3 h -11 l 2,-6 4,-3 5,1 1,-6 v -7 l 3,-3 -9,2 -4,4 -4,-9 4,-4 h 5 l 3,-3 6,2 v -8 l -7,-2 8,-5 -6,-2 -8,-1 -2,8 -3,1 -4,-1 v 3 2 3 3 3 3 3 l -1,2 v 3 l 3,2 -4,2 -1,4 3,1 -4,3 -7,-4 -5,2 -1,6 -3,5 -3,6 -3,6 -4,-1 v 2 l -1,2 v 3 l -1,2 -1,2 -9,-3 -2,-10 5,-2 9,1 1,-2 v -2 l 1,-2 v -3 l 1,-1 v -3 l 1,-2 v -2 l 1,-2 v -2 l 1,-2 v -2 l 1,-3 h 4 l 7,-1 2,-5 1,-8 v -7 l -7,2 -1,6 -5,-1 v 3 l -1,2 3,1 -3,2 v 3 l -2,2 -8,-1 -3,3 v 8 l -3,7 -5,1 v -11 -8 -8 l 5,-3 5,2 4,-4 7,-2 1,-1 1,-2 -1,-3 1,-2 v -3 -2 l -1,-3 1,-2 1,-3 -2,-1 h -8 l -2,6 -1,7 -6,2 h -6 l -4,2 -2,-3 1,-2 v -3 l -1,-3 2,-1 h 8 l 1,-7 2,-6 6,-2 1,-7 8,-3 1,3 v 3 3 l 1,3 -1,2 1,3 6,-6 3,-5 6,-2 2,3 -1,2 2,2 v 3 l 1,3 -1,1 -5,4 h -6 l -2,8 8,1 7,-1 1,-2 -1,-3 -1,-3 1,-1 3,-4 5,-1 3,-1 6,1 7,3 -1,-9 2,-6 -10,2 v -8 l 3,-4 7,1 -1,-10 -7,-1 -7,-1 -3,4 v 8 8 l -5,-1 -5,1 -2,-2 -1,-3 1,-1 -2,-3 1,-1 -1,-3 v -2 h 6 l -2,-13 4,-5 h 6 l 8,2 7,2 -1,-10 -2,-11 -6,7 -7,-1 -12,-1 4,-4 8,-8 3,-7 -13,1 1,-13 6,-3 V 54 l -10,-5 -4,3 -3,10 1,14 v 5 5 l -1,3 1,4 v 4 l 1,3 -1,2 1,3 v 3 l 1,3 -1,2 2,2 v 3 2 l 1,3 -1,2 2,2 -7,3 -2,8 -5,1 -1,-3 v -4 l -1,-4 -1,-5 -2,-6 6,-1 -1,-10 V 95 h -9 l -1,10 -5,-1 -1,8 -5,6 10,6 -7,6 7,4 -6,7 -4,3 -5,-1 -2,2 2,2 -2,3 2,1 v 3 l -1,2 v 2 3 2 l -1,1 -7,3 -2,6 -5,4 -5,-1 -4,4 -1,6 -1,6 -8,1 1,-6 v -7 l 2,-5 3,-4 4,-4 7,1 2,-6 4,-4 1,-6 1,-7 -8,3 -2,5 -3,6 -4,-1 -5,3 -5,4 -3,6 -1,7 -2,5 3,9 1,8 8,2 5,-2 7,5 8,-2 1,-7 -9,1 1,-6 1,-6 6,2 2,-6 7,-1 1,3 v 2 3 3 l -1,1 1,3 v 3 3 l -1,1 1,3 v 2 3 3 l -1,1 1,3 -1,2 1,2 v 3 3 l -1,1 1,3 -2,1 2,3 v 3 l -1,2 v 3 l 6,2 -5,1 -1,2 v 2 3 3 l 5,4 -5,-1 -1,1 1,3 -1,2 1,3 -1,2 -1,4 2,-1 h 5 l -5,4 -1,3 1,1 -1,3 v 2 3 2 2 2 3 3 l -1,1 1,3 -1,1 -11,2 -6,4 -6,3 -15,2 v 3 3 l 1,3 h -4 l -3,1 v 4 l -2,-1 -1,2 -2,3 -4,-2 -4,2 -2,2 -2,1 -1,3 -3,3 -2,3 -2,1 -4,1 v 4 l -1,3 1,4 v 4 l -2,3 -4,1 -2,3 h -4 -4 l -1,4 -1,4 -2,3 -3,2 -3,1 h -4 -4 -4 l -3,-1 h -4 l -1,4 -3,2 -2,3 -2,2 h -4 l -4,2 -2,3 -4,1 h -4 l -3,-1 2,-4 h 4 l 2,-2 3,-2 3,-1 2,-3 3,1 3,-3 2,-3 2,-4 h 4 l 1,-4 h 4 v 5 h 4 4 l 2,-1 h 4 l 2,-3 1,-3 2,-3 2,-4 h 4 4 l 4,-2 1,-3 v -4 h -5 l -1,4 h -4 -4 l -4,2 -1,3 -2,3 -2,3 -2,2 -5,1 v -4 l 2,-3 3,-2 -1,-4 3,-1 2,-3 h 4 l 3,-2 h 4 l -1,-4 -4,-1 -4,2 -3,-1 2,-4 3,-2 h 4 l 4,1 v -4 l -5,-2 2,-3 2,-2 4,3 v -4 l 2,-3 -6,-1 -4,-1 -2,3 -1,3 h -4 l -4,-2 -3,2 -3,2 -2,-5 h -4 l -4,2 1,4 4,-2 1,5 -3,2 -2,3 -2,4 -4,2 2,5 3,-2 h 4 v -4 l 3,1 v -5 l 3,-2 v -4 l 4,-1 4,-2 5,2 -4,2 -3,3 -2,3 -3,3 5,2 -2,3 h -4 l -1,3 1,4 -3,2 -1,4 h -4 l 1,-4 2,-5 h -4 l -3,4 h -4 l 1,-5 h -3 l -3,2 v 4 l -3,2 -2,2 -3,2 -4,1 -2,3 -2,3 -4,2 -4,2 -3,-4 2,-2 h 4 l 2,-3 2,-3 2,-3 2,-2 3,1 2,-3 3,-1 v -4 l 3,-2 3,-2 2,-3 2,-4 3,-2 v -4 l -1,-4 -4,1 v 4 l -3,2 -1,3 -2,3 -3,1 -2,3 -3,3 -2,3 -5,1 -2,3 -2,3 -2,3 -2,1 -4,1 -2,1 v 4 4 l 4,2 -1,4 -4,-2 -2,3 -1,3 -4,1 -1,4 -1,4 -4,2 -4,-1 -4,1 h -4 l -2,2 h -4 v -5 l -4,1 -2,3 1,4 5,1 -2,4 -4,-1 -2,3 -3,2 -3,2 -1,4 4,2 2,-3 3,-2 3,-2 3,1 3,-2 v -4 l 2,-3 4,-2 4,-1 h 4 v 5 l 4,-1 2,-2 v -4 l 4,-2 v -4 l 2,-3 h 5 v -4 l 4,2 1,-4 3,-2 3,-2 3,1 2,-3 3,-2 2,-3 2,-2 h 4 l 2,-2 2,-4 4,-1 h 4 v 4 l -4,1 -1,3 -2,3 -2,2 -4,-1 -2,3 -2,2 -3,2 -4,2 -4,1 -2,3 -1,4 h -4 l -4,1 -2,2 v 4 l -2,3 -2,1 -1,4 -2,2 h -4 l -4,1 h -4 v -5 l -4,1 -1,3 v 4 l -3,2 -3,2 -3,1 h -4 l -2,4 -3,1 -2,1 h -3 -3 l 2,-4 h -4 l -2,2 1,3 -2,1 h -3 v -3 l -3,3 -1,3 3,1 6,1 4,-3 h 5 l 3,-2 3,-1 h 3 l 1,-2 2,4 3,-1 h 2 l -4,-2 2,-1 h 2 l 2,-3 4,-3 3,-2 3,1 3,-2 h 4 4 l 4,-1 -1,-5 h 4 v -4 l 2,-3 1,-3 4,2 v -4 l 5,1 v 4 l 1,4 3,-3 2,-3 3,1 3,-3 h 5 v -4 h 4 4 l 2,-1 1,-4 3,-2 1,-4 4,5 1,-4 h 4 4 4 l 3,-1 4,-2 2,-3 h 4 l -1,-4 1,-3 3,-1 h 4 l 2,-3 4,-1 2,-3 2,-3 v -4 l 4,-2 -4,-2 v -4 l 2,-1 4,-1 1,-3 1,-4 4,-2 2,-2 2,-3 5,2 3,-2 2,-2 2,-3 -1,-3 h 2 2 2 v 4 l 3,-3 3,1 v -2 h 3 l 2,1 -1,2 4,-1 2,-1 3,1 3,1 h 3 l 2,-1 1,3 2,-1 h 2 l 1,4 -2,3 -4,-2 -3,-1 -1,4 5,2 -2,3 -4,-1 v 4 l 5,2 -3,3 -4,-1 -2,2 -2,2 v 4 4 l -4,-2 -1,4 -3,2 -4,1 h -4 v 4 h -4 l -2,4 -3,1 -2,3 -1,4 -1,5 3,1 3,-2 v -4 l 2,-3 4,2 2,-1 -2,-5 4,1 2,-3 2,-1 2,-2 4,-2 2,-3 4,1 -1,5 -3,2 -3,2 4,3 h 4 l 2,-2 v -4 l 2,-3 2,-2 4,-2 3,-2 3,3 v -4 l 2,-3 3,-2 v -4 -4 l 3,-2 2,-3 3,-2 2,-2 1,-3 -3,-1 -2,-2 -2,1 -1,3 -3,3 -2,3 -3,2 v 4 4 l -3,2 -3,2 -3,1 -1,4 h -5 v -4 l 1,-3 3,-2 4,-2 2,-2 v -4 l 1,-4 3,-2 2,-3 3,-1 3,-4 -1,1 -4,-1 v -2 h -3 l 1,-3 v -3 -3 -3 -2 -3 -2 -3 l -1,-2 1,-2 11,2 8,1 -7,12 10,1 12,7 9,4 2,-7 9,-3 6,-6 -4,18 11,9 v -11 h 7 l 6,-1 -1,-2 -2,-3 1,-1 -2,-3 1,-2 -1,-3 -1,-3 1,-1 v -3 l 1,-1 v -3 l 1,-1 1,-2 1,-2 v -2 l 1,-2 1,-2 -1,-3 2,-1 -1,-3 2,-1 -1,-3 2,-1 -1,-3 1,-2 1,-2 v -3 l -2,-3 2,-1 v -2 l -1,-3 1,-1 -1,-3 1,-1 h 3 v 3 l 3,1 1,3 h 2 v -3 l 2,-3 -5,-3 2,-3 4,1 2,-3 h 4 v -4 l -4,-1 -5,3 v -4 l 1,-3 4,-1 4,2 1,-4 h 4 l 3,-1 4,-1 v -4 l 3,-3 -4,-2 -3,1 -1,4 -4,1 v -5 l -4,1 -1,3 -1,4 -5,-2 -2,2 -3,2 -2,2 1,4 v 4 l -2,3 -2,2 -3,1 -2,-2 1,-1 -3,-2 4,-2 2,-2 v -4 h -5 l -2,4 -1,2 -4,1 3,-5 v -2 l -2,-1 2,-1 2,-2 h 3 l 4,-1 -5,-2 1,-1 2,-1 2,-1 2,-2 2,4 1,-3 2,-1 2,-1 2,2 1,-2 2,-1 2,-2 2,-2 3,1 v -2 l 3,1 h 2 3 l 3,1 3,1 3,1 h 2 l -1,4 4,1 1,-3 2,1 2,2 v 3 l 3,-1 2,3 1,3 -2,1 -2,3 -3,-1 -2,3 -3,3 -2,-5 2,-3 4,-3 -4,-1 -4,-2 -2,2 v 4 4 4 l -2,2 -4,-2 1,-4 v -4 l -5,3 -2,1 v 4 l 4,3 -4,1 -2,3 h -4 l -2,3 v 4 l 5,2 1,-4 3,1 2,-4 4,-1 2,-2 4,1 3,-4 5,2 2,-3 3,-2 4,-1 2,-3 1,-2 1,5 1,3 -4,2 -4,1 -1,4 v 4 l -1,4 -2,4 -4,1 -4,1 -2,1 -4,1 -4,-1 1,-4 2,-1 4,-1 3,-1 h 4 l 2,-3 1,-4 -4,-2 -1,4 h -4 l -4,1 -3,1 -4,4 -2,3 2,5 -3,2 v 2 l -3,-4 1,-2 h -3 l -1,-2 2,-3 h -4 l -2,-1 v 2 l -2,6 -3,12 7,1 h 6 8 v -2 l -3,-3 2,-1 -2,-1 4,-2 3,1 4,-1 2,-1 4,-2 4,-2 v 4 l -3,3 -2,3 h -4 l -3,1 -2,2 -1,3 -1,1 2,4 1,-1 4,-2 2,-2 3,-2 4,-2 2,-3 3,-2 v -4 -4 l 1,-3 1,-4 1,-4 v -4 h 4 l 1,5 h 4 v -2 l 2,-1 1,-2 -4,1 -1,-3 -2,-2 2,-1 1,-2 1,-1 h 3 l 3,-1 1,2 3,1 -3,1 h -3 v 3 l 4,1 -1,4 -2,3 -3,2 v 2 l 2,3 -1,2 h -5 l 1,-4 -4,-2 -1,4 -1,4 4,2 -2,3 -2,1 -1,4 -3,2 -2,3 -3,2 -3,1 -2,3 -3,1 h -4 v 2 l 1,3 h 2 v 3 l 1,4 1,-2 3,-2 v -4 h 4 l 1,-3 3,-2 3,-2 2,-3 3,1 4,-1 2,-2 -6,-2 3,-3 2,-3 1,-4 h 3 l 2,4 -1,2 -2,3 4,1 v 3 3 l 1,4 -1,2 1,4 v 4 l -2,2 -5,-1 h -4 l -1,3 -3,2 -2,2 -5,-1 2,-4 3,-2 2,-4 4,-1 2,-2 4,3 v -4 -5 l -4,1 -4,1 -3,2 -3,2 -2,3 -3,2 -1,4 h -4 l -2,2 1,2 4,1 -2,2 v 2 4 l 2,-1 h 3 l 2,-3 h 4 l -1,5 -3,3 -2,3 -3,-4 -1,2 1,3 -2,2 2,1 -1,3 -1,2 -1,2 -1,3 h 3 l 3,-3 2,-3 2,-3 3,-1 v -4 l 3,-2 v -4 l 2,-3 1,-3 2,-3 3,-2 h 4 v 4 l -3,2 -1,3 -1,3 -2,2 v 4 l -3,2 v 4 l -3,2 -2,2 -2,3 -2,2 -3,2 -4,2 -2,-4 -2,1 1,3 -4,3 -5,6 -6,6 -6,4 -7,4 2,-10 2,-2 1,-2 1,-2 1,-1 1,-2 v -2 l 1,-2 v -3 -3 -4 l 5,-4 h -6 l -1,-3 -2,-3 -3,-3 1,-1 -3,-2 -2,-1 -2,-2 -1,-3 8,-6 11,10 2,-8 -3,-13 h -8 l -9,-3 -5,3 -4,10 2,2 v 2 l 4,2 v 2 l -4,8 -1,12 -8,6 -2,10 12,-1 v 12 11 l -6,4 -2,2 v 4 4 l -2,2 v 4 l -2,2 -2,3 -2,2 -3,2 -2,1 v 4 l -2,2 -4,1 -4,2 -2,4 -2,2 -4,-1 -1,3 -3,4 -4,1 h -4 l -3,2 v 2 l -2,4 h -4 l -1,4 -3,2 -3,3 -1,4 -2,3 -3,3 -3,1 -2,4 h -5 l -4,1 -3,-1 -4,2 -3,3 5,4 3,-3 h 6 l 5,-1 5,-2 4,-1 2,-3 3,-3 2,-4 1,-4 4,-3 3,-3 4,-3 3,-1 -1,-2 -3,-2 1,-1 h 4 l 4,-1 3,-3 3,-2 3,-2 4,-2 1,-4 4,-1 2,-2 -1,6 -2,3 -3,3 -3,2 -2,3 -2,1 -2,2 -4,1 -3,1 -1,3 2,2 1,3 -6,-1 -3,3 -3,3 -1,4 -1,4 -3,1 -3,4 5,2 h 5 l 2,-4 1,-4 1,-4 4,-3 3,-2 3,3 v 2 l 1,2 2,-2 2,1 2,2 3,1 v 2 l 3,2 1,2 -3,2 -3,3 -3,-1 -3,4 2,2 -3,2 2,4 3,-2 2,-2 2,1 2,2 1,-5 3,-2 v -5 l 2,2 2,3 2,2 3,2 -1,3 h -4 l 1,5 -3,1 v -3 l -3,-2 -1,2 v 4 h -4 v -4 l -4,1 -1,4 -2,2 1,4 4,-1 2,-2 3,1 h 4 l 3,-2 1,4 1,4 -3,2 -2,-4 -3,1 -1,3 -1,4 -2,4 h -4 l -2,3 -2,3 -2,2 -2,1 v -4 l 1,-2 v -2 -2 l 3,-1 2,-3 3,1 2,-3 v -4 l -4,1 -4,-2 -1,3 -1,3 -1,2 -1,-4 v -3 l 1,-2 -1,-3 2,-2 -3,-1 1,-2 4,-3 -2,1 -3,-1 v -3 l 1,-2 v -2 -2 l 1,-2 1,-2 1,-2 1,-2 1,-2 3,-3 h -3 l -1,-3 -5,-1 -1,4 -1,5 -3,3 v 5 l -2,4 -2,-2 -1,3 -1,1 -3,1 -2,-1 -1,2 -1,2 -1,2 -1,2 1,1 v 3 2 l 1,3 -2,1 2,2 -3,1 -2,2 -1,1 -1,2 h -3 v 3 l -1,3 h 3 l 1,-3 3,-1 2,-1 1,-2 1,-2 h 3 v -3 l 1,-2 2,1 3,-1 1,-2 1,-2 1,-2 -2,-3 -2,2 -1,2 -1,2 h -3 l -1,-3 1,-1 -1,-3 3,1 -1,-3 1,-2 2,-1 v 4 l 3,-1 v -2 l 1,-2 1,-2 1,3 1,3 v 2 2 2 3 l -1,2 1,2 -2,1 -3,1 -1,2 -1,1 -1,2 h -3 l -1,2 -1,2 h -3 l -3,1 v 3 l -3,1 h -3 l -1,2 -2,-2 v -3 l 1,-3 v -2 l -2,-1 1,-2 -3,-1 1,-2 h 2 v -3 l 2,-1 2,-1 -2,-2 v -2 l 2,-1 -2,-2 2,-1 -1,-2 v -2 -2 -2 l 1,-2 2,2 v 2 2 2 3 l 1,2 v 2 l -1,1 1,2 -1,2 -2,1 -1,2 -1,2 h 2 l 2,-2 2,-1 1,-2 1,-2 v -2 -2 -2 l -1,-2 v -2 l 1,-1 -1,-3 1,-2 2,-1 -3,-1 1,-2 h 3 l 2,1 h 3 l 2,-1 v -2 l 1,-3 -4,2 -2,1 v -3 h -2 l -2,2 -1,-3 h -2 v 2 l -1,3 -3,1 v -2 l 1,-2 v -2 l -3,1 -1,1 -2,1 2,2 -1,1 1,2 -2,1 1,2 -1,1 -1,2 2,1 v 2 l -1,1 v 2 2 l -3,-1 v 2 2 l 3,-1 v 2 l -1,2 -2,1 -1,2 -1,1 v 2 l -1,2 3,1 2,2 -2,2 -1,2 3,1 v 2 l -3,2 -5,1 -4,-1 -4,2 -3,2 -1,5 -1,1 -3,1 v -4 -2 l -3,-2 1,-2 3,-3 4,-2 -1,-5 5,2 6,2 3,-3 2,-1 -3,-1 -1,-2 1,-3 -3,-1 v 2 l -2,3 -5,-2 v -5 h 4 v -2 l 4,2 h 2 l 1,-1 2,-2 -2,-1 1,-2 -3,-1 3,-1 v -2 l 1,-2 h 2 v -2 l -1,-2 1,-2 h -3 l -1,2 v 2 l -1,2 -1,2 -2,1 -2,1 -2,1 -2,1 v -3 l -2,-1 v -2 l -1,-2 2,-1 v -3 l 2,-2 2,-1 2,-1 v 3 l -1,1 -2,1 2,2 -1,1 -2,1 1,2 h 2 l 2,-1 1,-2 v -2 l 1,-2 v -2 -2 l 1,-1 3,1 v 2 l 2,-1 1,-2 -1,-2 v -2 l 1,-2 -4,2 v 2 l -2,-1 -2,1 -2,1 h -4 l -3,2 -1,2 -1,3 -4,2 2,-3 v -2 -2 l -3,1 -1,-3 2,-3 3,-2 -3,-1 -3,-2 h -3 l -1,-3 4,-2 3,-4 3,-3 4,-3 5,1 h 5 l 1,-4 5,-1 3,-3 1,-5 3,-3 3,-3 2,-4 2,-5 3,1 1,3 2,-1 1,-4 3,-2 h 4 4 l 1,-4 2,-4 h 4 l 3,-2 3,-2 2,-3 4,-1 -4,-3 3,-2 2,-2 1,-3 4,2 2,-3 2,-3 2,-3 1,-5 h -4 l -2,3 -2,3 -2,2 h -5 v -4 l 2,-2 2,-2 2,-3 3,-2 1,-3 h 4 l 1,4 3,-4 h 3 l -1,-2 -1,-4 -1,1 h -4 l 1,-4 1,-1 -2,-3 h -2 l -1,-3 -2,-1 -1,-3 -2,4 h -4 l -1,3 -3,2 -2,3 -1,3 -4,-2 -1,4 -2,3 h -4 l 2,-5 h -4 l -2,3 h -4 l -4,2 -1,-4 2,-3 h 4 v -4 l 1,-3 4,-1 v 5 h 4 l 2,-2 h 4 l 2,-3 3,-2 v -4 h 4 4 l -2,-2 -2,-3 -2,1 -1,-2 -3,1 -1,-3 h -2 -3 l -2,-2 h -3 l -1,-2 h -3 l -1,2 h -4 l 1,-3 -2,-2 h -2 l -1,3 -2,3 -2,2 -1,4 -2,1 v 3 h -4 -6 l 1,-2 2,-3 2,-1 2,-2 2,-3 v -4 l 4,-1 2,-1 -4,-1 -3,-2 -1,1 -3,-1 1,4 -2,3 -3,2 -3,2 -1,3 -2,3 2,4 -2,3 -3,1 -1,3 -1,4 -2,2 -3,3 -2,-5 -2,1 -2,3 -2,2 -2,5 -3,2 h -4 l -2,3 5,2 -4,2 -2,3 -3,1 -2,2 h -4 l -5,-2 2,-3 4,-1 2,-3 3,1 v -5 -4 l -4,-1 -2,3 -1,4 -3,2 -4,-2 v 4 l -2,3 -2,1 h -4 l -3,2 -2,-5 -3,-1 -3,2 h -4 l -3,2 -2,3 1,5 h 4 l 1,-3 2,-3 h 5 l 1,4 -1,3 -2,-1 -1,2 -2,1 h -3 l -2,1 -2,1 -3,-3 v 3 l -2,1 v 4 h 6 5 l 4,-1 3,-2 3,-3 v -3 l 2,-2 4,-2 -1,3 -1,2 4,-2 h 3 l -1,-3 h 4 v 3 h 3 l 2,-1 2,2 1,4 3,-3 -1,-2 h 3 l 2,-3 4,-2 2,-2 3,-2 v -4 l 3,-3 1,-4 3,1 1,-4 4,4 2,-3 2,-3 4,2 -1,4 -2,3 -5,1 -3,1 -2,3 -2,1 v 4 l -3,2 -2,3 -3,1 -3,2 h -2 l -1,2 v 5 l -3,2 h -5 v 6 l -4,2 -4,2 -2,4 -3,1 -4,-2 -3,2 -4,4 5,1 h 6 l 5,2 3,-3 2,-4 4,-2 4,-1 v -5 l 3,-1 4,-2 2,-4 -1,-5 1,-2 h 3 l 1,2 2,4 1,-3 v -4 l 2,-4 4,-1 v -4 l 3,-2 2,-1 2,-3 4,-1 2,-4 2,-3 v -4 l 3,1 2,-3 3,-2 v -4 l -5,1 -3,2 -5,2 v -4 l 2,-3 3,-2 3,1 1,-4 4,2 3,-1 1,-2 h 4 l 1,-5 2,-3 3,-2 4,1 4,-1 4,1 v 4 l 5,-2 v 4 l -3,3 h -4 l -2,-5 -3,2 -4,-2 -1,3 -2,3 -1,4 -3,1 -4,-1 v 3 l 2,1 -2,2 1,2 1,3 h -3 l -3,3 -2,3 -2,3 -2,2 v 4 l -2,1 -4,1 -2,2 -4,2 v 4 l -3,2 -3,1 -2,4 v 2 l 3,-1 v 3 h 3 l 1,-4 3,-2 3,-2 v -4 l 4,-1 2,-2 h 4 l 2,-3 v -4 l 2,-3 h 4 l 1,-2 -2,-2 1,-2 v -2 l 4,1 v 4 l 4,-1 3,-3 h 4 l -2,4 v 4 h -4 l -4,1 h -4 v 2 2 l -1,1 1,3 h 3 l 2,-2 3,-2 h 4 l 4,-2 2,-3 -1,-4 3,-2 3,3 2,-3 1,-3 2,-3 5,-3 2,-3 3,-1 2,-3 3,1 v 5 l -4,2 -2,3 -3,2 -2,1 -2,3 -2,4 v 4 l -5,-2 -2,4 -4,2 -1,4 -2,1 -4,-2 -2,3 -2,2 1,5 h -4 l -3,1 v -3 l 1,-2 v -2 -2 l -4,-2 -2,3 v 4 l -4,-3 -2,3 -3,-1 -1,4 -3,2 -3,2 -3,2 -2,2 h 3 l 3,2 -1,2 -2,4 -2,4 -3,3 -3,-1 -4,2 -4,3 -5,-2 3,-4 3,-3 4,-3 h 4 l 2,-4 -5,-3 h -4 l -2,4 -4,2 -3,3 -2,5 -1,5 -4,-5 -3,3 -2,4 -3,3 2,1 1,3 2,-2 h 3 l 1,-2 h 2 l 3,1 h 3 2 l 2,4 1,-4 h 2 l 4,-3 v 3 h 5 l -1,-3 1,-1 h 4 l 3,-3 2,-4 2,-4 2,-4 h 3 l -2,-2 h -4 l 1,-4 3,-1 2,-3 3,-2 3,-1 1,5 -3,2 -2,3 1,3 3,-1 3,-2 2,-2 2,-2 -2,-1 1,-3 4,2 h 4 l 2,-4 2,-3 2,-2 4,1 3,-2 v -4 l 3,-2 2,-3 5,2 -2,3 -3,3 v 4 l -3,2 -3,2 h -4 l -2,3 -1,3 -2,2 h -4 l -3,2 -3,3 -3,1 h -3 l -2,2 -4,2 -1,4 -3,3 -2,5 -3,3 -2,2 -5,2 -3,1 -5,-1 -4,3 -3,3 -3,3 -2,4 -3,2 -1,4 -3,1 -3,2 -2,3 -4,1 v 6 l -3,1 -3,3 -3,1 -3,3 -3,1 -2,5 5,1 4,-1 3,-3 4,-3 4,-1 3,-2 4,-3 -5,-3 5,-2 2,-4 h 5 l -1,6 4,1 -1,2 -3,1 2,3 -2,1 -1,4 -4,-2 -2,4 h -5 l -3,3 -2,2 -4,2 -4,2 -2,1 1,5 -3,4 -3,3 v 5 l -3,2 -1,2 h 5 l 5,-1 v -5 l 3,-4 3,-4 1,-4 4,-2 4,-2 3,-3 4,1 3,-3 4,2 1,-5 3,-4 4,5 -2,4 v 5 l -4,1 h -4 -6 l -4,3 -4,2 -1,4 -4,2 -2,5 5,2 3,-2 3,-2 2,-4 4,1 v -5 l 4,-1 6,1 -3,3 -1,3 -2,5 h -5 l -3,4 -3,2 2,4 -3,-1 v 3 l 2,4 -3,-1 v 3 l 2,2 -1,2 v 2 2 l -3,1 -2,-5 h -5 l 2,6 -3,1 -3,3 -5,-2 -2,3 h -4 l -2,4 -3,2 -5,1 5,4 -5,2 -2,1 -3,2 -4,-2 -4,2 h -4 l 1,-6 5,-2 4,-1 2,-3 v -5 l 5,2 2,-2 2,-2 2,-4 h 4 l 2,-4 5,3 3,-3 v -6 h 4 4 l 1,-5 1,-5 -5,-2 -2,4 -2,1 h -4 l -2,4 v 5 l -5,-2 -4,-1 -1,4 -4,2 -3,3 -3,2 -6,6 -2,3 -4,3 h -4 l -5,-1 h -4 l -4,2 -3,3 -4,1 h -5 l -3,2 -6,-1 -1,-5 5,-1 4,-1 3,-1 h 4 l 3,-3 4,-2 h 5 4 l 5,1 2,-4 6,-1 1,-4 1,-5 h 4 l 3,-3 3,-2 2,-5 6,2 2,-4 -4,-2 h -2 l -2,1 -3,1 -1,1 -2,1 h -2 l -2,-1 -1,2 -1,3 -2,-3 h -3 v 2 l -1,4 -1,4 -1,4 -5,2 h -4 l -5,-1 -3,1 -4,1 -4,2 -3,1 -4,1 -4,-3 -1,5 -3,2 -4,4 -1,3 -1,4 -3,3 h -6 l -5,2 v -5 l 5,-2 3,-1 v -5 l 2,-3 3,-3 3,-3 2,-3 -2,-6 4,2 h 4 l 4,1 h 5 l 3,-3 4,-1 4,-1 4,1 5,1 2,-3 1,-4 -4,-2 2,-1 h 3 l 2,1 -1,-5 4,-1 3,-3 3,-2 3,-1 h 4 l 4,-1 4,-2 2,-3 v -5 l 4,-1 2,-2 1,-5 -6,-3 -2,3 -3,2 -2,4 -1,4 -3,2 h -5 l 1,-3 h -3 l -1,2 -1,1 -1,2 -3,1 h -2 l -1,4 -3,-1 -3,3 -2,3 -2,5 -1,1 1,3 -4,-3 -1,2 -3,-3 1,-3 2,-4 2,-3 v -3 l -3,-1 3,-1 1,-2 1,-1 v -3 l 3,1 2,-1 2,-1 -2,-2 2,-1 1,-1 h 3 l 1,-2 v -3 h -3 v 2 h -3 v -2 l 1,-2 h 3 l 2,-1 -1,-2 2,-1 -1,-2 1,-1 -2,-2 2,-1 1,-2 -1,-2 v -3 l 2,2 1,-2 2,-1 v 3 l 3,1 v -3 -3 l 1,-2 2,-2 1,-2 3,1 -1,2 -2,2 -1,2 1,3 -1,2 1,3 h -3 v 3 h 3 l -1,3 h 3 l 1,-3 1,-2 1,-3 h -3 l 1,-3 3,-1 -3,-1 1,-2 1,-3 h 2 v 3 l 2,-1 h 3 v 3 h -2 l -1,2 -1,2 -1,3 v 3 l -1,2 -1,2 v 3 l -2,-1 h -3 l -1,2 3,1 -1,2 -3,-1 h -3 l -2,-2 2,-1 1,-2 v -2 h -3 l 1,-3 v -3 l -2,-1 -1,2 v 2 2 2 l -1,2 v 2 2 3 2 l -1,2 -2,1 -2,1 2,2 -3,1 -3,1 -2,1 -1,2 -2,2 h 2 l 3,-1 h 3 v -2 l 3,-1 h 3 v -3 l 2,-2 2,-1 -1,-3 v -3 l 2,1 h 3 l -1,3 v 2 l 3,1 v -3 l 2,1 v -3 l 2,-1 1,-2 2,-1 1,-3 1,-2 v -2 h 3 l 1,-4 -3,1 v -2 l 1,-2 h 2 v -2 l 1,-1 4,-1 2,-3 h 4 l 1,-4 h 4 l 1,-2 1,-2 2,-2 3,-1 2,-1 1,-4 2,-2 3,-4 2,-2 4,-3 3,-4 -5,-2 -4,3 -5,2 -2,3 -3,2 -1,5 -3,4 -4,2 -5,1 -2,4 -4,2 -5,-4 4,-3 2,-4 h 5 l 3,-2 4,-2 v -5 l 2,-4 3,-3 1,-4 -2,-2 h -3 v -2 h -3 -3 l 3,3 -1,4 -2,4 -1,5 -3,-1 -3,3 -5,5 -4,2 -3,3 -2,1 -4,1 -1,2 -2,-1 v 3 l -2,2 v 3 l -3,-1 v -3 l 1,-2 1,-1 1,-3 h -3 l -2,1 -1,2 -1,2 2,2 -2,1 v 2 l -2,1 1,2 v 2 l -1,1 -2,1 4,1 -2,1 -2,1 1,2 -1,2 2,1 -1,2 -1,1 -3,1 -1,1 v 2 2 2 l -1,2 -1,2 -2,-2 v -3 l 1,-2 v -3 -2 l 1,-1 2,-1 2,-1 -2,-2 2,-1 -1,-2 v -2 l 1,-2 1,-2 v -2 -2 l 1,-2 1,-1 v -2 l -3,1 -1,2 -1,2 v 3 l -1,1 v 2 l -2,1 1,2 v 2 l -1,1 v 2 l -2,1 -2,2 -2,-1 -2,1 -1,2 -1,3 -1,2 3,1 4,1 -1,2 2,2 v 3 l -2,-1 v 3 l -2,2 -1,2 -2,4 -2,3 -1,4 v 2 h 3 v 4 l -4,2 -4,3 -6,-1 2,-4 4,-3 1,-3 -3,-2 1,-1 1,-4 2,-4 2,-3 2,-1 2,2 1,-3 1,-1 v -3 -2 l -3,-1 v 3 l -1,2 -2,2 -3,-1 1,-2 1,-2 1,-2 v -2 l -4,2 -2,-3 -3,1 -1,1 3,1 v 3 h 2 l -2,4 -2,4 -5,2 -2,2 -5,-1 -4,-1 -1,4 -5,-2 -3,2 -5,-1 -2,3 -3,2 -3,3 -3,3 -3,3 -1,5 5,1 h 4 l -1,-6 5,2 v -5 l 4,-2 3,-3 5,2 3,-2 6,2 1,-4 5,1 3,-4 2,1 v 6 l -5,2 -1,5 h -4 l -4,-2 -3,2 -5,-2 -4,2 v 6 l -5,1 -3,4 1,5 v 5 l 5,-2 v -6 l 4,-1 2,-5 3,-2 5,1 v 5 l -3,2 -2,3 -4,2 v 5 l -3,3 -4,1 -2,3 -3,4 -3,2 h 8 l -1,5 5,2 h 4 l 4,-2 h 4 l -2,6 h 5 l 2,-4 1,-4 3,-3 4,2 h 4 4 l 4,-2 5,1 3,-2 3,-3 3,-2 h 5 l -1,5 -4,3 -3,3 -4,2 h -4 l -3,2 h -4 -4 l -5,-2 -1,4 -2,3 7,1 5,1 h 4 4 l 2,-3 5,4 v -5 h 4 l 1,-3 3,-1 2,-2 2,1 2,-1 h 3 3 2 l 2,-1 2,2 2,-1 h 3 l 1,-1 h 3 l 2,-1 1,-1 2,-2 1,-6 h 4 l -1,-5 4,2 1,-3 3,1 1,-2 3,-1 2,-1 1,-1 2,-2 1,-2 h 3 l 5,-2 2,-4 v -5 l 1,-4 1,-4 1,-4 3,-1 3,6 -1,4 -1,4 -1,5 -1,4 -2,4 v 5 l -5,1 v -5 l -5,2 -3,4 -4,1 1,5 -5,-1 -3,3 -2,3 h -4 v 5 l -3,2 -4,2 -2,2 -2,-1 h -3 -3 -3 l -3,-1 -1,1 -4,-1 -2,1 -3,1 h -4 l -2,5 6,1 5,-1 3,-2 4,1 4,-1 3,-1 h 4 4 l 2,-1 h 3 l 3,-1 h 4 v -5 h 5 v -6 l 6,2 3,-2 v -5 l 3,-3 2,7 3,-3 3,-2 4,-1 2,-2 3,-2 2,-2 -7,-2 3,-3 v -6 l 2,-4 1,-4 1,-4 2,-4 v -2 l 4,-1 3,-3 3,-2 h 6 l 4,1 3,-4 2,-2 3,1 v -2 l 2,-1 3,-1 v -3 h 3 3 l 1,-2 1,-2 h 3 l 1,-2 1,-2 1,-2 3,1 -1,4 -1,4 -4,-1 -1,2 -1,2 -2,1 -2,1 -2,-1 -1,3 h -2 l -2,1 -2,4 -3,3 -2,4 -2,1 -2,1 -1,3 -3,3 -1,1 2,2 -1,2 -7,-2 2,-4 3,-2 v -3 l 2,-1 v -3 l -4,2 -2,1 -3,-1 -2,2 -3,1 1,2 v 2 l 1,2 v 2 3 l -1,1 5,1 -4,2 -2,2 v 2 l -1,1 -2,2 2,1 h 5 l 1,-4 5,1 2,-2 1,-2 v -2 l 1,-1 h 3 l 4,-2 1,-4 v -5 l 2,-3 h 3 l 2,-2 3,-3 2,-4 2,-4 h 4 l 6,-3 v 5 l -1,3 -1,3 -3,-1 -1,2 -1,1 -1,2 -3,-1 -3,1 -1,2 -3,3 v 5 l 5,-1 3,-3 h 4 l -1,3 3,-1 1,-3 2,-4 v 2 l 2,5 2,-4 h 4 v 6 l 5,-3 1,-4 5,2 1,-5 -5,-2 -5,-1 -3,1 -4,1 1,-2 1,-3 1,-2 2,-1 -1,-3 1,-1 3,1 2,4 h 3 l 3,1 2,2 2,-3 2,-3 -1,-4 -3,2 -3,2 -4,-2 2,-3 2,-2 2,-2 3,1 1,-4 2,-2 3,-1 -2,-4 5,2 2,-1 2,-3 3,4 2,-3 -1,-4 -4,-1 -1,-4 2,-3 -4,-2 2,-1 3,-1 3,-3 -2,-4 1,-1 3,2 3,1 v 2 h 3 l 2,2 2,1 2,3 3,2 1,2 -1,5 3,-2 3,3 v 2 l 2,4 1,3 v 3 l -5,-1 -2,-6 -3,2 h -3 l 1,3 -2,1 -3,2 v 4 l -3,2 4,2 -4,2 -4,-2 -3,-1 -3,2 -2,4 -2,-4 v -4 l 2,-1 2,-3 4,2 3,-1 2,-2 2,-4 2,-3 3,-2 -1,-3 v -5 l 1,-4 -4,-2 h -5 l -3,2 -1,3 4,2 2,-2 3,3 -1,3 -3,1 v 4 l -2,3 -3,2 -3,-1 -4,1 -3,2 -2,2 v 3 l 1,4 v 4 l 4,2 -2,3 -4,-2 -3,2 v 3 h 3 l 2,1 3,1 3,-2 2,-2 2,-3 1,-3 3,-1 2,4 3,-2 4,-1 3,-2 v -4 -4 l 2,-1 v -2 l 2,4 1,3 -1,2 1,4 -2,2 -2,2 h -4 l -2,3 -2,1 -5,-2 -1,3 -2,2 -4,1 -3,3 h -4 l -5,-1 v 5 l 6,2 h 5 l 4,-2 3,-3 3,-1 2,-3 2,1 3,1 2,-3 1,-3 4,-1 4,-2 3,-1 -1,-2 -1,-2 -1,-2 -1,-3 2,-4 5,-1 v 3 l -1,5 3,-2 2,1 2,3 v 2 l 3,3 1,3 -2,4 4,-1 1,3 2,3 -2,3 h 3 l 2,4 v 3 l 2,3 1,4 -3,2 h -4 -3 l -4,-1 -5,-1 -4,-1 3,-4 h 4 6 4 l -2,-3 -3,-1 -2,-1 -2,1 -3,-2 -2,-1 1,-3 5,-2 -5,-1 -1,-3 -1,-3 2,-1 1,-4 -5,2 v 4 l -2,3 -2,-4 -3,2 -2,2 -1,2 h -3 l -3,2 -1,5 6,1 3,-2 2,-4 h 2 l 2,1 3,1 -1,2 -3,2 -1,4 -1,4 -4,-1 -3,-1 h -3 l -4,-1 -2,-7 -3,3 -1,3 h -3 l -4,-1 -5,-1 h -3 l -4,-1 h -4 v -6 l -5,1 -1,4 h -4 l -4,-1 h -3 -4 -4 l -3,1 -4,1 -5,-2 -1,4 -4,1 -3,2 -3,3 -4,2 -3,2 -5,2 -3,1 -3,2 -3,2 -3,3 -4,2 -3,2 -4,2 -4,2 -3,2 -5,-2 v 5 l -4,1 -5,2 -3,1 -4,2 -5,1 -4,1 -4,1 h -4 l -4,1 h -4 l -4,1 h -4 z"
         id="path24649"
         inkscape:connector-curvature="0" />
    </g>
  </g>
</svg>
