<?xml version="1.0" encoding="UTF-8" standalone="no"?>
<!-- Created with the Eggbot TSP art toolkit (http://egg-bot.com) -->

<svg xmlns="http://www.w3.org/2000/svg"
     xmlns:inkscape="http://www.inkscape.org/namespaces/inkscape"
     xmlns:sodipodi="http://sodipodi.sourceforge.net/DTD/sodipodi-0.dtd"
     xmlns:rdf="http://www.w3.org/1999/02/22-rdf-syntax-ns#"
     xmlns:dc="http://purl.org/dc/elements/1.1/"
     xmlns:cc="http://creativecommons.org/ns#"
     height="800"
     width="3200">
  <sodipodi:namedview
            showgrid="false"
            showborder="true"
            inkscape:showpageshadow="false"/>
  <metadata>
    <rdf:RDF>
      <cc:Work rdf:about="">
        <dc:format>image/svg+xml</dc:format>
        <dc:type rdf:resource="http://purl.org/dc/dcmitype/StillImage" />
        <dc:subject>
          <rdf:Bag>
            <rdf:li>Egg-Bot</rdf:li>
            <rdf:li>Eggbot</rdf:li>
            <rdf:li>TSP</rdf:li>
            <rdf:li>TSP art</rdf:li>
          </rdf:Bag>
        </dc:subject>
        <dc:description>TSP art created with the Eggbot TSP art toolkit (http://egg-bot.com)</dc:description>
      </cc:Work>
    </rdf:RDF>
  </metadata>
  <g      transform="translate(1289, 700) scale(1, -1)">
    <path style="fill:none;stroke:#000000;stroke-width:1"
          d="m 124,592 0,-4 4,-4 -3,-1 2,-4 4,-1 4,-2 2,-4 7,2 2,-6 -6,-2 -4,-1 -8,8 1,-4 0,-3 1,-4 0,-5 5,-1 6,2 2,-5 3,-6 5,1 -2,8 -1,7 7,0 1,-7 4,-3 4,-3 4,-3 1,-6 6,3 -1,-7 1,-5 -6,-1 -4,2 -5,0 1,7 -5,4 -2,-8 -5,2 -3,1 -5,-1 -4,-1 2,7 -3,4 -6,1 0,-6 2,-5 -3,-6 1,-5 0,-6 -1,-5 0,-6 1,-5 -1,-5 4,1 4,1 2,-5 4,4 -1,3 -1,4 -2,2 -4,2 1,7 4,0 1,-4 3,-2 2,-3 1,-4 1,-4 3,-3 2,-3 3,-2 2,-3 -1,-4 -4,-2 0,4 -4,1 -1,3 -2,3 -3,1 -1,-4 2,-2 1,-3 3,-2 0,-3 3,-3 4,2 2,-4 2,-5 5,-4 4,-2 3,0 1,-2 3,1 -1,-3 1,-1 -1,-3 3,0 -1,-3 -3,-1 2,-2 1,-3 4,-1 1,5 3,-3 4,1 5,0 4,-4 2,-4 3,-3 4,0 4,1 3,-2 1,-4 -3,-3 -2,3 -2,1 -4,-2 -4,0 -3,3 -3,4 -2,3 -4,0 -5,-1 1,-5 4,-1 4,-1 0,-4 0,-3 -1,-4 3,-4 5,-4 0,-4 0,-5 -4,0 -3,2 2,5 -4,0 -2,4 -4,0 -3,1 -3,0 1,3 -2,2 -1,2 0,3 -1,2 -2,2 1,3 3,-2 2,-2 0,-3 1,-3 2,3 2,-2 1,-4 2,5 1,3 -3,1 -2,1 -2,2 -1,3 -2,-1 -1,2 1,3 -2,1 -1,2 -1,3 -3,1 -2,2 -3,0 -4,1 -1,4 4,2 2,-3 5,0 -1,3 -2,2 -4,1 -6,2 -6,0 -2,5 -2,3 4,3 -3,1 -2,2 -2,2 -1,3 -4,0 -4,4 -3,3 -3,3 1,-7 2,-4 1,-3 2,-4 3,-3 2,-3 1,-4 1,-3 3,-1 0,-4 3,0 3,-2 -5,-3 1,-3 1,-2 1,-3 1,-4 3,2 0,7 5,-2 1,-6 5,1 -1,4 5,0 2,-2 2,-3 -3,-2 -4,-1 2,-4 2,-5 -4,-1 -3,3 -3,4 -4,2 -3,0 2,-5 3,-3 2,-3 2,-2 4,-1 5,2 3,-3 -1,-4 1,-3 4,0 3,-1 3,-1 2,-3 0,-3 1,-3 2,-1 1,-3 4,2 4,0 2,-2 2,-1 1,-3 2,-1 2,-4 -3,0 -3,-1 -2,2 -1,3 -4,2 0,-4 1,-3 0,-4 2,1 3,-1 1,-2 2,1 3,2 3,-1 2,-1 1,4 -2,2 1,4 -2,1 -2,3 -1,3 -2,3 -1,4 1,5 4,-3 2,-3 1,-4 1,-4 3,-1 0,-3 0,-3 1,-3 1,-2 2,-1 -1,-3 -4,1 -1,-3 1,-2 3,1 1,-2 0,-3 0,-3 2,-2 3,-1 3,1 -2,2 -1,2 -1,1 -1,2 0,3 0,3 3,-1 0,-3 3,1 2,-2 -3,-1 1,-2 3,0 -1,-3 0,-3 3,1 0,-4 -1,-4 -4,0 1,4 -3,0 -3,-1 -2,2 -3,1 -3,1 0,3 1,4 -3,-1 -1,2 -1,2 -1,2 -3,1 -3,-1 1,-2 1,-2 2,1 0,-4 2,-3 2,-1 -1,-3 3,-1 1,-2 3,0 1,-2 4,-1 4,-3 3,-2 5,0 1,-3 -1,-4 -3,1 -2,2 -3,-1 -3,2 -2,3 -2,1 -4,1 -2,2 -3,-1 0,3 -1,2 -2,4 -2,1 -1,2 -2,2 -1,3 -1,2 -1,2 -2,2 -1,-3 0,-3 1,-2 1,-2 2,-2 1,-2 0,-3 2,1 2,-2 -4,-2 3,-1 2,-1 0,-3 1,-3 4,0 3,-2 3,-2 4,-2 4,-1 3,-1 3,-2 -3,-2 -2,1 -3,1 -3,0 -3,1 -1,-4 4,-1 3,0 1,-3 3,1 1,-2 4,-2 0,3 -1,3 4,-1 2,-3"/>
    <path style="fill:none;stroke:#000000;stroke-width:1"
          d="m 237,338 -1,-3 2,-2 1,-3 -4,-2 -2,1 -1,3 -3,-3 -2,2 1,3 -3,1 -3,0 1,-4 -3,0 -4,0 -3,0 -4,1 0,-4 4,-1 3,1 3,-1 3,0 0,-3 2,-2 2,4 3,-1 -1,-4 0,-4 2,-2 -1,-4 4,2 -1,-4 2,-2 2,-3 1,-2 -1,-4 4,0 1,-2 2,-2 0,-3 3,1 -1,-3 3,-1 4,1 -2,2 -1,3 -2,2 -1,2 -1,2 -3,1 0,3 0,3 -3,1 -1,4 -1,4 -2,3 -3,4 4,2 3,1 2,-3 2,-1 -1,-4 1,-4 0,-3 2,-1 1,-2 0,-3 2,-1 1,-3 1,-2 2,-1 1,-3 1,-3 1,-2 0,-3 3,0 1,-2 1,-2 1,-2 1,-3 -3,0 -2,2 -1,2 -3,-1 0,3 -2,1 -3,0 -3,1 -3,0 -2,1 -1,3 -2,1 -1,3 -3,1 -4,-1 3,-4 2,-3 2,-2 -3,-2 2,-2 1,-2 2,-2 3,-1 2,-2 1,-2 3,0 1,-3 2,1 3,0 1,-2 3,0 3,-1 2,-1 -1,-3 1,-1 0,-3 2,1 2,-2 1,-2 0,-3 2,1 1,-2 2,-2 1,-2 1,-2 0,-3 2,-2 2,-1 2,-2 2,-4 -3,0 -1,1 -1,2 -3,1 -2,1 -1,2 0,3 -1,2 -1,3 -3,1 0,-3 1,-2 1,-3 -3,0 -3,0 0,-3 -3,0 0,3 -2,1 -3,0 2,-3 0,-3 1,-2 2,1 3,0 3,1 0,2 3,-1 -1,-3 1,-1 -1,-3 1,-1 2,-2 3,1 -1,2 -1,2 0,3 3,-1 1,-3 3,-1 1,-3 -3,0 -2,-1 1,-2 3,0 1,-1 3,0 -1,-3 -3,0 -3,1 -3,0 -1,2 -2,1 -2,1 -3,0 -3,1 0,3 3,-1 0,3 -2,1 -3,0 -1,-3 0,-3 -2,1 -2,1 1,3 -3,-1 0,3 1,3 -1,2 -3,1 2,3 -1,2 -1,3 3,0 3,-1 2,-1 3,-1 3,0 0,3 -3,0 -2,1 -3,1 -3,1 -3,0 -3,1 -3,0 0,3 -2,2 0,3 -3,0 -1,3 -3,1 -3,1 -6,1 -5,1 -2,2 -2,3 0,5 0,4 0,4 1,4 3,1 2,-3 -1,-4 2,-3 -4,-2 2,-3 4,-1 6,-1 1,-3 3,-1 2,-2 3,-1 1,-3 3,-1 3,0 -2,-3 2,-2 2,-2 3,0 -1,3 3,0 1,-3 1,-2 2,-1 3,0 2,-1 1,3 -1,2 -3,-1 -1,2 -1,2 -1,2 1,3 -3,1 -2,-4 -3,0 1,3 -1,2 -3,-1 -3,1 0,3 -4,1 -1,2 -2,2 -2,-1 -1,3 -2,2 -3,3 -2,4 -2,2 1,4 -2,2 -3,2 -4,-2 0,5 -4,-1 -1,4 -5,1 -4,2 -2,2 -5,-1 1,-5 -2,1 -3,1 -3,-1 2,5 -1,2 -3,1 -1,3 -4,-1 -2,2 4,2 2,1 4,3 0,-4 2,-3 3,-3 4,2 -2,3 -1,4 -2,4 -3,3 -4,1 -3,-1 -2,2 -1,3 4,0 5,0 1,4 -2,1 -3,0 -1,4 -1,3 -2,3 -3,1 2,3 -1,2 -1,2 3,1 -3,2 -2,2 -1,-4 -2,1 -2,2 0,3 -4,-1 0,3 -3,2 0,3 -2,2 -3,0 -3,3 0,5 -3,3 0,3 -3,2 4,2 2,-1 1,-3 1,-3 2,-3 2,-1 -1,-3 3,1 3,0 0,-4 2,-3 3,0 0,-3 3,-1 1,-2 3,2 1,-2 1,-1 1,-2 2,-2 0,-4 -1,-3 2,-2 2,1 1,-4 0,-3 2,-2 2,4 1,-3 1,-3 -1,-4 1,-3 0,-3 4,-1 1,-4 2,-4 1,-4 1,-4 4,-2 4,-2 1,5 -2,3 -2,1 -2,3 5,1 3,-1 2,-2 0,-4 4,2 -1,-4 2,-2 -5,-2 2,-2 2,-2"/>
    <path style="fill:none;stroke:#000000;stroke-width:1"
          d="m 221,302 1,-3 3,0 2,-2 4,1 0,3 -1,2 -1,3 -3,-3 -2,2 2,4 -1,3 0,3 -1,3 -3,0 -2,2 -1,3 -3,1 -3,-1 -4,0 -3,0 0,4 -1,3 -3,2 -2,2 0,3 -1,3 0,4 -3,2 -2,1 0,3 -2,2 -2,2 0,3 0,3 -2,1 -2,2 2,3 -1,2 0,3 -3,1 -3,0 1,-3 2,-1 0,-3 -3,1 -3,0 0,3 -1,2 -3,0 -1,3 -1,4 -3,0 0,3 -3,0 -3,1 -1,3 -1,3 0,4 -3,-1 1,3 -1,2 -2,-1 -1,2 -2,2 2,1 -2,2 -2,1 -1,2 3,1 -1,3 0,3 3,-1 1,-2 1,-1 -1,-3 1,-1 1,-2 1,-2 2,-1 1,-2 1,-1 1,-2 0,-3 2,-2 2,1 1,-2 -2,-3 4,0 1,3 2,-2 0,-3 3,0 0,3 3,-1 1,-2 1,-3 -3,0 -3,-1 1,-3 1,-2 3,3 1,-2 3,1 2,-2 3,0 0,-3 1,-2 3,-2 -3,-3 3,-1 0,-3 0,-3 2,-2 3,0 -1,-3 1,-2 2,-2 3,-1 -1,-4 1,-3 2,-3 1,-3 4,2 3,-1 4,0 3,3 -4,1 -3,1 -4,1 -2,3 6,1 0,3 -3,1 -2,2 -4,0 -1,3 -1,1 0,3 -1,2 -3,-1 -1,3 0,3 0,3 -1,2 -2,1 -1,2 -1,2 -1,2 -3,0 -1,2 -3,0 1,3 -2,1 1,3 -1,1 -3,1 -1,1 1,3 0,3 -1,2 -3,0 0,2 -1,3 -2,2 -3,0 -1,1 -1,3 3,0 3,-1 3,-1 1,-2 1,-2 1,-2 2,-2 1,-3 3,-1 -2,-1 -1,-3 3,0 1,-2 2,-2 -2,-1 2,-2 1,-2 3,0 1,3 -2,1 0,3 -1,2 -1,2 -1,2 1,3 -4,0 0,3 -2,1 -1,2 -1,2 -1,2 0,3 -3,0 -2,2 -3,-1 -3,1 -1,2 0,4 -1,3 -3,-2 1,-4 0,-4 -1,-3 1,-3 -3,0 1,-2 2,-1 3,-1 3,0 1,-2 -3,-1 2,-2 1,-2 3,0 1,-2 -1,-3 -2,1 -2,1 -2,1 -1,2 -3,-1 1,3 -1,1 0,2 -3,1 -3,2 0,3 -1,2 0,3 3,-2 1,3 -1,2 -3,1 -2,1 -4,2 -4,1 -5,0 -6,0 -4,0 -4,0 -4,0 -4,0 -3,-1 -4,0 -3,0 -4,-2 -4,-3 -4,-4 -4,-8 7,2 2,-5 4,-1 -2,-4 2,-3 -4,-2 -2,3 -2,2 -4,-1 -4,3 -2,-6 -2,-5 -1,-5 6,0 2,-5 1,-3 0,-6 2,-2 4,-1 2,-3 4,0 5,1 0,5 -5,1 -2,4 -4,-1 0,5 0,4 -3,2 -1,5 5,-1 3,-1 0,-5 2,-3 3,-2 4,-1 4,-1 1,-4 3,-4 1,-4 4,-3 -1,-5 2,-3 1,-3 4,-1 0,-3 -4,-1 -3,2 -2,2 -1,3 -2,-1 1,5 -1,3 -2,3 -2,4 -2,-5 -1,-4 3,-1 1,-3 -1,-4 0,-4 3,1 2,-3 2,-1 2,-2 4,0 2,-3 1,-3 4,-1 1,4 4,-1 1,-4 -3,-1 0,-4 3,0 3,3 3,-3 4,3 -1,4 -3,1 -2,2 1,4 4,0 2,-2 3,1 3,-2 1,-4 -5,0 1,-4 -1,-4 1,-3 1,-3 -2,-4 2,-3 4,1 4,4 -4,1 1,5 -1,4 0,3 4,-1 1,5 -2,3 0,4 -3,2 -5,0 -4,2 -4,0 -5,0 1,-4 -3,-1 -4,0 -3,2 4,2 -1,4 6,2 -1,5 -5,-1 -5,-2 0,5 0,5 -4,4 -1,5 -3,2 -2,4 -5,3 -3,2 -4,0 -1,4 0,5 3,-1 2,-3 4,0 3,-2 2,-3 5,-1 2,-3 4,2 -1,3 4,1 -1,3 -3,0 -2,2 -3,-1 -3,2"/>
    <path style="fill:none;stroke:#000000;stroke-width:1"
          d="m 128,385 -2,2 -4,-1 0,3 -3,1 -3,0 -3,1 -1,3 2,4 3,-3 1,4 -1,3 -4,2 0,-3 -4,-1 0,3 1,5 6,1 2,-1 2,-2 1,-3 2,-2 2,-1 0,4 4,-1 -1,3 -3,1 -1,2 -2,2 5,2 2,-2 1,-2 2,-2 2,-2 -1,-4 4,0 1,3 2,-2 0,-3 3,-1 0,3 0,3 -1,3 -2,1 -3,0 -1,2 -3,0 -1,3 3,0 3,0 2,1 0,-3 3,-1 0,3 3,0 1,-2 1,-1 0,-3 -3,0 1,-3 1,-3 2,-1 -1,-4 3,-1 2,-3 0,-3 -3,0 -2,2 -2,2 -2,3 -3,-3 -2,2 -3,2 -3,0 -4,1 -4,-1 -4,0 0,-3 3,-1 4,1 1,-3 4,-2 1,4 3,-3 1,-4 2,3 3,1 0,-3 0,-3 2,-4 2,-4 4,-3 1,-5 3,-2 4,-4 4,-3 1,-4 3,1 1,-3 2,-1 -2,-4 -3,0 -1,2 -5,1 -2,5 -4,2 -2,2 -4,2 -2,5 -3,2 -2,4 -4,-5 1,-5 4,-3 0,-5 5,1 4,-3 3,-2 -2,-5 4,0 5,-1 3,-3 4,2 1,-3 3,1 0,4 2,4 3,0 0,-3 -1,-3 1,-2 3,0 1,-2 0,-3 2,-3 -4,-2 -2,3 -2,3 -4,0 1,-3 2,-2 1,-3 -1,-4 4,2 1,-3 2,-2 3,-2 2,-1 -3,-3 -4,1 -3,2 -4,1 0,-4 2,-4 3,-2 2,-2 2,-2 3,1 2,-3 0,-4 -4,2 -3,1 -3,3 -3,2 -1,-3 -3,1 0,-3 3,-1 3,0 1,-2 2,-1 3,-1 2,-2 0,-3 1,-3 3,-3 2,-3 3,1 2,-2 2,-4 3,-3 4,0 4,1 0,5 -2,3 -3,-3 -3,3 -3,4 -4,1 -4,2 -1,3 5,0 4,-1 4,2 3,1 4,-3 -6,-2 3,-3 5,0 4,0 0,-5 -1,-5 0,-5 1,-4 2,-5 1,-3 4,-1 3,-3 5,-1 6,2 2,-2 2,-2 -1,-3 -3,1 -1,-4 2,-3 3,0 -1,3 3,3 1,-3 0,-3 2,-2 2,4 2,-1 0,-3 0,-3 -3,-1 -3,0 0,-3 3,-1 2,-1 4,0 -1,-4 -4,-2 -3,0 1,-3 0,-3 0,-3 2,-2 2,-1 1,-2 3,-1 0,3 -1,2 -1,2 -3,0 1,3 -1,2 4,0 1,-2 3,1 -1,-3 1,-2 0,-3 0,-3 3,0 3,0 1,-2 1,-2 1,-2 1,-2 0,-3 4,0 2,-2 0,-3 1,-1 2,-2 1,-4 -2,1 -2,1 -3,0 -3,1 0,-3 -3,-1 -1,3 -2,1 -1,2 4,1 3,0 3,-1 0,3 -3,1 -3,1 -1,2 0,2 -1,2 -1,2 -1,2 -3,0 1,-3 1,-3 0,-2 0,-2 2,-2 -3,-1 -2,2 -1,2 1,3 -1,3 -1,3 -2,-2 -1,3 -3,1 0,-3 1,-2 2,-2 2,-1 -1,-3 0,-3 2,-2 2,-2 1,-2 0,-3 1,-3 2,3 1,-3 1,-2 4,2 0,-3 -1,-3 1,-2 3,-2 3,-1 1,-2 1,-2 2,-2 2,1 -1,3 2,1 -1,2 -3,0 -3,2 -2,1 -1,2 0,2 2,3 -1,1 0,2 4,-1 3,-1 3,0 1,-1 3,0 1,4 -3,0 -1,1 -1,2 -1,3 -2,2 0,3 0,3 -2,-1 -2,2 -3,0 0,3 3,0 1,3 2,-1 0,-3 2,1 2,-2 1,-2 -1,-3 1,-2 1,-2 1,-2 2,-1 3,-1 2,-1 0,4 -2,1 -2,2 -1,2 -1,2 0,3 3,-1 2,-1 0,-3 3,0 1,-3 0,-3 1,-2 2,-2 0,-3 3,-1 0,-3 0,-3 -3,0 0,3 -1,1 -3,0 0,3 -1,1 -3,0 -1,-3 1,-2 1,-2 3,-1 1,-2 0,-3 0,-3 2,-2"/>
    <path style="fill:none;stroke:#000000;stroke-width:1"
          d="m 291,173 -1,-3 -1,-3 1,-2 -4,2 -1,2 2,3 -3,0 1,3 1,3 -1,3 -4,1 -1,2 -3,0 -3,0 -1,2 -3,1 -1,-3 2,-2 3,-1 3,0 1,-2 1,-2 3,1 -1,-3 0,-3 -4,2 0,-3 1,-1 3,-1 1,-3 -3,0 -3,0 -2,2 -3,0 -3,1 -2,2 -1,3 -4,2 1,-2 0,-3 1,-3 1,-2 1,-3 2,-1 0,-3 2,-4 2,-2 2,1 0,3 0,3 -3,-1 0,3 -2,4 3,-1 2,-1 3,-1 1,-2 1,-2 2,-1 3,-1 0,3 -3,2 4,2 3,-1 0,-3 1,-3 -3,-2 3,-2 2,-3 3,0 4,-1 3,0 1,-3 3,3 -1,3 -2,1 -3,0 -3,1 -3,1 -1,2 0,3 0,3 3,0 1,-2 1,-1 0,-3 3,0 3,0 3,-1 0,3 -1,2 -3,0 0,3 -3,1 -1,2 -3,0 -1,2 1,3 3,-1 2,-1 3,-1 1,-2 3,1 -1,-3 2,-1 3,-1 -1,-3 1,-2 1,-2 -4,-2 3,-1 2,-3 -2,-1 -3,1 -1,-3 0,-3 3,0 0,-4 2,-2 3,-1 3,-1 1,-3 1,-3 3,0 0,-3 1,-1 3,-1 2,-1 -1,-3 0,-3 -3,1 -3,0 2,3 -3,0 -1,3 -3,0 0,3 -2,1 0,3 -1,2 -4,0 -2,2 -2,4 -2,-1 -2,2 0,2 -3,1 -2,1 -4,1 1,-4 3,-1 1,-1 2,-2 1,-3 3,0 1,-3 1,-3 4,0 0,-3 2,-2 1,-3 3,0 1,-1 1,-3 1,-2 -1,-3 -2,-1 -2,2 0,4 -3,-3 -1,3 -2,3 -2,2 -1,4 -2,-1 -2,2 0,3 -2,1 -2,3 -3,0 -2,1 0,3 -2,1 0,4 -1,3 -1,3 -2,2 -3,0 -1,2 -2,2 -3,1 0,-3 1,-2 1,-3 3,0 0,-3 3,1 0,-3 1,-1 0,-3 1,-3 1,-2 -4,-2 -1,3 -3,-2 1,-3 0,-3 3,1 0,-3 1,-3 4,0 1,-3 -3,0 1,-4 1,-3 0,-3 2,-2 2,1 0,4 -1,3 3,3 -1,3 -1,3 -4,1 -1,3 0,3 3,-1 3,0 0,-3 3,-1 1,-3 2,-2 2,-1 1,-2 3,-2 1,-4 2,-2 3,-1 2,-2 3,0 0,-3 0,-3 1,-2 0,-3 1,-2 -4,-1 1,-2 1,-1 4,1 3,-2 4,-1 0,3 1,3 -3,1 -3,0 0,3 -2,1 0,3 0,3 -1,2 0,3 4,-1 -1,3 -1,3 3,0 3,-1 -1,-3 1,-1 0,-3 0,-3 -4,1 1,-3 3,-1 1,-2 1,-1 3,0 1,4 -2,2 0,3 0,3 0,4 3,-1 2,-2 -1,-4 1,-3 0,-3 0,-3 3,0 0,-3 2,-2 -6,1 -3,0 -1,-4 3,0 3,0 2,-2 1,-3 0,-4 -4,2 -2,2 -3,1 -3,-1 1,-3 2,-2 1,-3 4,1 4,-1 3,1 0,-3 3,1 -1,-3 1,-1 -1,-3 3,0 3,0 0,4 -1,2 0,3 -1,2 -3,0 -2,2 -1,3 3,1 0,3 -3,1 3,3 -1,3 -1,1 -1,3 -3,2 0,4 -1,3 0,4 0,3 -3,0 -2,1 -3,1 0,4 3,-1 3,-1 3,-1 1,3 0,3 3,-1 1,-2 3,-1 2,-1 -1,-3 3,0 2,-1 3,-1 1,-2 3,0 1,3 -2,1 -3,1 -1,2 -3,0 1,3 -3,0 -3,1 -1,2 -1,2 -3,0 -2,1 1,3 3,-1 0,3 -2,1 1,3 -1,1 -1,2 0,3 -2,-1 -1,2 -3,0 0,-3 2,-2 0,-3 2,-1 0,-3 -3,1 -2,3 -1,2 -1,3 -2,-1 -3,1 -3,1 -1,-3 2,-2 3,0 2,-2 2,-2 1,-2 1,-3 2,1 1,-3 -1,-4 -2,2 -3,1 -1,3"/>
    <path style="fill:none;stroke:#000000;stroke-width:1"
          d="m 331,129 -4,-1 -1,2 4,2 -2,2 -3,0 -3,0 -1,3 -1,3 -3,1 -3,0 -2,2 0,3 4,-1 4,0 2,-1 3,3 3,-1 0,3 3,-1 0,-3 2,1 3,2 -1,2 0,2 0,3 0,2 -1,2 0,3 -2,1 -1,2 -3,0 0,3 -1,3 -4,-1 1,-3 1,-2 -1,-3 2,-2 2,2 1,-3 2,1 0,-3 0,-3 1,-2 -4,0 0,3 -2,2 -3,1 -4,0 1,-2 0,-3 3,1 2,-3 -3,0 0,-3 -3,1 -3,0 0,3 1,3 -3,0 1,3 -1,2 -1,2 1,3 -3,1 -2,1 0,3 -2,1 -2,1 -3,0 -2,2 -3,0 -3,1 -2,2 0,3 3,0 1,-2 3,-1 1,3 -1,1 -1,2 0,3 0,3 1,3 -3,0 -1,1 0,3 -2,1 0,3 0,2 -2,1 1,3 -3,0 -1,2 -2,2 -3,0 -1,2 -3,-1 -1,3 -2,-1 -1,2 -3,1 -3,0 -3,0 1,-3 -3,0 -1,2 -1,2 2,2 -3,1 -2,1 0,-3 -3,0 0,3 -1,3 3,0 3,0 3,-1 1,-1 3,0 0,-3 3,0 3,0 2,-1 3,0 2,-2 1,3 2,-1 0,-3 2,1 0,-3 3,0 1,-2 2,-2 1,3 -1,3 3,0 0,3 -3,0 -2,-1 -2,2 -1,2 0,3 -2,-1 0,3 -2,1 -1,2 -1,2 3,1 2,-2 2,-1 1,-1 1,-2 0,-3 1,-2 2,1 3,-1 2,-1 0,-3 1,-1 3,-1 1,-2 1,-2 2,-1 1,-4 -1,1 -3,0 -3,0 -1,2 0,3 -3,0 -1,-3 1,-2 0,-3 1,-2 -1,-3 3,1 0,-3 1,-2 3,0 -1,-3 0,-3 1,-1 -1,-3 1,-3 1,-2 1,-2 -3,-1 2,-2 3,0 2,-1 1,3 -1,2 -1,2 -1,2 -2,2 3,1 -1,2 -1,3 0,3 0,3 -3,1 -1,2 -2,4 2,-1 3,0 1,-2 2,-1 1,-2 1,-2 -1,-3 1,-2 1,-2 0,-3 0,-3 2,-2 1,-1 2,-2 -3,-2 -1,-3 0,-2 1,-2 3,0 1,-2 1,-2 0,-3 3,-1 0,3 0,3 -1,3 -1,2 -2,1 -1,2 3,1 3,-2 3,-1 2,1 3,0 0,-3 1,-3 2,2 3,-1 -2,-2 2,-1 1,-2 0,-3 1,-3 0,-3 1,-2 0,-2 1,-2 1,-1 3,-1 2,1 -2,2 -2,2 1,3 2,-1 2,-1 1,-2 1,-3 2,-2 3,0 -1,-3 0,-2 1,-2 2,1 3,0 3,-1 1,-3 2,-2 -4,-1 -1,2 -1,2 -3,0 0,-3 1,-2 2,-2 -2,-1 -3,1 -1,1 0,3 -1,2 -2,1 0,3 0,3 -2,1 -2,1 -1,-3 2,-2 0,-3 1,-3 2,-2 -2,-1 2,-2 1,-2 1,-1 3,0 3,0 -1,-3 2,-1 1,-2 3,0 2,-1 0,-3 -1,-3 3,1 1,-2 0,-3 -3,1 -3,0 -3,0 1,-3 0,-3 -3,0 0,3 -1,2 -1,2 -1,2 -3,1 0,-3 1,-3 2,-2 0,-3 -3,1 -2,2 -1,2 0,3 -1,2 -1,2 0,3 -3,1 0,-3 -1,-3 1,-3 1,-2 0,-3 2,-2 2,-2 2,-2 2,1 4,1 3,0 0,-2 1,-2 0,-3 3,0 3,0 0,3 -3,0 -1,3 3,0 -1,3 -1,2 0,2 3,-1 1,-3 1,-3 1,-3 1,-1 -1,-3 1,-1 1,-3 2,3 1,-3 3,-1 3,0 3,1 0,2 -1,3 -3,0 1,-3 -3,0 -1,2 0,2 -3,0 0,3 -2,2 -1,3 -1,3 3,0 1,-3 2,1 0,-3 1,-3 3,0 0,3 -1,2 3,-1 1,-2 0,-3 3,-1 1,-2 1,-2 -1,-3 2,-1 0,-3 3,1 -1,-3 1,-1 1,-2"/>
    <path style="fill:none;stroke:#000000;stroke-width:1"
          d="m 392,80 2,-2 -2,-1 1,-3 3,-1 0,3 3,-1 3,0 1,-1 -1,-3 -3,1 1,-3 -3,1 1,-3 2,-1 3,0 1,3 2,-1 0,3 0,2 4,1 -1,2 -3,0 -1,2 4,1 -1,2 -1,3 -2,-3 -1,2 -1,2 0,3 -1,2 -3,0 -3,0 1,-3 1,-2 2,1 0,-3 1,-2 1,-3 -3,0 -2,1 -1,2 -1,2 -1,2 0,3 -2,1 -1,2 0,3 -1,1 -1,2 -1,2 -3,0 0,3 3,0 -1,3 -3,0 -3,1 -3,0 -2,1 -2,2 -3,0 0,3 -1,3 -1,2 -1,2 3,1 -1,2 -1,2 -3,1 0,-3 -3,1 0,3 -2,-1 0,3 2,3 2,-1 1,-2 3,-1 3,0 1,-1 1,-2 1,-2 1,-2 0,-3 -3,1 0,-3 1,-2 2,-1 1,-2 3,0 3,-1 3,-1 3,0 1,-2 1,-2 0,-3 2,1 0,-3 1,-3 0,-3 3,2 1,-2 3,0 3,1 1,-2 1,-2 0,-3 3,1 1,-2 1,-2 1,-2 0,-3 1,-2 1,-1 1,-2 3,0 1,-2 3,0 2,-1 1,3 -2,1 -2,1 -3,1 -1,2 0,3 -2,-1 0,3 -1,2 -1,2 -1,2 -2,1 -1,2 -1,2 -1,2 -3,0 1,3 1,3 -3,1 -3,1 0,-3 2,-2 -1,-3 -3,1 -1,1 -1,2 0,3 0,2 -2,1 -1,2 1,3 3,-2 3,-1 0,3 -2,2 -2,1 -2,1 -1,2 1,3 -3,0 0,3 -1,2 -3,1 -2,2 0,3 -2,2 -1,2 -3,2 0,-3 -3,1 -2,2 1,3 2,-1 0,4 -3,0 -2,-2 -2,-1 1,-3 0,-3 2,-1 2,-1 2,-1 3,0 2,-2 -2,-1 2,-3 1,-2 3,0 2,-2 0,-3 1,-2 0,-2 2,-1 0,-3 -3,1 -2,-1 -1,3 -2,-1 -3,0 -2,2 1,3 2,-2 4,1 0,3 -2,-1 -2,2 -2,2 -1,2 -1,2 -1,2 -3,1 -3,0 -1,1 -1,2 0,3 -2,1 0,2 -1,2 -3,1 -2,1 -3,0 0,2 -1,3 -2,2 -2,-1 -1,2 -1,3 3,0 1,3 2,-1 2,-2 -2,-1 2,-2 1,-3 2,-2 3,0 1,-2 3,-1 0,3 3,-1 0,3 -2,2 1,3 -2,2 -3,0 1,-3 0,-3 -3,0 0,3 -2,-1 0,3 -1,3 3,0 3,1 -2,2 -1,2 -1,2 -3,1 -1,2 -1,2 -1,2 -2,2 -1,2 -3,1 -2,-1 2,-2 1,-2 1,-2 1,-1 1,-2 1,-2 3,-2 2,-2 -2,-1 -3,1 -1,1 -2,1 -1,3 -3,0 0,3 -1,2 -1,1 -1,2 0,3 -3,0 0,3 3,0 3,-1 0,3 -3,1 -3,0 -3,0 0,-2 -3,-1 1,-2 2,-1 1,-2 2,-1 0,-3 1,-2 2,-2 -2,-1 2,-2 1,-2 3,1 1,-3 1,-2 -4,-1 0,3 -3,-1 -3,-1 1,3 -1,1 -1,2 0,3 -1,2 0,3 -3,1 0,2 -3,-1 0,3 -1,2 -2,-1 0,3 -1,2 -1,1 1,3 -1,1 -3,1 -2,1 -1,2 -1,3 -1,1 -1,2 -3,1 0,-3 1,-2 2,-2 0,-3 2,-2 1,-3 2,2 1,-2 0,-3 2,-2 -2,-1 -3,1 -1,2 -2,1 -1,2 -1,2 -3,0 1,3 0,2 -2,2 0,3 0,3 0,3 -1,2 -3,0 2,3 -1,2 0,3 1,3 -3,-1 -2,2 2,1 -2,2 -4,0 0,3 -1,2 0,3 1,3 2,-1 3,1 -1,2 -1,2 -3,-1 1,3 -1,2 -2,2 -3,1 2,2 -1,3 -1,2 -3,1 -2,1 1,3 -2,1 -1,3 -2,1 -2,1 -1,3 0,3 3,-1 0,-3 3,0 2,-4 1,3 2,-1 0,-3 0,-3"/>
    <path style="fill:none;stroke:#000000;stroke-width:1"
          d="m 296,252 1,-2 3,-1 1,-2 1,-2 0,-3 1,-2 2,-2 1,-2 3,-1 0,-3 1,-3 1,-1 3,-1 2,1 -2,2 -2,2 0,3 1,3 -3,0 -1,1 -1,2 -2,2 -1,2 0,3 1,3 -3,0 -3,1 -1,3 1,3 -1,2 -2,2 -3,0 -2,1 -1,2 -3,1 -2,1 -1,2 0,3 -1,3 -1,2 -2,1 -3,0 -2,1 0,-3 3,-1 1,-2 2,-1 0,-3 -3,1 -2,1 -1,2 -3,0 -3,0 -3,-1 1,-2 0,-3 3,0 0,3 3,0 0,-3 0,-3 0,-3 0,-2 1,-1 3,-1 2,1 -2,2 1,3 -2,1 0,3 2,-1 3,0 0,-3 0,-2 1,-3 0,-3 -3,0 0,-3 1,-2 0,-3 1,-1 3,-1 2,1 -2,2 0,3 -1,2 3,1 1,-3 1,-2 1,-3 3,-1 1,-1 1,-2 -1,-3 -3,1 -1,3 -3,0 0,-3 1,-2 3,-1 1,-2 1,-2 3,-1 -1,2 1,3 2,-1 1,-2 0,-3 0,-2 -3,-1 2,-2 0,-3 -3,1 -2,2 1,3 -2,1 -3,2 -1,2 -1,1 -2,1 -2,1 0,3 -1,2 -2,1 -3,1 1,3 -1,2 -1,2 0,3 -2,-1 -1,2 -2,2 -1,2 -2,2 3,1 0,2 -3,0 -2,-1 -1,2 0,3 -2,1 -3,1 -2,2 -2,1 -3,1 -3,0 -2,2 -2,1 -2,2 -4,1 -1,3 4,-1 3,0 3,-1 2,-3 3,0 3,-1 2,-2 3,0 1,-2 1,-1 1,4 3,-1 2,1 3,0 0,3 -2,1 -3,1 0,-3 -2,1 -1,2 1,3 -3,0 -1,3 0,3 -3,0 0,3 -1,2 -2,2 0,3 -2,2 -3,2 -1,3 0,3 -1,2 -1,3 -1,3 4,-2 3,3 3,-1 3,-1 2,-2 -1,-3 -3,1 -3,2 -1,-3 0,-3 0,-3 3,-2 1,4 3,0 1,-2 2,-2 -4,-2 0,-3 3,1 3,-1 0,-3 -4,0 1,-2 2,-2 0,-3 2,-2 2,-1 1,-2 3,-1 2,-1 3,0 3,-1 3,-1 3,-1 1,-1 -1,-3 2,-1 -1,-3 2,-1 1,-2 3,-1 2,-2 3,0 2,-2 2,-1 0,-4 -1,-3 3,0 2,-1 3,0 -1,-3 3,0 0,-3 -3,0 0,-3 2,-1 1,-2 2,4 1,-2 0,-3 1,-2 1,-2 -2,-2 1,-2 2,1 0,-3 1,-2 1,-2 1,-2 1,-2 0,-2 3,0 1,-3 3,0 0,-3 2,1 0,-3 1,-2 1,-2 3,0 1,-1 3,0 1,3 -1,3 3,0 1,-3 2,-1 0,-3 -3,1 0,-3 3,-1 -2,-2 -1,-3 1,-3 1,-2 3,0 3,-1 1,-3 3,1 -1,2 3,1 3,-1 2,-1 2,-1 1,-2 2,1 0,-3 1,-2 0,-4 -3,1 -1,2 -1,2 -2,2 -2,2 -3,-1 1,-2 1,-2 3,0 -1,-3 2,-2 2,-2 3,0 1,-2 1,-2 2,-2 1,-3 2,-1 1,-2 1,-2 2,-2 2,-2 -2,-1 -3,1 -2,1 -1,3 -2,2 -1,3 -2,2 -2,2 -1,2 -3,1 -1,3 -3,1 -1,1 -1,2 -1,2 -1,2 -3,0 -1,2 -1,2 -3,0 -3,0 -1,2 0,3 -3,0 -3,0 -3,0 -1,2 -2,-1 -1,2 -2,1 -2,2 0,3 -2,2 -1,2 -3,1 -1,2 4,0 3,0 1,-3 2,-2 0,-3 2,-2 3,1 1,-2 2,1 0,-3 3,1 2,-1 1,3 -1,3 -2,-2 -1,2 -3,1 -3,-1 -1,2 -1,3 -2,2 -1,3 -3,0 0,3 -3,0 0,-3 -3,1 0,3 -3,1 4,2 -1,1 -1,2 -2,-2 -3,0 -1,2 -3,1 -3,-1 1,-2 1,-2 2,1 2,-2 1,-2 3,-1 0,-3 -1,-3 1,-2 1,-2"/>
    <path style="fill:none;stroke:#000000;stroke-width:1"
          d="m 315,207 3,-1 2,-2 -4,-1 1,-2 3,0 1,-1 2,-2 2,-2 0,-2 1,-2 2,-1 1,-1 0,4 3,-1 1,-2 2,-1 0,3 3,0 1,-2 1,-3 -3,0 -2,-1 -3,1 0,-3 1,-2 1,-2 2,1 1,3 3,0 3,0 0,3 3,0 0,-3 2,-1 3,0 0,-3 1,-1 1,-2 3,-1 1,-2 1,-1 3,-1 -1,-3 3,0 -1,-3 3,0 1,-2 1,-2 1,-2 2,1 0,-4 3,-1 3,-1 -3,-2 0,-3 3,1 -1,-3 2,-1 3,-1 0,-3 1,-2 2,-2 3,-1 1,4 -2,2 -2,2 -1,3 -2,1 -1,3 1,3 3,1 0,-3 3,2 1,-2 1,-2 -3,-1 2,-2 1,-3 2,-1 0,-3 1,-1 -1,-3 -3,-3 2,-2 -1,-3 2,-2 2,3 1,-3 1,-2 1,-2 1,-1 3,0 1,-3 -3,0 0,-3 3,0 1,-2 2,-2 0,-3 0,-3 3,-1 2,-1 1,-3 0,-3 3,0 0,3 3,0 1,-1 1,-2 1,-2 3,-1 1,-2 1,-1 2,-2 1,-3 1,-2 1,-2 1,-1 3,-1 2,-1 0,-3 -1,-3 1,-3 0,-3 -3,-1 -1,2 1,3 -1,3 1,3 -3,0 -1,1 -3,0 0,2 0,3 -1,3 -1,2 -3,1 -1,3 -3,1 -1,2 -3,-1 1,-3 3,-1 1,-2 1,-2 1,-2 2,1 0,-3 1,-1 -1,-3 1,-2 3,-1 3,-1 1,-3 -1,-3 0,-3 -3,0 -3,0 -2,1 -3,1 -1,1 -3,1 -3,-1 1,-2 2,-1 3,-1 1,-2 2,1 0,-3 1,-1 -1,-3 3,0 0,-2 3,0 0,-3 3,-1 2,-2 3,0 0,-3 1,-2 0,-3 -3,1 -2,1 1,3 -3,0 -2,1 -1,2 -3,0 1,3 -3,0 -1,2 -2,1 0,3 -1,2 -2,2 -1,1 -2,1 -3,-1 1,-2 1,-2 1,-2 2,1 1,-2 0,-3 1,-2 2,-1 2,-1 0,-3 3,0 2,-2 3,-1 0,-3 3,-1 2,-1 1,-2 -1,-3 0,-3 2,-2 4,1 -1,2 -1,2 1,3 -1,3 3,-1 1,-3 1,-2 0,-3 2,-2 1,-2 3,-1 1,-2 2,-2 -4,-2 -2,3 -4,-2 1,3 -1,3 -3,0 0,-3 -1,-3 -2,1 -1,3 -2,2 -3,1 0,2 0,3 1,3 -2,2 -3,1 0,3 -3,1 -2,1 -3,0 -1,-3 3,0 3,-1 0,-3 3,-1 1,-2 0,-3 -1,-3 1,-2 3,-1 2,-2 -2,-2 -2,-1 -1,3 -2,-1 -3,0 -1,-4 -3,3 -2,3 -2,2 0,3 0,3 3,-1 2,-2 -2,-1 2,-2 1,-2 3,1 0,3 0,2 0,3 -2,-1 -1,2 0,3 -2,1 -3,0 1,-3 -3,-1 -1,2 -1,3 3,1 0,3 -2,-1 -1,2 -1,2 3,1 3,-1 2,1 -2,2 -2,1 -1,2 0,3 -3,0 -1,2 -1,2 -1,2 -1,1 -3,0 -3,0 -1,2 0,3 -2,1 0,2 -3,1 -1,1 -1,2 -2,1 3,2 -2,2 -1,2 -2,1 1,3 -3,0 -1,-3 -2,1 -2,1 -3,1 -2,-1 2,-2 2,-1 1,-2 3,0 3,0 1,-2 -1,-3 1,-2 1,-2 0,-2 -1,-3 -3,2 0,2 -1,2 0,3 0,2 -3,0 -3,-2 2,-1 1,-2 0,-3 1,-2 2,-2 2,-1 2,-1 1,-3 2,-2 0,-3 -3,1 -2,1 0,3 -3,1 -2,2 -2,2 -2,2 1,3 -2,2 -2,2 -2,1 -3,1 -2,2 -1,3 -3,1 3,2 -3,1 1,3 3,0 2,-2 0,-3 2,-1 0,-3 2,-1 3,-1 2,1 -2,2 -2,2 -1,3 -1,2 -1,2 -1,2 -3,0 -3,0 -3,1 0,3 -1,3 -2,-1 -4,-2 2,-2 1,-2 1,-2"/>
    <path style="fill:none;stroke:#000000;stroke-width:1"
          d="m 354,89 3,-1 -1,-3 -3,1 -3,2 -1,-4 3,-2 3,0 -1,-3 3,0 2,-2 -4,-1 0,-3 0,-3 3,-2 3,2 -2,2 3,3 2,-2 1,-2 3,0 1,-3 1,-3 2,-2 2,-2 2,-2 1,-2 1,-1 0,-3 1,-2 3,1 1,-2 0,-3 0,-3 2,-2 2,-2 4,-1 -1,3 1,3 3,-1 1,-2 1,-2 1,-3 1,-3 2,-3 2,1 0,3 -1,2 0,3 -1,1 -1,2 -1,2 -2,2 -1,2 -1,2 1,3 -3,0 -1,-3 0,-3 -3,-3 -1,2 0,3 2,3 1,3 0,3 -1,2 -2,2 2,1 -2,2 1,3 2,-1 2,-2 0,-3 1,-3 0,-2 2,-1 1,3 3,0 -1,-3 3,1 1,-2 1,-2 3,-1 0,-3 -2,-1 -1,2 -3,1 -2,2 -1,-3 2,-2 1,-1 2,-2 1,-2 1,-2 0,-3 1,-2 0,-3 1,-3 0,-3 -3,1 -3,-2 -3,1 -1,3 -2,3 -3,1 -3,1 -3,1 -4,0 0,3 -2,2 0,3 0,3 -3,-1 -1,-4 -3,0 -1,3 -3,-1 -2,2 -3,2 0,4 -1,3 3,3 2,-2 2,-3 -3,-1 1,-3 3,0 4,-1 0,3 -1,3 -2,3 -2,2 -2,2 0,3 -1,3 -2,-1 -3,0 1,-3 1,-2 -1,-3 -3,1 -1,1 0,3 -3,-1 0,3 -4,0 0,-3 -2,-3 -2,3 -1,2 -3,1 -2,-1 -2,2 -2,3 4,0 -2,3 -3,1 -4,-2 1,-3 2,-2 1,-3 2,-2 3,-1 1,-1 3,-1 -3,-3 0,-3 1,-2 3,-1 3,-1 0,-3 1,-2 1,-2 1,-3 2,-2 2,-2 2,-2 2,1 3,-2 1,-3 -4,-2 -2,2 -4,1 -2,1 -1,3 -2,2 -3,-1 1,4 -1,4 -1,3 -3,2 -3,-1 -1,3 0,3 0,3 -2,2 -2,2 -2,1 0,3 -3,1 0,3 -2,1 1,3 -3,0 -1,3 4,1 -3,3 -2,2 -1,3 -3,2 -3,1 0,-3 -1,-3 3,-1 2,-4 -4,0 -2,2 -3,0 0,3 1,3 -1,2 -1,1 -2,2 3,1 -2,2 -3,-1 -1,2 -1,2 0,3 -3,0 1,3 0,3 4,-2 2,-2 0,-3 2,-1 3,-1 0,3 -1,3 -1,2 -2,2 -3,1 -2,2 -3,0 0,3 -1,3 -4,1 0,-4 1,-4 1,-3 0,-3 -2,-4 2,-2 2,-2 1,-3 1,-3 2,1 1,-2 2,-2 1,-2 0,-4 0,-3 1,-2 3,1 1,-3 3,1 1,-3 3,3 1,-3 2,-2 2,-3 3,-2 -1,-3 -3,1 -3,2 -2,2 -3,1 -3,1 -2,1 -3,0 1,3 -3,1 -1,-3 -4,0 -2,2 -3,1 0,3 -1,2 -2,2 -2,2 -2,2 0,3 -3,1 -3,1 -1,2 -3,0 -3,2 0,3 3,0 2,-2 2,3 -2,2 -3,0 1,3 0,3 -2,2 -2,2 0,3 -1,1 -1,2 0,3 -3,-1 -1,2 -1,2 0,3 -1,2 0,3 0,3 -3,-1 -1,-3 0,-3 1,-1 1,-2 -1,-3 1,-2 1,-2 2,-2 1,-2 2,-2 1,-2 2,-2 2,-2 -1,-3 -3,-1 -1,3 -1,2 -3,2 -2,1 -1,2 0,3 -2,1 -1,3 -3,-2 -2,1 -3,1 -2,2 -2,-1 -1,2 -2,2 0,3 3,-1 2,-1 3,-1 1,-2 2,-1 4,2 -2,2 1,4 -4,-2 -2,1 -3,1 -2,1 -3,1 -2,-1 -3,0 1,3 -3,-1 0,3 -1,2 -3,-1 -3,0 1,3 -3,-1 -2,2 -3,1 -1,2 1,3 -1,2 1,3 3,-2 0,-3 0,-3 3,-1 0,3 3,0 0,-3 3,1 3,0 -3,-3 3,-1 2,-2 3,-1 1,-2 3,-1 3,0 0,3 -3,1 -3,2 -2,1 -1,2 0,3 -2,2"/>
    <path style="fill:none;stroke:#000000;stroke-width:1"
          d="m 241,142 -3,-1 0,3 -2,-1 -3,0 -1,2 3,1 -2,2 -3,-1 -1,2 -3,0 -1,2 0,3 -1,2 -3,1 -1,2 0,3 -1,1 -1,2 3,3 2,-2 1,-2 -1,-3 2,-2 2,1 0,3 0,3 -1,2 2,4 -2,-1 -3,0 -1,2 0,3 -1,3 -1,3 0,4 3,-1 2,-1 -1,-3 1,-3 0,-3 3,1 3,-1 0,-3 -1,-3 1,-2 -1,-3 3,-1 1,-2 1,-2 3,1 3,-1 2,-2 0,-3 0,-3 -3,0 -1,2 0,3 -3,1 0,-3 -3,0 -1,2 -1,2 -1,2 -2,-4 0,-3 2,-1 3,-1 3,-1 2,-2 3,-1 2,1 0,-3 2,-1 2,-2 0,-3 2,-2 2,1 0,-3 2,-1 3,-1 0,-3 -1,-3 3,0 2,1 1,3 -2,2 0,3 -3,0 -1,3 -1,2 -3,0 0,3 -2,2 -2,2 0,3 -1,2 0,3 0,3 1,3 3,0 -1,-3 1,-2 0,-3 0,-3 3,1 -1,-3 1,-2 1,-3 4,-2 0,-3 3,1 2,-2 0,-3 1,-3 2,4 2,-2 2,-2 0,-3 1,-3 1,-2 0,-3 1,-2 4,0 -1,-4 3,1 0,-3 0,-3 1,-2 1,-2 1,-3 1,-3 3,-1 3,0 -2,-4 1,-3 -3,0 1,-3 3,0 3,-1 1,-3 1,-2 2,-2 2,-2 1,-2 1,-2 1,-2 2,-2 1,3 1,3 -3,1 3,2 -2,2 -2,1 -3,2 -1,3 -1,2 -2,2 -1,2 -2,2 2,4 0,4 -4,-1 -3,0 -1,3 0,4 -2,2 0,3 -1,3 -1,3 -2,2 -3,1 -1,4 -1,2 1,3 -2,2 -2,2 -1,2 -3,0 -1,2 -2,2 -3,1 -3,1 1,3 -3,0 0,3 0,3 -2,2 -1,2 1,3 -1,2 -1,2 -3,0 0,3 -2,-1 -1,3 -2,1 -1,3 -1,2 -1,3 -1,2 -1,3 0,3 4,-2 -1,2 -1,3 -3,0 -2,2 -1,-3 1,-2 0,-3 1,-3 0,-3 1,-2 0,-3 0,-2 1,-1 1,-2 3,-1 1,-3 0,-3 -3,1 -1,2 -3,0 -1,2 -2,1 0,3 1,3 -1,2 -1,3 -2,1 -3,1 0,3 3,-1 3,-1 -1,3 -2,2 -3,0 -1,3 2,1 3,-1 1,3 -2,1 -3,0 -1,2 0,3 -3,1 -3,0 0,-3 3,0 0,-4 0,-3 -3,1 0,3 -3,0 -1,2 0,3 -3,0 0,3 -3,1 -2,1 -3,1 -1,2 -3,0 -3,0 -2,1 0,3 -1,2 -3,0 2,4 -2,-1 -1,2 -2,2 2,1 0,3 -1,2 -2,2 3,1 -2,2 -2,1 -2,2 3,1 -1,2 -2,1 -1,2 -2,2 0,3 -4,-1 1,-1 0,-3 1,-2 1,-1 1,-2 1,-4 2,-2 0,-3 1,-2 1,-1 -1,-3 -3,1 -1,3 0,3 -3,0 -1,1 2,3 -1,2 -2,-1 0,3 -1,2 -1,2 -1,1 0,3 -2,2 -1,2 -1,2 -3,0 -3,1 0,3 3,-1 0,3 -2,2 -2,-1 -1,2 -2,2 1,5 -3,3 -2,3 -5,0 -5,0 -5,1 1,-5 4,-1 3,-2 2,-2 3,-1 -1,-3 3,1 -1,-3 3,0 1,-1 1,-2 1,-2 0,-3 3,-1 3,-1 1,-2 1,-2 2,-1 -1,-3 1,-2 2,-1 1,-2 0,-3 1,-2 0,-3 3,-1 2,-2 0,-3 3,-1 1,-2 3,1 1,-2 -2,-1 2,-2 1,-1 3,-1 1,-2 2,-3 0,-3 0,-2 1,-1 2,-2 3,0 0,-3 3,0 1,-2 1,-2 0,-3 1,-2 2,-2 3,0 -1,3 -1,2 -1,2 1,3 -2,1 -1,3 -2,1 -3,2 -3,1 0,3 3,-1 3,-1 2,-1 3,-1 0,-3 3,-1 0,-3 0,-3 2,1 1,-2 -2,-3"/>
    <path style="fill:none;stroke:#000000;stroke-width:1"
          d="m 215,185 2,-1 -1,-3 1,-2 1,-3 1,-2 0,-4 -2,-1 -2,2 -1,2 0,3 -1,2 -3,1 -3,1 -2,1 -1,2 0,3 -1,2 -1,2 -3,1 -1,2 -2,1 -2,1 -1,-3 2,-2 0,-3 3,1 1,-2 2,-2 0,-4 -3,-1 1,-2 -1,-3 1,-2 3,-1 3,0 2,1 -2,2 -3,0 0,3 2,1 3,-1 2,-1 1,-2 0,-3 1,-2 1,-2 1,-2 2,1 0,-3 1,-3 -3,0 -2,2 -3,1 0,3 -1,2 -3,0 -2,-1 2,-2 1,-2 0,-3 3,0 2,-2 2,-1 -1,-3 3,0 1,3 2,-1 0,-3 3,0 1,-2 1,-2 0,-3 -3,0 -2,1 0,3 -3,0 0,-3 -3,1 1,3 -3,0 -1,3 -1,2 -2,1 -3,1 0,-3 1,-2 1,-2 2,1 0,-3 2,-1 -1,-3 -3,1 -3,-1 0,3 -1,2 -1,2 -2,1 -2,2 4,1 -1,2 -3,0 -1,1 -2,2 1,3 -3,-1 0,3 -1,2 -1,2 -3,-1 1,-6 -1,-6 3,-3 2,-3 3,-2 0,-4 3,-1 -1,-4 -3,0 0,-3 3,-1 3,2 0,-3 1,-2 3,1 2,-2 -3,-4 3,-1 0,-3 -3,0 -2,1 -1,2 0,3 -3,0 -1,1 0,2 -3,1 -2,1 0,3 -2,1 -1,2 4,1 0,3 -1,2 -2,1 -2,2 0,3 -3,0 -2,3 -3,1 -1,3 4,2 -3,4 -5,2 -4,2 -2,2 0,4 -3,-1 -2,2 -2,2 -1,3 -3,0 0,-3 1,-2 2,-2 2,-2 2,-2 1,-2 1,-2 3,0 1,-1 1,-2 3,0 1,-3 -1,-3 0,-3 1,-1 1,-2 2,-3 4,0 2,-1 2,-2 2,-2 -2,-1 -4,0 2,-3 1,-2 2,-2 1,-3 2,-2 2,-1 -1,-3 -3,1 -3,1 -1,3 -2,-1 1,4 -3,0 -2,3 -4,2 -3,0 -3,-1 1,3 1,3 3,-1 0,3 -1,3 -3,-2 -2,3 3,1 1,3 -1,2 1,3 -1,1 -3,1 -2,1 -3,0 -1,2 -1,2 0,3 -2,2 -3,1 -1,3 -3,0 1,-3 2,-3 0,-3 3,1 -1,-3 1,-2 1,-3 3,0 3,-1 2,-1 1,-3 -4,0 -3,1 -3,-1 -2,2 0,3 -2,2 -1,2 -3,0 -1,2 3,2 -2,1 -1,2 0,2 0,3 -2,1 -2,2 2,1 -2,2 0,3 0,3 -2,2 -3,0 -2,1 -3,0 -3,-2 2,-2 3,0 1,-2 3,2 1,-2 -2,-2 1,-2 1,-1 0,-3 1,-2 3,-1 -2,-2 1,-2 1,-2 0,-3 -3,1 -1,3 -1,3 -2,1 -1,2 0,2 -1,3 -2,2 -1,2 -4,-1 -1,2 -2,2 -2,2 -1,3 -1,3 3,1 2,-2 1,-3 3,2 -1,3 -2,2 -2,2 -1,2 -1,3 4,1 1,-3 2,-2 2,1 0,-3 1,-2 0,-3 3,0 3,0 2,-1 3,0 1,-1 1,-2 3,-1 0,-3 -3,1 0,-3 2,-1 1,-2 1,-2 3,0 -1,3 0,2 4,1 -1,3 -2,-1 -1,2 0,3 -3,0 0,3 -2,1 1,3 2,-1 3,4 1,-3 -2,-4 5,-1 4,-3 3,-2 2,-6 3,8 3,-2 1,-4 1,-5 0,-5 5,-2 4,-1 4,1 -1,2 -1,2 -3,1 -2,1 0,3 3,0 2,-2 3,-1 1,-2 1,-2 1,-2 2,1 0,-3 1,-2 1,-2 2,-1 0,-3 1,-1 3,-1 2,1 -2,2 -1,3 0,2 -3,1 -1,3 0,3 -1,2 -3,0 -1,3 3,0 3,0 2,1 -2,2 -3,0 -1,3 -1,2 -1,3 1,3 -1,2 2,1 1,3 0,3 -2,-1 -1,3 -1,1 -3,1 -1,2 -2,2 -1,2 -2,-1 -1,2 -1,2 -1,2 -1,2 -3,1"/>
    <path style="fill:none;stroke:#000000;stroke-width:1"
          d="m 173,222 0,3 -1,2 0,3 -1,2 -3,0 0,3 0,3 -2,2 -1,2 -3,0 -1,2 -3,0 1,4 -2,2 -1,2 -3,0 -1,1 -1,2 0,3 -2,-1 -1,2 -1,2 -3,0 -1,2 -3,1 -1,2 -2,-1 0,-3 3,-1 1,-2 3,-1 1,-2 2,-2 -1,-3 1,-2 2,1 2,-2 3,0 1,-2 -1,-3 1,-2 1,-2 -3,-3 -2,2 0,3 0,3 -4,2 1,-3 -1,-3 1,-3 -3,0 -1,3 1,3 -3,0 -1,-3 -2,-1 2,-2 1,-2 2,-2 3,1 -1,-4 3,-1 0,3 4,0 0,-4 4,0 0,3 -1,3 3,0 -1,3 1,3 3,-1 0,-3 3,0 0,-3 -3,0 -1,-3 1,-3 0,-3 3,-2 1,3 -1,2 0,3 3,-1 1,-2 0,-3 1,-2 -2,-2 -1,-3 2,-1 3,0 -1,3 3,0 1,-3 -1,-3 2,-1 -2,-2 2,-1 1,-2 2,3 1,-3 2,1 1,-2 3,-1 2,-2 1,-3 -3,0 -2,2 -2,1 -3,1 0,-3 1,-2 3,0 1,-2 3,0 0,-3 1,-4 -2,1 -2,1 0,2 -3,0 -1,2 -3,-1 1,-2 2,-2 1,-2 1,-1 3,0 3,-1 0,-2 2,-1 -3,-2 -2,2 -2,1 -3,0 -3,0 0,3 -1,2 -2,2 0,3 -3,1 -2,1 -4,0 -4,1 -3,3 -2,3 -4,2 0,3 -2,2 1,3 -4,-1 -3,1 -1,-3 1,-2 1,-2 2,1 1,-3 0,-3 -3,0 -2,1 -1,2 -1,3 -1,3 -3,1 -2,2 0,3 0,3 3,0 0,-3 1,-2 2,-1 2,3 -2,2 0,3 3,-1 3,-1 1,-3 3,1 5,-2 2,-5 4,-2 2,-1 1,-4 3,-1 2,-1 2,-2 2,-2 3,0 -1,3 0,3 -2,-1 -1,2 -1,2 -3,0 -1,3 3,0 0,3 -3,0 -4,0 -3,2 3,3 -3,1 -2,2 -2,2 -5,0 -3,1 -2,2 -3,-1 -1,3 -2,2 -1,2 -2,2 -1,2 -1,3 -1,2 3,1 -2,2 -1,1 -2,2 3,1 0,2 -3,0 -2,1 1,3 -3,-1 -1,2 -1,2 -1,2 0,3 -2,3 3,0 2,1 1,-2 -1,-3 1,-2 1,-2 3,0 1,-2 1,-2 3,0 0,-3 0,-3 1,-2 3,1 -1,2 1,3 -1,2 -1,3 -3,0 -1,3 -3,1 -1,2 0,2 0,3 3,0 0,3 -3,0 -2,-1 0,3 -2,-1 -1,3 0,4 -4,0 -2,-1 2,-2 1,-2 1,-2 1,-3 -3,0 -2,2 -1,2 -1,2 -3,-1 -2,2 1,3 3,-1 2,3 -3,0 -1,2 -1,2 -2,2 -2,1 -1,-3 2,-2 0,-2 0,-3 -3,1 -1,3 -1,3 1,3 1,3 -3,0 1,3 -3,0 1,3 -3,-1 -1,3 4,2 -4,3 -3,3 -4,0 -1,4 -2,1 -3,2 0,4 -1,3 0,4 -4,-4 0,4 0,4 -1,3 0,3 4,-2 1,-3 3,1 2,-3 1,-4 0,-6 5,-1 2,-4 4,-3 4,-1 3,-3 1,-3 0,-6 2,-4 4,-3 3,-4 4,-2 6,2 2,-5 3,-2 5,-1 7,0 4,1 3,-3 4,-1 3,-1 2,-1 2,-3 2,-4 3,-4 5,-5 -5,-1 -1,-4 3,0 1,-2 1,-2 1,-2 2,1 -1,4 4,3 0,-4 1,-2 3,1 1,-2 -1,-3 2,-1 1,-2 2,-2 1,-2 2,-2 -2,-1 2,-2 1,-3 0,-3 0,-3 1,-2 1,-2 1,-3 3,1 -1,-3 1,-2 1,-2 3,0 -1,3 4,0 -1,2 -3,1 0,3 -3,1 -1,2 -1,2 -1,2 0,3 3,-1 2,-1 0,-3 3,3 1,-2 2,-2 -3,-1 2,-2 1,-2 2,1 3,0 -1,3 -1,2 -1,2 -1,2 0,3"/>
    <path style="fill:none;stroke:#000000;stroke-width:1"
          d="m 210,230 -2,-1 0,3 -2,1 -1,-3 -3,0 -2,1 -3,0 0,3 3,0 3,-1 0,3 -1,2 -1,2 -3,0 1,-3 -3,0 -1,2 0,3 -2,-1 -1,2 -2,2 0,3 3,-2 3,0 2,-2 2,-1 3,0 2,1 0,-3 1,-2 0,-3 3,2 1,-2 1,-2 2,-2 1,-2 3,2 3,-1 0,-3 -3,0 -3,-1 3,-2 -1,-3 1,-2 0,-3 1,-2 1,-2 0,-2 1,-2 0,-3 -3,0 -1,2 -2,1 1,3 -1,2 -3,1 1,-2 -1,-3 -3,-1 1,-2 1,-1 3,0 1,-2 3,-1 1,-2 2,1 3,0 0,3 3,0 0,-3 3,-1 2,-2 -1,-3 3,0 1,3 2,-1 0,-3 3,0 1,-2 3,1 2,-2 1,-2 0,-3 0,-3 1,-2 -3,-1 1,-3 1,-4 3,-1 2,-2 3,0 -1,-3 3,-1 1,-3 0,-4 1,-2 2,-2 0,-3 1,-2 2,-2 1,-2 2,-1 2,-2 3,-1 3,-1 0,-3 2,-2 3,0 2,1 -1,3 -3,0 0,3 -3,1 0,3 -2,2 -1,-4 -2,2 -1,3 -3,1 1,3 -3,0 0,3 -1,3 -2,2 0,4 -2,3 -1,1 0,3 -3,0 -2,1 -1,2 -3,0 1,3 4,1 1,-1 1,-2 3,-1 0,3 0,3 -3,1 -3,0 -1,1 -1,2 -1,2 1,3 -2,2 -1,2 -2,1 -3,1 -2,1 -1,2 -3,1 -3,0 -1,2 -1,2 -2,-1 0,3 -3,0 -3,0 1,3 -1,2 0,3 -2,1 -1,2 0,3 0,3 3,-1 0,-3 2,1 0,-3 2,-2 1,-2 1,-1 -1,-3 3,-1 3,-1 1,-2 1,-2 3,0 1,-1 2,-2 3,-1 0,3 -2,2 -2,2 -1,2 -2,-1 -1,2 -3,1 -2,1 0,3 -1,3 -2,2 0,3 -2,1 -1,2 -3,1 1,3 1,3 -3,0 -2,1 -3,1 -2,-1 -1,2 -1,2 -1,2 -3,0 -1,2 2,4 2,-3 4,-2 1,-2 2,-2 3,0 3,-1 3,-1 0,-3 -1,-3 3,-1 1,3 2,-2 -1,-3 2,-1 -1,-3 3,0 0,-3 -2,-1 2,-2 0,-3 3,0 3,-1 0,3 -2,1 -1,2 0,3 0,3 -1,2 -1,2 2,3 -3,0 -2,2 -3,1 2,4 3,1 2,3 -3,0 -3,0 -4,1 -5,0 2,7 -6,-2 -2,5 -2,4 -4,-5 -1,4 -1,4 1,5 -4,0 -2,1 1,5 -5,-2 -4,1 -3,3 -2,3 -3,2 -4,1 -2,4 -1,3 -2,-4 0,-4 -4,3 1,3 -3,0 -3,0 -2,2 -3,-2 -1,2 0,3 -3,-1 -2,2 1,3 -2,1 -1,2 1,3 3,-1 1,-1 1,-2 0,-3 3,2 2,1 1,-2 -1,-3 2,-1 3,-1 3,1 3,0 -1,4 -2,2 -3,-3 0,3 -1,2 -1,2 -3,0 -2,-1 -1,2 0,3 -2,-1 -3,0 -4,1 -2,3 0,4 0,4 -1,3 -4,-2 -3,1 -5,-1 1,-3 3,-1 4,0 0,-4 1,-4 2,-3 2,-3 0,-3 2,-3 -3,0 0,-3 1,-2 3,1 0,-3 3,1 1,-3 3,-1 4,0 3,-2 3,-2 2,-3 4,0 4,-1 2,-2 4,-3 1,-3 5,0 3,-2 0,-5 4,0 2,-4 0,-5 -4,-3 -2,5 -4,0 -1,4 0,4 -3,1 -2,-6 -5,5 -5,3 6,3 -5,2 -4,0 -2,1 -2,4 -3,2 -2,3 -3,0 -4,0 -3,1 -1,2 -3,2 -3,1 -1,3 1,4 -1,2 1,3 -2,2 -1,3 -4,0 2,3 -1,3 -2,2 -4,2 -2,3 0,3 1,4 -3,2 -4,3 -2,3 -4,1 -5,1 0,4 -4,-3 -3,-3 -2,2 -3,1 -1,4 -1,4 -3,0 0,3 4,2 3,0 2,-1"/>
    <path style="fill:none;stroke:#000000;stroke-width:1"
          d="m 111,344 -2,-4 1,-3 2,-2 3,3 -1,3 1,4 0,3 -3,1 1,4 -5,-1 0,-3 -4,-1 -1,4 -3,1 -2,3 -3,1 -3,2 -2,5 -2,6 -3,4 -3,-4 -1,-4 -3,-4 -1,-4 7,3 2,-6 3,-3 3,-1 3,-2 4,-1 1,-2 -3,-3 1,-3 -3,-1 3,-3 4,0 -1,-4 2,-2 2,-3 3,0 -2,-4 4,1 0,-3 3,1 2,5 4,1 1,-4 4,0 2,-2 3,-2 3,-2 -1,-4 2,-4 -3,-1 -3,2 0,4 -2,2 -4,2 -4,1 -4,-2 1,-3 4,0 4,0 0,-3 0,-3 3,-3 2,-3 4,2 4,2 4,0 0,-4 -4,-1 -4,-1 1,-3 5,1 2,-1 5,-1 0,-4 1,-3 -2,-6 -3,1 -1,4 0,5 -4,-1 -4,-2 -4,2 -1,5 -4,-1 -2,4 -1,4 -2,4 -3,2 -4,2 -3,2 -3,3 -3,4 -2,2 -1,4 -1,4 -4,2 -3,2 -2,1 -3,1 -2,2 -2,-4 -2,1 0,7 5,0 3,-1 2,-1 3,-1 2,4 -3,1 -3,1 -3,1 -5,4 -4,2 -2,-4 0,-4 -2,-4 0,-3 1,-3 -2,-3 0,-3 1,-2 1,-2 4,0 -2,-5 2,-3 2,-3 2,-2 2,-1 1,-2 -1,-3 -3,0 -1,2 -5,-1 3,-4 3,0 3,-1 2,-3 1,-2 3,-1 1,-2 3,-1 1,4 -2,1 -3,1 -1,2 -2,1 0,3 0,2 3,-2 2,-2 1,-2 3,0 2,-1 1,-2 1,-1 1,-3 -3,0 -1,-3 3,-1 2,1 2,-2 3,-3 -3,0 -4,0 1,-3 3,-1 1,-1 1,-2 0,-3 2,-1 3,-1 2,-2 1,-3 3,0 2,-2 0,-3 3,1 0,-3 1,-2 1,-1 0,-3 1,-3 1,-2 2,-2 0,-3 3,1 -1,-3 2,-1 1,-3 0,-3 2,-2 0,-3 2,-2 1,-2 1,-2 2,-1 -1,-3 -3,1 -2,-1 -1,2 0,3 -1,1 -1,2 0,3 -2,1 0,3 0,3 -3,0 -1,2 -1,2 0,3 -2,1 -1,2 -1,2 -1,2 -1,2 0,4 -3,2 -1,3 -3,-3 0,3 -2,1 0,3 -1,2 -3,1 -3,0 -1,2 0,3 -2,2 -1,-4 -2,1 -1,2 1,3 -1,2 -3,0 1,3 2,1 -3,2 -2,2 -3,0 -1,2 -1,1 -3,0 -1,3 -1,2 -3,0 -3,1 -3,2 -4,-3 1,-4 -4,-1 1,-3 -3,-2 1,-3 -4,-3 2,-2 3,-4 2,-4 3,-3 3,0 1,-2 2,1 0,-3 1,-1 3,0 3,-1 1,3 -2,1 -3,1 0,3 -2,1 -3,0 1,3 -2,2 -2,3 0,3 -2,2 4,2 -1,2 3,3 -2,1 2,3 3,-2 1,-2 -2,-3 1,-3 -3,-1 1,-3 3,-1 2,3 1,-2 1,-2 3,0 0,3 -1,2 -2,2 -1,2 3,-1 3,-1 2,-1 -1,-3 1,-1 -1,-3 3,0 1,-2 -3,-1 2,-2 0,-3 3,1 3,-1 1,-2 3,-1 3,0 1,-2 1,-4 1,-2 2,-2 4,0 2,-2 -1,-3 -1,-3 3,0 -1,-3 3,0 3,-3 -3,0 -3,-1 -3,1 -1,2 -2,2 -1,-4 -2,2 -4,-2 3,-2 3,-1 3,-1 3,-1 3,-1 1,-2 1,5 2,-1 1,-2 1,-2 3,0 0,-3 -3,0 -3,1 -3,-1 2,-2 2,-1 3,0 3,-1 1,-3 1,-3 1,-3 1,-3 1,-2 0,-3 1,-3 1,-2 3,0 1,-2 1,-2 0,-3 0,-2 3,0 2,-1 -1,-3 -3,0 -2,1 -3,0 0,3 0,2 0,2 -1,2 -3,-1 -1,2 -1,3 -2,1 0,4 0,4 -2,3 0,3 0,3 -3,0 -2,1 -3,1 -1,-3 1,-2 3,0 1,-2 0,-3 1,-3 0,-4 0,-4 -5,1 0,4"/>
    <path style="fill:none;stroke:#000000;stroke-width:1"
          d="m 117,214 0,4 -1,1 1,3 -3,0 -1,2 -1,2 -3,0 -2,2 -2,1 -1,2 -1,2 0,3 3,0 3,-1 2,-1 -4,-2 3,-1 1,-2 3,0 0,3 0,4 -2,2 -3,0 -1,2 -3,0 -4,-1 -1,3 -2,1 -1,3 -2,2 -2,1 -1,2 0,3 -3,0 1,3 -3,0 -1,-3 -3,0 1,3 -1,2 3,1 3,0 0,3 0,3 3,0 0,-3 0,-3 1,-2 2,-2 0,-4 3,0 2,-2 3,0 1,4 3,-1 3,1 1,3 -3,0 -3,1 -3,1 -1,-4 -3,0 0,3 -2,2 -1,2 0,3 3,0 1,-2 1,-2 3,1 0,3 -2,2 -3,1 -3,0 -1,2 -4,-1 -2,2 0,3 -3,0 1,3 -1,2 -3,0 -3,1 -3,0 1,-3 2,-1 3,0 -1,-3 1,-1 3,-1 1,-3 -1,-3 1,-2 -3,-1 -3,0 -3,-1 3,-2 0,-3 -3,0 -2,1 -3,2 0,4 -1,3 -2,1 -2,-4 0,-3 -5,2 1,5 -3,3 -2,4 -1,5 -2,-4 -3,-4 1,-4 2,-3 2,-2 1,-6 -5,-1 0,3 -2,3 -2,2 -1,-4 -2,-4 3,1 1,-3 2,-2 3,1 3,-3 2,-3 4,-1 0,5 -2,5 4,0 4,-3 2,-2 1,-3 -4,-2 2,-2 2,1 2,-2 3,0 -1,3 -1,2 -1,3 1,3 3,0 2,-1 2,-1 3,0 3,0 0,-3 2,-2 2,-2 0,-3 -3,1 -2,2 -2,-1 0,3 -1,2 -3,0 -4,2 1,-2 1,-3 2,-1 -1,-3 1,-1 3,-1 2,1 1,-3 0,-3 0,-4 1,-3 3,-1 4,0 -1,4 -2,2 -1,2 -1,4 4,0 2,-2 2,-2 0,-4 1,-3 3,-2 2,-2 3,-1 1,-2 2,-2 0,-4 1,-3 1,-3 4,-2 1,-3 1,-3 1,-2 -3,-1 -2,2 -2,2 -1,3 -3,-1 -1,3 -1,3 0,4 -1,3 -2,2 -2,2 -3,3 -4,-1 1,-3 2,-1 1,-3 2,-1 1,-3 0,-3 -3,-1 -1,3 -3,1 -1,3 -2,4 -1,4 -3,0 -3,-1 0,3 0,3 -1,2 0,3 0,3 -3,1 -4,2 -2,1 -3,1 -4,0 2,-2 1,-2 3,0 3,-1 1,-2 2,-1 1,-3 -3,0 -3,0 -1,3 -2,-1 -1,2 -3,1 -1,2 -2,-1 -2,3 -3,2 -4,0 1,-5 2,-3 0,-4 -5,2 -4,3 -1,2 3,3 0,3 1,3 1,4 -2,-1 -3,1 -2,1 -2,2 -4,-2 2,-3 2,-2 3,0 1,-2 -1,-4 -5,2 2,-2 1,-3 -1,-3 -3,-1 -2,2 0,3 -2,4 -4,-4 -2,-5 4,0 2,-2 3,-1 0,-3 3,1 1,3 3,1 0,-3 3,-2 4,0 3,-2 4,-1 3,-1 0,-2 1,-2 3,1 -1,-3 1,-2 0,-2 2,-1 3,0 -1,3 0,3 -1,1 0,3 -3,1 -1,3 -3,0 -1,3 2,1 -1,3 3,-1 1,-3 2,1 0,-4 3,-1 0,3 3,-1 3,1 1,-2 1,-3 1,-3 4,0 0,-3 3,-1 0,-3 2,-2 2,-2 1,-2 1,-2 3,1 4,0 2,-2 0,-3 -3,1 -2,-1 -1,2 -3,-1 -3,0 -1,2 -2,1 0,2 -1,2 -2,2 -1,3 -3,0 0,3 -3,1 -1,2 0,3 -3,0 0,-3 0,-3 1,-2 1,-2 2,1 0,-3 1,-2 2,1 2,-2 1,-2 -4,0 1,-2 2,-1 1,-1 3,0 1,-2 2,-1 3,0 2,-1 3,0 3,0 0,-3 1,-2 2,-1 0,-2 3,0 0,-3 1,-2 1,-2 1,-2 3,0 1,-2 0,-3 0,-3 2,1 3,0 -1,3 -1,2 0,3 -2,2 -1,2 -2,-1 0,3 -2,1 0,3 -2,2 -1,2 -2,1 -1,2 3,1"/>
    <path style="fill:none;stroke:#000000;stroke-width:1"
          d="m 109,198 3,-1 1,-2 2,-1 1,-2 1,-2 1,-2 2,-2 1,-3 2,-1 0,-3 3,0 2,1 1,-3 3,1 -1,-4 -3,-1 -2,2 -3,0 1,-3 2,-2 1,-2 1,-2 1,-3 1,-2 1,-2 1,-2 2,-1 1,-2 -4,0 1,-2 3,-1 1,-2 2,1 0,3 0,3 -1,2 -2,2 -1,2 -1,2 -1,2 -1,2 -1,3 3,0 2,-2 1,-2 1,-2 1,-2 1,-2 2,1 3,0 3,-1 1,-2 2,-1 0,-3 1,-2 2,-1 4,0 3,-1 1,-3 2,-3 0,-4 -4,2 -4,-1 -1,3 3,1 -2,3 -3,0 -1,-3 -3,0 1,3 -1,2 -1,2 0,3 -3,0 0,3 -3,0 0,-3 0,-3 0,-3 3,3 0,-3 1,-2 0,-3 1,-2 -3,-1 -2,1 1,3 -1,1 -3,0 0,-3 0,-3 1,-2 1,-2 2,1 0,-3 1,-2 4,-2 2,-1 3,-4 5,1 0,5 -4,-1 -1,3 -3,0 -1,2 -2,-1 -1,2 0,3 3,0 1,3 2,-1 0,-3 1,-1 4,0 4,-2 2,-3 3,0 -1,3 4,0 0,-3 0,-3 4,1 3,-3 4,-1 -2,-4 1,-3 3,-1 0,-3 3,-3 1,-2 1,-2 -3,-1 -2,2 0,3 -3,1 -1,2 -3,2 -2,4 -2,-5 -4,2 0,3 1,3 -2,2 -1,2 -3,0 0,-4 2,-2 -1,-3 -3,0 -2,2 -4,-1 -4,1 -1,3 -1,2 -3,-2 0,3 -2,2 -3,2 -1,2 -2,2 -1,2 -3,0 -2,1 -1,-3 3,-1 0,-2 1,-2 2,1 1,-3 1,-2 2,1 0,-4 2,-3 3,0 1,-3 -4,-2 1,-3 -3,-2 -1,-4 3,1 5,0 1,-3 2,-2 -1,-4 3,-1 -1,-4 -2,2 -2,-1 0,-3 3,-1 2,-2 1,-6 -2,-5 2,-4 1,-3 2,-2 2,-2 3,0 -1,3 -1,3 -1,2 -1,3 0,3 2,4 -1,4 1,5 -4,2 1,3 -1,3 -1,1 -1,3 -1,2 0,3 -4,2 4,3 4,0 2,-2 1,-4 -3,0 1,-3 2,-1 0,-3 2,-2 3,3 0,4 -2,2 0,3 -1,3 3,0 2,-3 3,-4 5,-2 1,5 3,-2 1,-3 2,-1 3,-1 2,1 3,0 1,3 0,3 -2,2 -2,2 -1,2 0,3 -3,1 0,3 3,0 2,-1 3,0 1,-3 -3,0 1,-2 1,-2 2,1 0,-3 1,-3 0,-3 -1,-3 3,0 0,-3 0,-3 -3,3 -1,-3 1,-2 -4,2 1,3 -3,0 -1,-3 1,-3 2,-1 3,-1 1,-2 2,-1 1,4 2,-2 1,-3 2,-2 3,0 2,-1 -1,-3 3,-1 2,-2 0,-3 3,0 0,-3 0,-4 0,-3 3,0 2,1 -1,3 -1,2 0,3 0,3 1,3 -3,-1 0,3 -3,0 -1,2 0,3 -3,1 -2,1 -1,3 -2,-3 -1,3 -1,2 -1,2 1,3 -1,2 1,3 -2,1 -1,2 0,3 -1,2 0,2 -1,3 -1,3 0,3 3,0 0,-3 1,-3 2,1 0,-3 0,-3 0,-3 2,-2 3,0 0,3 -2,1 0,3 0,3 3,0 0,-3 2,-2 3,-2 -3,-1 1,-2 3,-1 0,-3 1,-2 1,-2 3,-3 3,-1 2,1 -2,4 -2,1 -2,3 0,5 -1,4 -4,1 -2,2 1,4 5,-1 1,5 -2,2 -2,2 0,3 -1,3 -3,1 -3,3 3,0 3,0 1,3 2,-1 3,0 3,-1 2,-1 0,-3 1,-2 1,-3 3,-1 1,-2 2,-1 -1,-3 -3,1 -2,1 -1,2 -2,2 -1,2 -1,2 -1,2 -1,2 -3,0 0,-3 1,-2 1,-2 1,-2 2,-2 0,-3 1,-1 0,-3 1,-1 3,0 -1,4 3,-1 2,-1 2,-2 -3,-1 1,-2 2,-1 2,-2"/>
    <path style="fill:none;stroke:#000000;stroke-width:1"
          d="m 230,116 3,-1 2,-1 0,-3 1,-3 -3,-1 -1,2 -1,2 -1,2 -3,1 -2,-1 -1,3 -2,2 -2,1 0,-4 2,-2 2,-4 3,1 1,-2 1,-2 -4,-1 2,-3 4,2 1,-2 -1,-3 3,-1 1,-2 3,-1 1,3 2,-2 0,-3 0,-3 0,-3 -3,1 -1,2 -1,1 -2,2 -4,1 -5,0 -3,3 -1,-4 -3,0 -1,2 -3,1 -3,1 0,3 -2,-1 -1,3 -3,0 -1,3 3,0 0,3 -3,0 -3,0 0,-3 0,-3 1,-2 3,-1 1,-3 2,-2 3,0 0,-3 3,1 -1,-3 3,0 1,-2 1,-3 0,-3 1,-1 1,-4 -3,0 1,-3 2,-1 2,-2 -3,-1 1,-2 3,-1 3,-1 -1,-3 1,-3 -1,-3 1,-2 0,-3 -3,1 0,-3 -3,1 -2,2 -4,2 0,-4 -2,1 -2,2 0,3 -1,3 3,1 2,-2 3,0 1,-3 3,-1 1,3 -1,2 1,3 -3,-1 0,3 -3,2 0,-4 -3,2 -3,1 -1,-3 -2,1 -4,-2 0,3 -1,2 -1,2 -1,3 -2,2 0,3 -3,1 0,-3 -2,1 -2,2 -2,2 -2,2 -1,2 0,3 3,0 1,-3 2,1 1,-3 2,-1 1,3 3,-3 2,-2 0,-3 2,-2 1,-2 1,-3 3,-1 0,3 0,3 -1,2 -2,2 0,3 -2,2 -3,1 -1,2 -3,1 -2,1 -1,2 -3,0 -3,0 0,3 -2,-1 -1,3 -3,0 1,3 -1,2 0,3 -2,-1 -1,2 -3,1 -3,-1 -4,0 2,-4 -6,-2 4,-2 2,-2 1,-1 2,-2 -3,-2 3,-1 1,-2 3,0 -1,-3 2,-4 1,-3 1,-3 -3,0 -1,3 -1,2 0,2 -3,0 1,3 -2,1 -1,2 -3,1 0,3 -2,2 -3,0 1,-4 1,-3 -3,-1 -1,-3 1,-2 1,-2 0,-3 1,-2 0,-3 1,-2 0,-2 1,-2 1,-2 0,-3 3,0 2,-1 0,-3 3,1 -1,-3 2,-1 2,-2 -3,-1 1,-2 2,-1 3,1 0,-3 2,-2 0,-3 2,1 2,-2 0,-3 -3,1 -3,0 -1,4 -2,-1 -1,2 0,2 -3,0 -1,2 -1,2 0,3 -2,-1 -1,2 0,2 0,3 -3,0 0,-3 -3,0 1,-2 1,-1 1,-2 -3,-1 2,-2 3,1 1,-2 1,-2 3,-2 1,-2 -1,-3 -2,1 -1,2 -1,1 -2,1 -1,2 -3,-3 -2,2 2,1 -2,2 -1,3 0,3 -1,2 -2,-4 -2,2 1,3 0,3 -3,-3 -1,3 -2,1 -2,2 -5,2 4,2 5,0 2,-2 2,-2 3,1 1,-3 1,-2 2,1 1,3 -1,2 -1,2 -1,3 -3,-3 -2,2 -2,2 -2,2 -4,0 -1,4 -5,1 -2,2 0,3 -2,2 0,3 -1,3 3,1 2,-2 -1,-3 2,-2 2,-1 0,4 2,3 0,3 -3,-1 -1,2 0,3 -3,-2 -4,0 -1,3 -1,3 0,3 4,-1 2,-4 4,2 -1,3 3,0 0,3 -2,1 -4,0 -3,0 -3,1 1,4 -2,1 -3,2 -1,4 -2,3 -3,-1 -1,3 -1,3 3,0 2,-1 2,3 2,-1 -1,-3 2,-1 0,-3 2,-3 4,0 0,5 -2,3 -1,2 -1,2 -1,2 -3,0 -1,1 1,3 -2,1 -1,2 0,3 -1,2 0,3 -3,1 -2,2 -2,2 -1,1 1,3 3,-1 1,-2 2,1 0,-3 2,-1 3,0 -1,-3 1,-2 3,1 3,-1 0,3 -1,2 -2,-1 0,3 -2,1 -3,0 1,3 -1,1 1,3 -1,1 0,3 -1,3 -1,2 -2,3 -2,1 -3,0 -1,-3 3,0 2,-1 0,-3 0,-3 2,1 0,-3 0,-3 -3,0 -1,2 -3,-1 -1,2 0,3 3,-1 0,3 -2,1 -2,1 -2,1 1,3 -2,1 1,3 -1,1 0,3"/>
    <path style="fill:none;stroke:#000000;stroke-width:1"
          d="m 112,176 -2,-1 -3,0 1,-3 1,-2 0,-3 1,-2 -1,-3 3,0 1,-2 0,-3 1,-3 1,-2 -1,-3 -3,0 0,2 -3,0 -1,-3 -2,1 0,3 -2,-1 -1,2 -1,3 3,0 3,0 1,-2 3,0 -1,3 -1,2 -3,0 -1,2 -1,3 3,0 -1,3 -1,2 0,3 -2,2 -3,0 1,-3 1,-1 -1,-3 1,-1 -4,2 0,3 -1,2 0,3 0,3 3,-1 2,-1 3,0 3,1 -1,2 -1,2 0,3 -3,1 -1,2 -3,0 -2,2 3,1 -1,2 -3,0 -2,1 -3,0 -3,0 -1,2 -2,1 -3,1 -2,-1 0,3 -2,1 -2,2 3,1 -2,2 -1,2 -2,-1 -3,0 -3,1 2,-4 3,0 0,-3 1,-2 3,-1 -3,-2 2,-2 0,-3 2,-1 1,-3 0,-3 1,-2 -1,-3 -2,2 -1,3 -1,2 -2,2 -3,1 1,3 -1,3 0,3 0,3 -3,0 0,3 -1,1 -1,2 -3,0 0,3 3,0 0,2 -1,2 -2,1 0,3 -3,-3 -3,2 -3,2 -4,0 -3,4 -3,0 0,-3 1,-4 4,-3 5,0 3,-2 4,1 -1,-3 -4,-2 2,-2 2,-2 3,-1 -3,-4 -3,-1 -1,3 -2,2 -3,2 0,4 -2,1 -5,0 -3,2 -1,3 -2,1 0,3 3,-1 0,3 -2,1 -1,2 1,3 -3,0 -1,-3 -5,2 -4,0 2,-5 3,-2 4,2 -1,-3 1,-1 1,-3 1,-3 2,-4 0,-3 2,-1 -3,-3 -2,2 0,3 -1,2 -2,-3 -1,3 -1,2 3,1 -1,2 -1,2 -3,0 0,-3 -1,-3 -2,4 0,3 -3,-1 1,3 -5,4 -4,-2 -1,-5 2,-4 -5,0 -1,-3 -1,-4 -2,-5 -2,-5 -1,-4 3,-2 -4,-6 -1,-6 4,0 5,-4 5,0 4,-1 4,0 -1,-7 3,-3 4,-2 3,-2 4,-2 3,0 3,-2 2,-2 1,-4 4,-3 1,-3 0,-3 -5,2 -1,3 -4,0 1,4 -4,0 0,3 -3,1 -2,-5 -3,2 2,5 -3,1 -4,2 -4,2 -2,2 -3,4 -5,2 -5,0 -3,3 0,-3 4,-5 2,-3 4,0 0,-4 3,-2 4,0 4,-1 0,-5 -3,1 1,-4 -2,-5 4,-1 1,4 1,3 3,-2 2,-1 2,-1 -1,-3 2,-1 0,-4 -3,0 -5,-1 -5,0 0,-6 1,-3 1,-5 4,-2 -2,-4 4,2 2,-1 2,-2 0,-3 -4,1 0,-3 2,-1 1,-2 3,3 1,-2 1,-2 1,-2 0,-3 2,7 -1,2 -2,4 3,0 2,-1 0,4 -2,1 -3,1 -2,2 0,3 -3,2 -4,3 4,4 2,-2 3,-1 1,-1 2,-2 -1,-3 1,-3 3,0 -1,3 2,3 -1,2 -1,2 -1,2 -1,2 -2,-1 -1,2 1,4 -1,3 -1,2 4,-2 3,-2 1,-2 3,0 3,-1 1,-2 -4,-2 3,-2 -1,-4 2,-2 2,-2 1,-2 3,1 0,3 -1,3 -1,3 -1,3 3,-2 3,-2 3,-2 6,-2 3,-1 4,-2 3,-1 5,-2 4,-2 3,0 5,2 0,-4 3,0 3,0 4,0 3,0 3,0 4,2 -2,2 -3,1 -2,3 -3,-1 0,-3 -5,1 -1,2 -3,0 -1,2 -3,-1 -3,0 0,2 1,3 2,-1 2,-1 1,3 -1,2 -3,0 -3,0 -2,2 -3,0 0,-3 2,-1 2,-1 -1,-3 -3,0 -2,2 -1,3 -3,-3 0,3 -3,1 -3,0 -3,1 -1,2 1,3 3,-3 1,3 0,4 -2,1 -1,3 -2,2 0,3 -2,2 5,1 1,-3 2,-1 0,-4 2,-2 0,-3 1,-2 -1,-3 2,-2 3,0 -1,3 0,3 3,0 1,-3 3,1 3,-1 1,-2 3,0 0,3 3,-1 1,-2 1,-2 1,-1 -1,-3 0,-2 2,-1 2,2 1,-3"/>
    <path style="fill:none;stroke:#000000;stroke-width:1"
          d="m 103,119 2,1 1,3 2,-1 3,0 0,-2 1,-2 3,0 0,3 0,2 -2,2 -3,0 -1,2 -3,1 -1,-3 -3,0 0,3 -2,2 -1,3 -3,1 -2,1 -1,2 0,3 -2,2 -1,2 -2,1 -3,0 0,3 4,0 -1,3 -3,0 -1,2 -2,2 -1,3 0,3 -3,1 -3,-3 2,-2 0,-3 2,-2 1,-2 1,-2 0,-3 2,-3 3,-1 2,-2 2,-1 0,-4 -2,1 -3,1 -2,2 -3,-1 -1,2 0,3 -2,1 0,3 -1,3 -2,2 -3,1 3,3 -3,1 0,3 -3,1 -4,0 -3,-1 4,-2 1,-2 2,-3 -2,-1 -4,0 0,3 -3,1 -2,2 -4,1 0,-4 2,-2 3,-1 0,-4 3,0 1,-3 0,-3 2,-2 3,-2 -4,-2 1,-3 0,-3 -3,1 -2,2 1,4 -4,-2 -1,2 -1,3 4,0 0,4 -4,0 0,4 -4,0 -1,3 0,4 -1,3 -4,-1 -1,4 5,1 -2,3 -4,2 -3,-1 0,-4 0,-4 -3,0 -2,3 -4,1 -2,4 4,2 3,-2 2,5 -5,2 -3,-1 -3,3 -5,1 -4,2 -4,1 -3,4 7,3 4,-2 4,1 0,-5 5,1 3,-2 4,-3 5,-4 4,-2 3,-1 3,-3 2,-1 2,-2 3,0 0,4 4,-1 2,-1 -2,5 -2,2 -2,3 -2,-4 -3,0 -4,2 -4,1 -2,3 -2,2 -4,2 -3,4 -4,2 -3,4 -3,2 -4,0 -6,-2 -1,5 -3,5 8,4 2,-5 5,0 4,-2 3,-2 2,-2 2,1 1,-3 2,-2 1,-2 1,-2 3,3 1,-2 -1,-3 2,-2 2,-2 3,-2 3,-2 3,3 -2,2 -1,2 -3,0 -2,2 -1,2 6,0 -1,2 -1,2 -3,0 -1,2 -1,2 -1,2 -3,0 0,-4 -3,1 0,4 -1,2 3,1 0,4 3,-2 0,-3 3,0 2,-2 1,-2 1,-2 3,0 1,-2 1,-2 1,-2 0,-2 1,-1 0,-3 2,-2 0,-2 2,-2 2,1 1,-4 1,-4 1,-3 2,-1 4,-1 0,3 -3,3 3,1 -1,2 -3,0 1,3 -3,0 0,3 -3,1 1,3 -3,0 0,3 -1,2 0,3 -2,2 0,3 2,3 3,-1 -1,-3 2,-2 0,-3 0,-4 3,0 0,-2 1,-2 2,1 0,-3 2,-1 1,-2 3,0 0,-3 3,0 -1,-3 -3,-1 2,-2 1,-2 3,3 1,-3 0,-3 0,-4 3,0 1,-3 3,1 3,-1 0,3 -2,1 -1,2 -3,1 1,4 -2,1 -1,3 -2,2 0,3 0,3 -2,-1 -1,2 1,3 0,3 -1,2 -1,3 0,4 3,0 1,-2 3,-1 3,0 1,-2 2,1 0,-3 2,-1 2,-1 2,-1 3,-1 0,-3 -3,1 -3,1 -3,0 -1,2 -3,-1 0,3 -2,2 -3,0 1,-3 1,-1 -1,-3 2,-1 3,0 3,-1 0,-3 -2,-1 -1,2 -3,0 0,-3 2,-2 1,-2 3,3 1,-2 -1,-3 -1,-3 3,-1 2,-2 3,-1 1,-2 -4,-1 0,-3 1,-2 0,-3 2,-2 2,-2 2,-2 2,-1 1,3 3,0 3,0 3,-1 1,-2 1,-2 3,0 0,-3 1,-2 0,-3 1,-2 1,-2 0,-3 -3,0 -1,2 -1,2 -1,1 1,3 -1,1 0,3 -3,0 -1,2 -1,2 -1,1 -3,0 0,-3 0,-3 2,1 1,-2 3,-1 0,-3 -3,0 -1,1 -3,1 -3,0 1,3 0,3 -3,0 -2,2 -2,-1 -1,2 -1,2 -1,2 -1,3 -1,2 -3,1 0,-3 1,-3 1,-2 1,-2 1,-3 1,-2 2,-2 2,2 3,-1 -2,-2 1,-2 1,-2 3,0 2,-1 3,-1 3,0 1,-2 1,-1 2,-2 -1,-3 1,-2 -1,-3 1,-3 3,0 2,-3 3,-4 2,-2 -1,-3 2,-1"/>
    <path style="fill:none;stroke:#000000;stroke-width:1"
          d="m 130,100 -1,-4 -2,-1 -3,0 2,3 -2,1 -2,3 -1,3 -3,2 -4,1 -4,-3 3,-3 2,-3 4,-2 2,-2 1,-3 3,0 1,-2 4,2 0,-4 -2,-1 4,-2 0,-3 2,-2 -1,-3 2,-1 1,-3 1,-3 0,-3 2,-3 -3,-1 -2,2 0,3 -1,2 0,3 -3,1 -1,3 -1,4 -2,2 -2,-4 1,-3 0,-3 1,-1 3,-2 -4,-2 3,-1 2,-1 2,-4 1,-3 -3,-2 -1,3 0,3 -3,1 -3,0 -2,2 -1,1 -1,2 0,3 3,-1 0,3 -2,1 -3,0 -1,2 -1,2 -1,2 -3,0 -2,3 -4,0 -3,1 1,6 5,-1 4,-1 4,-1 1,-2 -3,-2 3,-1 2,1 0,-4 1,-2 2,4 1,3 0,3 -2,-1 -1,2 -1,2 -2,2 -4,1 -4,2 -1,3 -4,0 -4,3 -2,1 1,-6 -2,-6 -1,-5 -3,-4 2,-3 -4,-2 0,-5 -3,-3 2,-3 5,1 6,2 1,-4 4,1 3,-1 0,-3 0,-3 1,-2 0,-3 1,-2 1,-2 1,-2 1,-2 -1,-3 1,-2 3,-1 -3,-2 -3,-1 0,3 -1,3 0,2 -1,3 -1,2 -1,2 0,3 -2,4 -5,0 -4,1 -3,-1 -2,2 1,-7 4,-3 5,1 2,-4 3,-1 1,-2 0,-3 -3,0 -2,2 -1,-4 -2,-1 -4,0 1,5 -5,-2 -2,5 0,5 -3,-3 -2,-3 -3,-3 2,-2 4,-2 2,-2 1,-3 4,0 1,-3 3,-2 1,4 0,3 3,0 0,-3 0,-3 3,0 3,0 0,2 -3,1 0,3 -1,3 3,0 1,-1 0,-3 3,-1 2,-3 5,1 3,-4 2,-2 3,-3 -3,-3 3,-1 0,-3 -4,-1 -3,3 -1,3 -2,5 -5,-1 -5,-1 -3,2 -3,0 -3,-1 -4,1 -2,2 -3,1 -2,2 -1,3 -3,3 -1,-4 1,-3 1,-3 -2,-3 4,1 2,-1 0,-3 3,0 2,-2 -2,-4 -3,2 -3,0 -1,3 -2,1 -1,-5 0,-7 3,4 4,0 0,-4 4,2 1,-3 3,-2 2,5 -1,3 -1,2 1,5 2,-1 3,2 1,-2 -2,-3 1,-3 0,-5 4,-1 5,-1 3,-1 -3,6 -5,2 0,4 5,2 2,-2 3,-4 3,-2 3,-1 3,0 2,-2 2,4 2,-2 2,-2 2,-2 3,1 -1,3 -2,2 -1,3 -2,1 -1,3 0,3 3,3 1,-3 0,-3 3,-1 2,-1 -1,-3 1,-2 1,-2 1,-1 3,-4 0,4 0,3 3,-1 2,-2 3,-1 1,3 -2,1 -2,2 0,3 0,3 -1,2 -1,2 1,3 -3,-1 -1,2 -3,1 0,-3 -1,-3 3,0 1,-2 1,-2 0,-3 1,-1 -4,-1 0,3 -2,3 -3,1 0,3 1,3 -1,2 -2,1 -2,3 -2,-1 -1,-5 -2,1 -1,4 -3,2 -2,4 -2,5 -3,0 1,3 -1,2 -1,2 -1,2 -1,2 -1,2 3,1 -1,2 -3,0 1,3 -1,2 0,3 -1,2 -1,2 -3,-1 -2,2 -5,1 -1,3 6,1 4,-1 3,0 1,-2 1,-2 1,-2 1,-1 -1,-3 1,-1 0,-3 2,-1 2,-2 -2,-4 2,-2 0,-3 1,-3 2,-2 4,1 -1,3 -2,1 -1,3 -1,3 1,3 3,0 0,-3 1,-2 2,-2 2,-2 2,4 3,-2 5,0 2,-1 2,-3 3,1 1,-3 2,-1 1,-2 3,-1 2,-1 0,-3 1,-3 0,-2 1,-2 3,3 1,-2 2,1 2,-2 1,-2 -1,-3 1,-3 -1,-3 -3,0 1,3 -1,3 0,3 -3,0 -2,-1 2,-2 1,-3 -3,0 -2,1 -1,2 0,3 -2,-1 0,3 1,3 -1,2 0,3 -2,-1 -2,2 -2,2 -3,1 1,-4 2,-2 2,-2 1,-2 -3,1 -3,1 -2,1 -1,3 -1,3 -1,3 -3,-3"/>
    <path style="fill:none;stroke:#000000;stroke-width:1"
          d="m 137,43 -3,2 -6,-3 3,-3 4,-1 3,0 1,-3 2,-2 3,0 2,-1 3,-1 2,-1 0,-3 1,-2 1,-1 -1,-3 1,-1 -1,-3 1,-1 3,-1 0,-3 1,-2 4,0 -1,3 -1,2 0,3 -3,0 0,4 2,-1 3,0 1,-2 1,-2 0,-3 1,-2 2,-1 1,-1 0,4 -1,3 2,1 2,-2 0,-4 1,-2 3,0 0,3 -1,2 3,1 1,-3 1,-2 2,1 2,-2 3,0 2,-2 1,4 3,-1 0,3 -3,1 1,3 -2,1 -3,0 1,-3 0,-3 -3,1 -2,2 1,3 0,3 3,0 3,0 -1,3 -3,1 -2,-1 -1,2 -3,1 -3,-1 1,-2 2,-1 0,-3 1,-2 -4,-1 -2,1 -1,2 3,1 -3,2 -1,3 1,3 3,0 1,3 2,1 1,-3 3,0 1,-1 3,0 1,-2 3,0 1,-3 1,-2 1,-2 2,-1 -1,-3 2,-2 -1,-3 2,-2 4,1 2,-3 1,4 -2,2 -3,-1 0,3 0,3 3,0 1,-2 3,0 1,-2 2,-1 -1,-4 3,-2 5,4 -1,2 -3,0 -1,3 -2,2 -1,2 -3,0 0,3 -2,1 -1,3 1,3 3,1 0,-4 3,-1 0,-3 3,2 1,-2 -1,-3 2,-1 0,-3 3,0 2,-2 2,1 0,-3 3,-1 0,4 4,1 0,-3 1,-4 3,4 4,-1 0,3 -2,2 -2,-1 -1,3 -1,1 -4,-2 -3,1 -3,-1 -2,2 -1,3 0,3 -1,3 -3,0 -4,0 2,3 -1,2 0,3 -1,3 -2,2 -1,2 -1,2 -2,2 -1,3 -2,2 -3,2 -2,1 1,3 -1,2 -2,1 1,3 -2,1 -3,1 0,-3 1,-2 2,-3 0,-3 1,-3 3,-1 1,-2 1,-1 1,-2 2,-2 1,-2 1,-2 1,-2 2,-2 0,-3 -3,1 -2,-3 -3,-3 0,-3 2,-2 1,-3 -3,0 -3,2 0,3 -1,2 -1,2 -3,1 0,3 0,3 -2,2 -1,2 -2,1 -1,2 3,0 3,0 1,-2 1,-2 2,-1 -1,-3 0,-3 3,-1 0,3 3,-1 1,3 -2,1 0,3 -2,1 0,3 -2,-1 -1,2 0,3 -2,1 -1,-3 -3,0 -3,0 -3,-1 0,3 -1,2 -2,1 1,3 -1,2 -2,-1 -1,2 -2,1 -3,0 -1,4 2,-1 1,3 -1,2 -2,-1 -1,2 -1,2 3,1 -1,2 -3,0 1,3 -1,2 -1,2 3,1 2,-2 0,-3 2,-1 1,-2 2,-2 -2,-1 2,-2 0,-3 -1,-3 2,-1 3,-1 0,3 -1,2 0,3 3,0 1,-2 0,-3 0,-3 0,-2 1,-1 -1,-3 3,1 -1,-3 1,-2 3,0 -1,3 3,0 -1,3 0,3 -2,-1 -1,2 -1,2 1,3 -1,1 1,3 -2,1 0,3 -1,2 -1,2 -1,3 -1,2 1,3 0,2 -3,0 -1,2 -1,3 -1,2 -2,2 3,3 2,-2 1,-2 0,-3 1,-2 3,0 1,-3 0,-3 0,-2 0,-3 2,-2 1,-2 0,-3 3,1 0,-3 3,0 1,-1 3,0 1,-2 0,-2 1,-2 1,-2 0,-3 2,-2 3,1 1,-3 1,-1 0,-3 2,-2 2,-3 3,0 -1,-3 1,-1 0,-3 1,-2 3,-1 -3,-2 3,-1 3,0 1,3 -1,2 -1,2 -1,2 -1,2 0,4 3,-1 1,-2 1,-2 1,-2 1,-3 0,-3 0,-3 0,-3 -3,1 -3,0 1,-3 0,-3 3,-1 0,3 4,0 0,-3 3,1 1,3 -2,2 0,3 0,4 1,4 -2,1 -1,3 -1,3 2,1 3,-1 0,-3 3,-3 2,-3 -3,-1 0,-3 0,-3 1,-3 0,-3 1,-2 1,-2 2,-2 2,-2 -1,-3 3,-2 1,4 1,3 -3,1 -2,2 0,3 0,3 -1,2 -2,2 1,3 3,0 1,-2"/>
    <path style="fill:none;stroke:#000000;stroke-width:1"
          d="m 240,33 2,-2 0,-3 0,-4 2,-2 4,1 1,-2 0,-3 -3,1 0,-3 3,-1 4,-1 1,4 -1,1 0,2 1,3 -1,1 -3,1 -3,0 -1,2 0,3 3,-1 3,0 2,-2 2,3 -1,2 1,3 -4,-2 -3,1 -3,0 0,3 -3,-3 -1,3 -1,2 -2,-1 -1,2 0,3 -2,-1 -2,2 0,3 3,-1 0,3 -2,2 -3,-1 -3,0 1,3 4,0 -1,3 -3,0 1,3 -1,1 -1,2 0,3 -1,3 -3,0 0,3 -2,2 0,4 -1,2 2,3 -3,1 -1,3 0,3 3,0 1,-3 3,-1 2,-2 2,-4 -4,0 0,-3 2,-1 0,-3 2,-2 2,-3 2,-3 1,-3 1,-4 1,-3 2,-3 0,-4 2,-2 1,-2 2,-2 3,-1 2,-2 2,-2 2,1 0,3 -2,2 0,3 -2,1 -2,-3 -1,3 -1,2 -2,2 0,4 1,4 -2,3 1,4 0,3 -2,2 -4,0 -1,5 -1,3 1,5 4,0 1,-2 0,-3 1,-1 0,-3 3,0 3,-1 -3,-2 2,-1 3,0 2,-3 3,-1 2,-1 3,-1 1,-2 1,-1 1,-2 0,-3 2,1 0,-3 0,-3 -3,0 -1,2 -3,-1 -1,2 3,3 -2,1 -1,2 -1,2 -3,1 -3,1 -1,3 -3,0 0,-3 1,-2 2,-1 1,-2 3,0 1,-2 0,-3 0,-3 -3,2 -1,3 -3,1 0,-3 1,-2 1,-2 2,-1 3,-1 1,-1 -1,-3 2,-1 0,-3 1,-2 2,-1 -1,-3 1,-2 1,-1 -3,-3 -1,-3 0,-3 0,-3 0,-3 2,-3 1,3 1,3 -1,3 3,0 1,3 -3,0 1,3 2,1 1,3 -1,2 -1,2 0,3 -2,2 -1,2 -1,3 0,3 3,-1 1,-2 1,-2 1,-2 3,1 -1,-3 0,-3 3,0 0,3 3,0 0,-3 2,-2 0,-2 1,-2 2,-2 0,-3 -3,1 -2,2 -1,3 -1,2 -3,0 0,-3 2,-2 -3,-1 1,-2 3,0 1,-2 2,-1 3,0 2,-2 0,-3 -3,1 -3,1 -3,1 -2,2 -2,-1 1,-3 -3,-2 3,-1 3,-3 0,4 3,0 2,-2 5,-3 1,5 3,0 3,-1 2,-2 4,1 3,4 -2,3 -1,2 -2,2 -1,2 -1,2 -1,2 -3,0 0,-3 1,-2 1,-2 1,-2 2,-2 1,-3 -4,1 -3,1 -1,2 -1,2 -1,2 0,3 1,3 -3,1 0,3 3,1 1,-2 3,0 0,4 -2,1 -1,2 -1,3 3,0 2,-2 2,-2 3,0 1,-2 -4,-1 1,-2 2,-1 0,-3 2,-2 0,-3 4,2 0,-4 2,-3 2,-2 2,-2 7,1 -2,1 -1,2 -1,3 -3,-1 -2,2 0,3 0,4 -3,0 -3,1 0,3 1,3 -1,2 -1,2 -1,2 -3,-2 -1,2 -2,2 -3,0 -3,1 -3,1 -3,1 -3,0 0,-3 2,-1 3,0 1,-2 0,-3 1,-3 -3,-1 -1,2 -1,3 -3,0 -1,2 -3,1 -2,2 4,1 -1,2 1,3 -1,2 0,3 -2,2 -1,3 3,0 2,-2 2,-2 0,-3 0,-3 3,1 3,-1 2,-1 3,-1 2,-1 -2,4 -2,2 -3,0 -1,2 -1,2 -1,1 -2,2 -2,2 -1,2 1,3 -3,-1 -1,2 -3,1 -1,3 -3,0 0,3 -4,0 -3,1 -3,0 3,-3 3,-1 1,-3 3,-1 2,-2 2,-1 2,-2 -3,-1 -3,1 -2,2 -3,0 -1,2 -1,2 -1,1 -2,2 -3,1 -1,1 0,2 -1,2 -1,2 -1,2 0,3 1,3 2,-1 0,-3 1,-2 1,-2 3,-1 0,3 3,-1 1,-2 3,0 3,0 3,-1 1,-2 1,-1 1,-3 1,-1 3,-1 0,3 3,0 0,-3 1,-2 -1,-3 1,-2 2,-2 3,0 3,0 1,-2 -4,-1"/>
    <path style="fill:none;stroke:#000000;stroke-width:1"
          d="m 281,63 1,-2 3,0 1,-2 2,1 0,-3 1,-2 1,-2 1,-1 1,-2 3,0 3,-1 0,-3 2,-2 1,-3 -1,-3 3,0 2,-2 1,-3 0,-3 4,2 -1,-3 2,-2 2,-2 3,1 -1,-4 2,-2 4,-1 4,-3 4,5 -2,2 -2,2 -3,-2 -2,2 3,3 -3,1 -1,3 -2,2 -2,-4 -2,1 0,3 -2,2 -2,2 -3,2 -2,3 -1,3 1,4 -3,-1 -1,3 0,3 -3,1 0,-3 -3,1 -2,3 0,3 3,-1 3,0 3,0 -1,3 -4,0 -3,1 -3,0 -1,2 -1,2 0,3 -2,-1 -3,3 0,-3 -3,1 -1,2 0,4 3,-1 0,3 -2,2 -2,1 -3,1 -4,-1 0,3 -1,1 0,3 -3,-1 0,3 -4,-2 -3,0 -2,1 -3,1 -3,0 -1,2 -1,2 -1,2 -3,0 -1,2 -1,2 -3,1 -1,2 -3,-3 -1,2 -1,3 3,0 2,1 0,3 -2,2 3,2 -2,2 -1,2 -3,1 -1,2 -2,-1 -1,2 0,3 -1,3 2,1 3,-1 -1,-3 3,0 1,-2 1,-2 3,2 1,-2 -1,-3 2,-2 1,-2 1,-3 -3,0 1,-3 1,-1 0,-3 3,0 3,-1 -3,-2 3,-1 3,1 -1,-3 1,-3 3,-1 3,0 3,-1 0,3 -1,3 -3,-1 -3,0 1,3 0,3 -3,1 -2,2 -3,0 0,3 0,3 3,-1 1,-2 3,0 1,-2 3,1 0,-3 1,-2 1,-2 3,0 1,-2 2,-2 -1,-3 3,0 3,0 -1,-3 2,-3 1,-2 3,-1 2,-1 3,0 2,-2 1,-2 1,-2 -1,-3 1,-2 3,3 1,-2 1,-2 0,-3 1,-2 3,1 1,-2 3,-1 3,0 1,-2 0,-3 1,-2 -1,-3 2,-1 3,-1 5,1 -1,2 -2,1 -2,2 -1,3 -1,2 5,-2 3,-1 2,-2 2,-2 2,-1 4,-1 2,-2 2,4 2,-2 3,-1 0,-5 -2,2 -3,0 0,-3 -1,-3 3,0 3,0 2,-2 4,0 2,-1 1,-3 0,-3 -3,1 -2,2 -3,0 -3,2 -4,-1 -1,-4 -3,3 1,3 -1,3 1,3 -2,1 -1,3 -4,0 1,-3 1,-3 1,-3 0,-3 -4,0 0,3 -1,2 -1,3 -1,2 -3,0 -4,-2 2,-3 3,-1 1,-3 1,-3 3,-1 3,-1 3,0 0,-3 3,-1 1,-3 3,-3 4,0 -1,-4 2,-2 2,5 2,-2 3,1 0,-4 4,0 4,2 -4,1 -1,4 -4,1 -3,1 -3,1 -2,1 -2,2 1,4 4,-3 3,-1 3,-1 3,-1 3,0 0,-4 2,-1 4,0 1,-3 3,-1 4,2 3,-1 4,0 -3,4 4,2 2,4 -1,2 -4,-3 -1,3 -2,2 -3,1 -3,2 -1,1 -2,2 -1,3 -1,3 -1,3 -2,1 -3,1 0,3 4,0 2,3 1,-3 2,-2 2,1 1,-3 -3,-3 3,-1 -1,-3 3,-1 2,-2 2,-2 3,0 1,-3 4,1 3,-1 0,-3 5,-2 2,-1 4,0 3,-1 2,-2 1,-3 -4,-1 -2,2 -3,1 -5,-2 -2,3 -2,2 -2,-4 1,-3 2,-3 5,2 3,-1 4,-1 5,-1 0,3 3,1 1,-2 3,0 1,-4 5,2 -2,2 -1,3 4,0 2,-2 2,-2 -2,-5 5,-3 6,2 4,-4 4,7 4,-2 5,1 4,-2 7,1 5,1 0,5 -1,1 -1,2 -2,2 -1,2 -3,1 -1,2 -1,2 -1,1 1,3 -2,1 0,3 -2,2 -3,0 1,3 -1,2 -1,2 1,3 -1,2 -2,-1 -3,0 -3,1 1,3 -3,1 0,2 -3,0 -1,3 3,0 3,0 3,1 -1,-3 2,-1 1,-3 2,1 3,-1 2,-1 0,-2 0,-3 2,1 1,-4 -3,0 1,-3 3,-1 2,-2 0,-2 1,-2 0,-3"/>
    <path style="fill:none;stroke:#000000;stroke-width:1"
          d="m 446,37 1,-2 1,-2 1,-1 3,-1 0,3 -2,2 -1,3 0,3 3,0 2,-2 -2,-1 2,-2 1,-2 1,-2 0,-3 -3,-1 1,-2 3,0 -1,-3 3,-3 2,-5 7,-2 -2,3 -2,5 -1,2 -3,1 2,3 -2,1 -1,2 0,2 3,-1 3,-1 0,-3 1,-2 2,-2 1,-2 5,-1 0,3 -2,1 1,3 -3,-1 -1,2 -1,2 0,3 -3,0 -1,1 1,3 -1,1 -3,0 0,-3 -3,0 0,3 -1,2 -1,2 -1,2 -3,0 1,3 -3,0 -1,-3 -2,2 -1,2 0,3 -2,1 0,3 -1,2 -1,2 -1,2 -3,0 -1,1 -3,1 0,3 3,-1 0,3 0,3 1,3 -1,2 2,3 3,-1 -1,-4 3,0 1,-1 3,0 3,0 1,-2 3,0 3,-1 2,1 2,-2 1,-2 1,-2 0,-3 -3,1 -2,2 -1,2 -4,0 -2,1 0,-4 3,-1 0,-3 3,1 1,-2 3,0 1,-2 0,-3 1,-2 1,-2 0,-3 -2,-3 -1,2 -1,2 -1,2 -1,2 1,3 -2,1 -3,1 -4,-1 -1,2 2,3 -3,1 0,3 -2,1 -3,1 4,2 -1,1 -3,0 -3,1 -1,-3 1,-2 0,-2 3,0 1,-2 1,-2 1,-2 0,-3 2,-2 0,-3 3,0 1,3 3,0 0,-3 1,-3 2,-2 1,-3 2,-1 3,0 1,3 2,-1 0,-3 1,-2 0,-2 2,-1 0,-3 3,1 -1,-3 3,0 1,-2 0,-3 1,-2 1,-3 2,-4 5,-1 5,4 -1,4 0,3 -1,2 -1,2 -1,3 -1,2 -1,3 -1,2 -1,2 -1,3 -2,-1 -1,2 -3,1 -2,-2 2,-2 0,-3 2,1 2,-2 1,-2 2,-2 0,-3 2,-2 0,-3 1,-3 0,-3 -3,3 -1,2 -1,2 -1,2 0,3 -2,1 -1,3 -2,-1 -2,2 0,3 -1,1 -1,2 0,2 -3,1 0,3 2,1 1,-2 3,0 0,3 -2,2 2,1 3,0 0,-3 1,-2 2,-1 1,3 -1,2 0,3 3,0 -1,3 1,3 -1,2 -3,0 -2,1 -1,2 0,3 -2,-1 -1,3 0,3 -1,2 -3,1 -1,2 -3,0 0,3 -1,2 -3,-3 1,-3 1,-3 3,0 3,-1 1,-2 1,-3 -2,-1 2,-2 1,-2 0,-2 1,-1 3,0 3,-1 -1,-3 -2,-1 -1,2 -3,0 0,-3 -3,1 0,-3 -2,-2 -1,3 0,3 3,2 -2,1 1,3 -1,2 -1,3 1,3 -3,-1 -1,2 -3,1 -3,-1 1,3 -3,1 -1,-3 -2,1 0,3 1,3 2,-1 3,0 0,3 -3,1 -3,0 -1,2 -3,-1 1,-2 1,-2 -1,-3 0,-3 -3,1 -1,1 1,3 -1,2 -3,-1 -3,0 -1,3 -1,3 3,0 2,-2 3,1 -1,3 0,3 -2,1 -3,0 1,-3 -3,0 -1,3 -1,3 -2,1 -2,1 0,3 -2,1 -2,1 -1,2 -3,0 0,-3 2,-2 3,-1 0,-3 3,-2 2,-1 1,-3 -2,-1 2,-2 1,-3 -3,0 -2,2 -1,3 0,2 -1,2 -2,1 -1,3 -3,1 -1,1 -1,2 -1,2 0,2 -1,2 0,3 -1,3 0,3 -3,1 -1,2 -1,3 3,0 0,3 -3,0 -1,2 1,3 -1,2 2,2 -2,2 0,3 -1,3 0,3 3,-3 1,-2 1,-2 1,-2 2,-2 0,-3 -3,1 0,-3 2,-1 1,-3 2,1 3,-1 2,-1 3,0 0,-3 2,-1 1,-2 1,-2 3,0 1,-2 -1,-3 1,-1 -1,-3 -3,1 0,3 0,2 -3,1 -3,-1 -2,2 3,1 0,2 -3,0 1,3 -3,1 -3,0 -2,-2 3,-1 1,-1 -1,-3 1,-2 1,-2 0,-2 1,-1 3,0 1,3 2,-1 0,-3 1,-2 2,-1 3,0 1,-2 -2,-2"/>
    <path style="fill:none;stroke:#000000;stroke-width:1"
          d="m 434,102 3,-1 1,-3 3,0 -1,3 3,0 1,-2 2,-1 2,-2 0,-3 0,-3 3,3 1,-2 2,-1 2,-1 2,-1 3,0 0,3 -1,2 -1,2 -2,-3 -2,2 -1,2 -2,1 -2,2 0,3 -3,0 -1,2 -3,0 -1,2 -3,-2 0,3 -1,2 3,1 -1,2 -1,2 1,3 2,-1 1,-2 1,-2 0,-3 2,1 0,-3 3,-1 4,-2 0,2 -1,3 -3,1 -1,3 -1,2 -1,2 -1,2 -1,3 0,3 -1,3 -2,-2 -2,2 2,2 -3,1 -1,2 -1,2 -1,2 -3,0 0,-3 1,-2 1,-2 2,-2 1,-3 1,-1 3,-1 1,-3 -3,-1 -1,2 -3,0 -1,2 0,3 -2,-1 -1,2 -1,2 -1,2 0,3 -1,2 -1,4 -2,2 0,3 -1,2 0,3 3,0 1,-4 1,-2 1,-2 0,-3 2,1 3,0 -1,3 -1,2 -1,2 0,3 -2,-1 0,3 -1,2 1,3 3,0 0,-3 2,-2 0,-3 1,-3 1,-2 1,-2 0,-3 3,0 1,-3 -3,0 1,-3 3,0 2,-1 1,-2 0,-3 1,-3 0,-3 2,-2 1,-3 1,-3 2,1 1,-2 1,-3 2,1 0,-3 0,-2 3,0 1,-3 -3,0 -3,0 -2,-2 2,-1 3,0 0,-2 3,1 2,-2 1,-2 0,-3 2,-1 3,0 2,-2 -3,-1 1,-2 2,-1 1,-2 3,0 1,-2 0,-3 1,-1 1,-2 1,-3 1,-2 4,0 -1,3 -2,2 3,2 -2,2 -1,1 -1,2 -1,2 -1,2 -1,3 -2,-3 -1,2 0,3 -2,2 -2,1 0,3 -2,-1 -1,2 0,3 -2,-1 -1,2 1,3 -2,1 1,3 -3,0 -1,2 2,2 3,-1 3,0 2,-2 3,3 -2,2 -3,0 -3,0 -1,2 -1,1 -1,3 0,3 -3,1 -3,-1 1,-2 2,-1 1,-3 0,-3 -2,-1 -1,2 0,3 -2,-1 -3,1 2,2 -3,1 -1,2 3,1 -3,2 -1,2 0,2 0,3 0,2 -3,0 -1,2 -1,2 0,3 -3,0 0,3 -1,2 -1,2 -1,2 1,3 -2,1 -1,2 0,3 -3,0 -1,3 -3,0 1,-3 -2,-1 -3,3 0,-3 1,-3 0,-3 -3,1 -1,2 -2,2 2,2 -3,1 0,3 3,-1 0,3 -3,1 -3,1 2,3 -1,2 0,3 -2,2 -1,2 -2,2 -1,-3 1,-2 2,-2 -1,-3 1,-2 -1,-4 3,-1 0,-3 0,-3 1,-2 1,-2 1,-2 1,-2 1,-1 -1,-3 1,-2 1,-3 1,-3 2,-2 0,-3 1,-2 0,-3 -3,1 -2,1 0,2 0,3 -1,3 -1,2 -1,2 -1,2 0,3 -3,-1 -1,2 -3,1 1,3 2,-1 3,0 -2,3 -1,2 0,3 -1,1 -1,2 -1,3 -1,2 -2,1 0,3 3,-1 0,3 -2,1 -1,2 -4,-1 0,-3 1,-1 -1,-3 -1,-3 3,0 -1,-3 3,1 1,-4 -2,1 -1,-3 3,-1 1,-1 -1,-3 -1,-3 -3,1 1,3 -2,1 -2,2 1,3 -2,2 -1,1 -1,2 1,3 -3,1 -1,-3 -3,-1 -1,2 -1,3 3,0 1,3 2,1 1,-2 3,-1 0,3 -1,3 2,1 0,3 0,3 3,0 0,-3 1,-2 3,1 0,3 3,3 -3,0 -2,1 -3,1 -2,-1 -2,2 -1,3 0,3 -3,0 -2,1 3,2 -1,2 -2,1 -1,3 -3,-1 1,-2 1,-3 -3,0 1,-3 1,-2 2,-1 3,0 0,-3 1,-2 1,-2 1,-2 -1,-3 -1,-3 -2,2 0,3 -1,2 -1,2 0,3 -3,1 0,-3 0,-3 0,-2 1,-2 2,-4 -1,-3 -2,1 0,3 -2,2 -3,0 1,-3 1,-3 -3,0 -1,3 -2,1 -2,2 3,1 -2,2 -1,2 -3,0 0,-3 0,-2 1,-3"/>
    <path style="fill:none;stroke:#000000;stroke-width:1"
          d="m 376,176 1,-2 3,-1 1,-3 2,-3 1,3 3,0 0,-3 1,-2 1,-3 3,0 3,0 -1,-3 3,0 1,-2 -1,-3 1,-2 3,0 -1,-3 1,-2 3,1 3,-1 0,-3 0,-3 1,-2 -1,-3 1,-2 -1,-3 1,-1 0,-4 -3,1 0,-3 1,-3 3,1 0,-3 1,-2 1,-2 3,1 -1,-3 1,-2 1,-2 0,-3 -3,0 -1,2 -1,3 -4,-1 1,3 -1,3 -2,2 -1,3 -1,3 0,3 -2,1 -2,1 -2,2 0,3 -2,1 -2,1 1,3 3,1 1,-2 3,3 1,-2 -1,-3 -1,-3 2,-1 2,-2 2,3 -1,2 0,3 0,3 0,3 -3,0 -3,-1 -3,0 1,3 -1,1 0,3 -3,-1 -1,2 0,3 3,-1 0,3 -3,1 -1,2 -4,1 -1,2 -1,2 -2,-1 -2,2 -1,2 -1,2 -1,2 -3,1 -1,3 -1,2 -1,2 1,3 -1,2 0,3 0,3 0,3 -3,0 -3,1 1,3 2,-1 3,0 3,-1 0,-3 1,-2 -1,-3 3,0 1,3 0,3 -1,2 1,3 -3,0 -2,1 3,2 -1,2 -1,2 -1,2 -2,2 -1,-3 0,-3 1,-1 -1,-3 -3,1 -3,-1 -1,2 -1,2 -1,2 -1,2 -1,2 -3,1 -1,1 0,3 -1,2 -1,3 -1,3 -1,1 -1,2 -1,2 -1,2 0,3 -2,1 -1,-3 -3,0 -1,2 -3,0 -2,2 -2,1 1,3 -1,1 0,3 -1,3 3,0 -1,3 -3,0 1,3 -1,2 0,3 -1,3 -2,2 0,3 3,-1 1,-3 3,0 0,-3 1,-1 -1,-3 2,-2 1,-3 1,-2 1,-4 -3,1 0,-3 0,-3 2,1 0,-3 3,-1 0,3 0,3 3,0 0,-3 1,-1 3,-1 2,-1 -1,-3 1,-2 2,1 2,-2 -3,-2 3,-1 2,1 0,-3 -3,-1 1,-3 2,1 0,-3 0,-3 1,-2 3,-1 1,-2 1,-2 1,-2 2,-2 0,3 1,3 -2,2 2,1 1,3 -3,-1 -3,0 -1,1 -1,2 0,3 0,3 3,0 0,-3 0,-2 3,-1 2,1 -2,2 0,3 3,-1 2,-1 3,0 1,-1 -1,-3 -3,1 0,-3 0,-2 1,-1 1,-2 2,4 1,-2 0,-3 1,-2 1,-2 1,-1 0,-3 1,-3 0,-3 0,-3 1,-2 1,-2 -3,-1 2,-2 1,-2 2,-1 1,3 0,3 0,3 -1,2 0,2 -1,2 -1,3 3,0 0,3 -3,0 1,3 -1,2 -1,1 0,3 -2,-1 0,3 -2,2 1,3 2,-1 2,-1 1,-2 2,1 0,-3 0,-2 1,-2 0,-3 3,0 0,3 3,0 1,-2 1,-3 3,-1 1,-3 1,-2 1,-3 1,-2 2,-1 3,-1 3,1 1,-3 3,-1 1,-3 2,-2 1,-2 1,-2 1,-3 1,-2 0,-3 1,-1 3,-1 1,-2 1,-2 3,1 0,3 3,0 0,-3 3,0 -1,-3 3,0 2,-2 0,-3 2,-2 0,-3 1,-1 0,-3 2,-1 -1,-3 3,-1 0,-3 1,-2 2,-1 0,4 1,3 2,1 1,-2 -1,-3 1,-1 -1,-3 1,-1 2,-2 0,-3 -3,1 -1,1 1,-4 1,-2 2,-1 3,1 -1,2 1,3 0,2 -1,3 -1,2 0,3 3,-1 1,-2 1,-2 3,0 3,0 1,-2 3,-1 -1,-3 -2,1 -3,0 -1,2 -3,0 0,-3 1,-1 -1,-3 1,-1 3,0 0,3 3,-1 0,-3 -1,-3 -3,1 0,-3 2,-2 3,-1 0,3 3,-1 1,-1 1,-2 3,4 -4,2 -1,2 -1,1 0,3 2,3 2,-2 2,-2 0,-3 3,0 1,4 0,3 -2,2 -4,1 0,4 -2,2 -2,-1 -1,3 -2,-2 -3,0 -2,1 -1,2 -3,1 -2,1 -1,2 -1,2 -1,3 0,3 -1,2"/>
    <path style="fill:none;stroke:#000000;stroke-width:1"
          d="m 454,157 -1,2 -1,2 0,3 -2,-1 -1,2 -3,0 0,-3 2,-2 0,-3 2,1 0,-3 1,-2 1,-2 1,-2 -3,-1 -2,-1 0,3 -1,2 -1,2 -1,3 -1,2 -1,2 -1,3 -2,2 -1,2 -2,2 -1,2 -2,1 1,3 -3,-1 -1,2 -3,0 0,-3 2,-2 -2,-1 -3,1 0,3 -1,2 -2,2 -1,3 3,0 2,-2 3,0 0,2 -2,2 -2,1 -3,0 -1,2 -3,0 -1,3 -2,2 -1,2 -4,2 -2,-1 -3,1 -1,2 -1,2 -1,3 0,3 3,-1 1,-2 1,-2 1,-2 3,1 -1,3 2,1 -2,2 -1,1 -3,1 -2,1 -1,2 1,3 -1,1 -1,2 -2,1 -3,0 -3,0 -2,-1 2,-2 3,0 2,-1 1,-2 0,-3 -1,-3 -2,1 0,3 -1,2 -3,0 -3,0 0,2 -1,3 -1,2 3,1 -1,3 3,0 2,-2 3,0 3,0 2,-1 3,-1 1,-3 0,-3 1,-2 2,-1 3,0 1,-2 1,-2 2,-2 -2,-1 -1,-3 0,-3 3,0 1,-2 2,-2 1,-3 3,-2 3,0 3,-1 1,-2 3,1 -1,-3 3,-1 -3,-2 3,-1 2,-1 0,-3 2,-2 1,-2 2,-2 1,-2 3,1 -1,3 3,1 1,-2 1,-2 3,-1 1,-3 1,-2 1,-2 1,-2 0,-3 0,-3 1,-2 2,-2 2,-2 2,3 1,-2 0,-3 2,-1 1,3 3,-1 3,-1 3,-1 2,-3 1,-3 3,1 1,-4 2,-3 3,-2 3,1 3,0 1,4 3,-1 2,-2 4,-2 1,5 -1,3 -3,1 -4,0 0,4 -3,1 -2,4 -2,3 -3,-1 0,-4 3,-2 0,-4 3,-1 -2,-4 -3,0 -1,3 -1,3 -3,2 0,4 -2,-1 -3,1 -3,1 -1,2 -1,2 -3,-3 -2,1 -1,2 0,3 3,0 0,3 -3,1 0,3 3,-1 4,1 0,-3 1,-3 3,0 0,-4 2,-2 3,1 -1,3 4,-1 4,2 -3,2 -3,2 -2,1 -4,0 -1,3 0,3 -1,3 -1,3 -3,0 0,-4 1,-3 -3,0 -3,0 1,3 -1,2 -3,0 -1,-3 -3,0 1,-3 3,0 -1,-3 0,-3 1,-2 0,-3 -3,-1 -1,2 -1,2 1,3 -1,2 -1,3 -1,2 1,3 -3,-1 0,3 -3,0 -1,3 3,0 1,3 3,0 -1,-3 1,-2 3,-1 3,2 -2,2 -1,2 -1,3 -1,3 3,0 1,-3 3,1 0,-3 1,-1 1,-3 3,1 0,3 0,3 -2,2 -3,1 -1,2 0,3 3,0 2,-2 3,-2 3,-1 2,-2 -3,-3 0,-3 4,0 1,-3 1,-3 0,-4 2,-1 4,0 2,-2 2,-2 5,0 -2,-3 0,-4 2,-2 1,-4 4,2 1,-3 -1,-4 4,0 4,1 1,-4 0,-4 4,0 3,-1 2,-3 0,-4 3,-1 2,-3 1,-3 -1,-5 -3,2 -2,3 -3,1 -1,4 -1,3 -5,1 0,-5 0,-5 3,-3 4,-1 3,-3 4,-1 2,-2 1,-4 -1,-5 -4,2 -1,4 -2,1 -4,0 -3,3 -4,2 -2,2 -4,1 2,4 0,5 -3,0 -1,3 -4,0 -4,-2 4,-2 1,-3 3,-1 -3,-4 1,-4 4,0 -2,-5 4,2 3,-1 3,-2 -4,-3 1,-3 2,-3 2,-4 -4,0 -2,2 -2,3 -1,3 0,3 -4,-3 1,-4 -1,-4 3,0 1,-3 0,-3 -3,1 -1,-5 5,1 0,-3 1,-2 1,-2 -4,-3 3,-1 1,-2 2,4 3,2 -1,3 -2,2 -1,3 0,4 3,0 3,0 -1,-4 4,2 1,-3 -4,-2 2,-2 3,0 3,-1 1,4 3,0 0,6 -3,-1 -2,3 -3,2 -1,5 -2,3 6,-2 2,-3 3,1 1,-4 3,-3 2,6 2,6 1,6 -2,4 -1,4 1,5 -1,7"/>
    <path style="fill:none;stroke:#000000;stroke-width:1"
          d="m 531,127 -3,3 -2,3 -2,3 -1,4 -4,-1 -3,2 0,4 5,-1 0,4 -2,3 -1,4 -2,3 -1,3 1,3 -3,0 -2,4 -3,2 -1,-6 2,-2 1,-2 1,-4 3,-3 0,-5 -4,-1 -2,3 -2,5 -4,-1 -2,3 4,1 -1,4 -1,4 -4,0 -3,1 -1,3 -4,-2 -3,1 3,3 -3,2 -1,3 -4,2 3,2 3,2 3,0 3,-3 -4,-2 3,-2 3,-2 3,-2 4,-1 1,5 -2,2 -4,0 2,4 -4,2 -1,3 -4,1 -3,-1 -4,1 -1,-4 -3,3 -3,1 1,3 -4,-2 -1,2 -3,0 0,3 -1,2 1,4 -2,2 -3,0 -1,2 -4,0 1,-3 2,-2 3,-1 0,-3 0,-3 -3,-1 1,-2 0,-3 -2,-1 -3,0 -3,1 4,2 -1,2 -2,-1 -1,2 -3,1 -2,2 -2,1 1,3 -1,2 -2,-1 0,3 -1,2 -1,2 -2,2 -1,2 -1,1 1,3 -1,1 -1,2 -1,2 -2,2 3,1 -1,2 -1,2 0,3 3,0 1,-2 3,0 1,-3 -3,0 0,-3 0,-3 2,-2 0,-3 2,1 2,-2 -3,-2 2,-1 1,-1 1,-2 1,-2 1,-2 1,-2 0,-3 2,-1 1,-2 3,0 3,-1 1,3 -3,1 -2,2 -1,2 -1,2 -1,2 -1,2 -1,2 -1,2 0,3 -2,2 -1,2 -2,1 -1,2 3,1 3,-1 1,-2 1,-2 1,-3 1,-2 1,-3 2,-2 2,1 3,-1 0,3 -2,2 -2,1 -1,3 -2,1 -1,3 -1,2 -3,2 -2,1 -2,2 2,1 -2,2 -3,0 -1,2 -1,1 -3,0 -3,1 0,-3 -3,1 -3,0 -1,3 -1,2 -3,0 0,-3 2,-2 -2,-1 2,-2 3,0 3,0 1,-2 0,-3 -3,0 -1,2 -3,0 0,-3 0,-2 1,-3 -2,-1 -3,0 1,3 -3,0 -1,1 -3,0 -1,2 -2,2 -3,1 -1,3 0,3 -1,2 -1,2 -1,2 -1,2 -2,-4 -1,2 -1,3 2,1 0,3 -1,2 -1,2 -1,2 -1,2 -2,2 -3,1 -3,0 -2,1 1,3 -2,1 -3,1 1,3 -1,2 -1,2 -2,-4 -2,2 1,3 -2,1 -1,2 1,3 -1,2 -1,2 -2,1 1,3 -3,-1 0,3 -2,1 -3,0 1,3 -1,2 4,1 1,-2 1,-1 3,-1 1,-2 2,-2 1,-3 1,-2 2,-2 -2,-4 2,-2 3,0 1,-2 2,-2 -1,-3 1,-1 3,-1 1,-2 1,-2 2,-1 3,-1 3,1 -2,2 -1,1 -2,2 -2,2 -3,1 2,2 -2,2 3,3 2,-2 0,-3 1,-2 3,-1 0,3 -1,3 2,1 3,0 3,-1 3,-1 1,-3 0,-3 1,-3 1,-2 1,-2 2,-1 3,0 3,-1 0,3 -2,1 -3,0 -1,2 0,3 -1,1 -1,2 -1,3 4,-1 3,0 2,-1 3,0 0,-3 -3,0 -3,1 0,-3 2,-1 3,0 1,-2 0,-3 2,1 3,0 0,-3 -3,0 1,-3 -3,0 -2,1 -1,-3 2,-1 3,0 -1,-3 3,0 3,-1 0,3 -2,1 1,3 3,-1 0,3 -1,2 1,3 -1,2 -3,0 -2,1 0,2 3,0 3,0 2,-2 1,-3 3,0 3,-1 3,-1 2,-2 3,-1 0,-3 -3,1 0,-3 3,-1 1,-2 1,-2 -1,-3 -3,1 -1,3 -3,0 -1,2 1,3 -1,1 0,3 -3,0 -1,2 -3,0 0,-3 1,-2 3,0 0,-3 -3,0 -3,0 0,-3 3,0 1,-2 2,1 4,-2 1,-2 3,-1 2,-1 3,0 0,-3 -3,-1 -3,1 -2,2 -3,1 -2,1 0,2 -4,-1 -2,2 -3,0 -2,-1 -1,2 -3,0 -3,1 0,2 -3,0 -1,2 -1,1 1,3 -1,1 -3,0 -3,1 -2,1 -2,2 2,1 -1,3"/>
    <path style="fill:none;stroke:#000000;stroke-width:1"
          d="m 413,261 -1,2 -1,2 0,3 -3,1 -1,-3 0,-3 0,-2 2,-1 0,-3 1,-3 -3,0 -3,1 1,-3 2,-1 0,-3 1,-3 2,1 0,-3 1,-2 1,-2 1,-2 1,-2 0,-3 0,-3 2,-1 2,-2 3,-1 1,-1 3,-1 0,3 -1,2 -3,0 0,2 -3,0 -1,3 0,2 3,1 0,-3 3,-1 0,3 0,3 -1,2 -3,1 0,-2 -3,-1 0,3 -1,2 -2,2 2,1 -2,2 -2,1 -1,2 3,1 3,-1 1,-2 2,1 0,-3 -1,-3 3,0 3,-1 2,-2 1,-1 3,0 2,-2 1,-3 2,1 1,3 2,-1 2,-1 1,-1 3,0 3,-1 1,-2 3,-1 3,-1 0,-3 1,-2 3,-1 1,-2 1,-2 2,-2 1,-2 2,-2 1,-2 2,-2 3,0 -1,3 -1,3 -2,2 -1,3 -2,2 -1,2 -1,2 -4,0 -1,3 3,0 1,4 2,-1 1,-3 2,-2 2,-2 2,-1 0,-3 2,-2 1,-1 0,-3 1,-2 2,-1 2,-2 2,-2 1,4 -2,2 -2,2 0,4 0,3 -3,0 1,3 4,0 3,-1 2,-1 2,-2 -3,-1 -3,1 0,-3 2,-2 3,-1 3,0 0,4 3,2 1,-3 1,-3 2,-2 4,-2 3,-1 3,-1 -4,-3 4,-1 0,-4 -4,0 -4,-2 0,4 -1,3 -2,3 -4,0 -1,2 -4,0 0,-5 3,-2 3,-1 0,-3 2,-1 1,-4 -4,-1 -4,1 0,4 -2,2 -3,2 0,-4 1,-3 -4,-1 0,3 -1,2 -1,2 0,3 -1,1 -1,2 -3,-3 -4,-1 2,-2 3,0 1,-3 0,-3 1,-1 0,-3 3,0 3,0 2,-1 1,-3 4,1 4,0 4,2 1,-3 4,0 1,-4 4,0 0,-5 4,-1 0,-4 3,-1 3,-2 1,-4 2,-2 4,0 1,3 -3,2 0,4 4,1 0,-3 3,-1 3,4 -1,3 -3,2 -6,-1 -4,0 -2,2 -2,4 -3,-1 -1,5 -4,0 -4,3 -1,4 3,0 4,-2 1,4 4,1 -1,4 -1,4 0,5 3,0 2,-2 1,-4 0,-5 5,-1 2,-4 2,-4 -6,-1 -3,4 -4,-1 3,-4 4,-4 4,0 4,0 5,2 -1,6 -1,5 -2,4 -2,4 -5,-2 1,5 1,5 -3,2 -2,-4 -2,4 -4,0 -4,-2 -4,0 -3,2 -2,1 -1,3 -2,1 1,4 1,4 -2,3 -4,2 -1,3 5,0 -2,3 0,4 -2,-1 -2,2 -1,3 4,1 -2,3 0,4 -1,3 -2,2 -1,3 -1,3 -1,3 -1,3 0,3 -1,2 -2,2 -1,2 -1,4 -1,3 -1,3 -1,4 -2,-1 -2,-4 2,-1 1,-3 1,-3 -4,0 -1,3 -2,2 1,4 -3,1 -3,1 -1,4 -3,3 -2,2 -3,1 -3,1 -3,0 -1,3 0,3 1,3 3,-1 -1,-3 1,-2 3,-1 0,4 3,-1 1,-3 4,-1 1,-3 3,-2 2,-2 1,-3 2,1 4,1 0,3 -3,0 -1,3 -3,1 1,5 3,-2 2,-2 3,0 1,-3 2,4 -1,3 2,3 -1,3 0,3 0,4 -3,-2 -2,1 -3,3 -3,0 -1,3 -2,2 -1,2 -3,1 -3,0 -1,1 -1,2 5,1 -2,1 -2,2 -1,2 -1,2 -1,2 -1,2 0,3 -3,1 -1,2 -2,2 -2,2 0,4 -3,1 -1,-3 1,-2 1,-3 2,-2 0,-3 2,-1 3,0 0,-3 1,-3 1,-2 1,-2 0,-3 -3,1 -2,1 -3,1 -1,2 4,0 -1,2 0,3 -3,1 0,-3 -3,0 0,-3 0,-3 1,-2 2,-1 3,0 3,-1 3,-1 0,-3 1,-2 2,-2 1,4 2,-2 2,1 1,-2 1,-2 1,-2 0,-3 4,1 2,-2 2,-3 3,1 1,-3 -2,-4 -2,2 -4,2 -3,3 -1,-3"/>
    <path style="fill:none;stroke:#000000;stroke-width:1"
          d="m 465,319 -1,-4 -3,1 0,3 0,3 0,3 -1,3 -3,0 0,-3 1,-3 -1,-4 -2,2 -1,2 -3,0 -3,0 -1,2 0,3 -3,0 1,3 -2,1 -1,3 3,0 3,-1 0,-3 2,-4 3,-1 0,3 -1,2 -1,3 0,3 -3,0 -2,1 -3,0 -3,0 -1,-3 0,-3 1,-2 1,-2 -1,-3 3,0 -1,-3 2,-1 -1,-3 0,-3 0,-3 1,-2 1,-2 2,-1 3,0 3,-1 1,-1 3,-1 -3,-2 3,-1 1,-3 2,-2 3,0 1,-2 1,-3 2,-2 1,-2 3,-1 1,-2 3,1 1,-3 2,-1 1,-2 0,-3 1,-3 1,-3 -3,-2 2,-2 3,1 0,-3 2,-2 1,-2 1,-2 0,-3 -3,0 -1,2 -2,3 -2,2 -3,1 -2,1 -1,3 -3,0 -2,1 -2,3 3,0 3,3 1,-3 3,-1 0,4 -2,3 -2,1 -1,2 -3,1 -1,2 -2,-1 -1,2 0,3 -3,1 0,3 -3,1 0,-3 0,-3 3,-1 -2,-3 1,-1 2,-2 3,-1 3,-1 0,-3 -3,1 -3,1 -3,1 -2,-1 -1,2 -1,2 1,3 -2,2 1,3 -1,2 2,4 -2,2 -1,2 -3,0 0,3 -1,2 -3,0 0,-4 1,-3 2,-1 2,-2 0,-3 -1,-3 0,-3 1,-2 1,-2 0,-3 1,-2 -2,-3 0,-3 1,-2 1,-2 1,-2 3,-1 3,0 0,3 -3,0 2,4 -3,-1 -1,2 -1,2 3,1 3,0 2,-2 1,-3 2,-2 -1,-3 1,-2 3,3 2,-2 2,-2 2,-1 3,-1 2,-2 1,-2 1,-2 3,-1 1,-2 0,-3 2,-2 -5,-1 0,-3 2,-1 3,0 -1,-3 3,0 2,-1 1,-2 0,-4 -3,-1 -2,2 -2,2 -3,3 0,-3 -3,1 -4,0 -3,-2 -1,1 -2,2 -3,1 2,3 1,3 1,3 -3,1 -2,2 -1,-4 1,-2 -1,-3 -2,2 -2,2 1,3 1,3 -3,1 0,3 -1,3 3,0 2,-3 3,1 1,-3 3,2 2,-1 -2,-3 2,-1 2,-2 -1,-4 -2,-3 1,-2 3,1 3,0 -1,3 1,3 -1,1 0,3 4,0 -1,2 -4,1 0,3 -2,2 -3,0 -2,1 -1,3 -3,-3 -1,2 -3,1 -2,-1 -3,1 -3,0 -2,2 -2,1 0,3 -2,1 -1,-3 -3,0 1,3 -3,0 -1,2 0,3 3,-1 2,-1 3,0 0,3 -2,1 -3,0 -2,2 -1,1 0,3 -1,2 -2,1 5,2 1,-2 1,-2 1,-2 1,-2 3,-1 0,3 -1,3 -2,3 1,3 -2,1 2,3 -3,0 -1,2 -2,1 -3,1 -2,3 -3,0 0,3 -2,2 -1,2 1,3 -1,3 -2,3 -3,1 -2,1 -1,2 3,1 3,-1 2,-1 1,3 -3,1 -2,2 -2,1 -1,3 -2,4 -2,1 1,3 4,1 0,3 -1,2 -3,-1 -1,3 -3,-1 -2,2 -2,3 -3,-1 -1,3 -3,0 -3,1 -2,2 -2,2 0,3 -1,1 -3,0 2,3 -3,0 -1,1 -1,2 -3,1 -2,1 1,-4 1,-2 1,-2 1,-2 2,-2 2,-1 1,-3 2,-2 2,-3 4,0 1,-2 3,-2 3,0 2,-2 4,-1 0,-4 -4,1 0,-4 3,0 1,-2 3,-1 1,-2 1,-2 1,-3 -3,0 -2,2 -1,2 -3,2 -1,-3 1,-2 1,-1 0,-3 2,1 3,-1 0,-3 -3,0 0,-3 -3,1 -1,1 -1,2 -1,3 -1,2 -1,3 2,3 -3,0 -1,3 3,1 -1,3 0,3 -3,0 -2,2 -4,2 -3,-1 -1,3 -2,2 -2,2 -1,3 -2,2 -2,2 -1,3 -1,1 0,3 -2,3 -3,1 -3,-1 -3,1 -2,1 -2,2 -3,1 -1,2 0,2 0,3 3,0 1,-2 0,-2 1,-1 2,-2 3,1 1,-2 3,0"/>
    <path style="fill:none;stroke:#000000;stroke-width:1"
          d="m 379,367 4,0 1,3 3,-1 3,0 2,-2 2,-2 3,1 0,-3 3,0 0,-2 2,-1 0,-3 2,-1 1,-3 4,-1 0,3 -1,3 -2,2 -1,3 -1,2 -3,1 4,2 -2,2 -3,0 -4,0 -2,3 -1,2 -3,0 0,-3 -3,0 -1,2 -2,-1 -3,0 0,-3 -3,0 -1,2 -3,-1 -1,2 2,2 0,3 -1,2 -2,-4 -1,1 -3,1 1,3 2,-1 1,3 -3,1 -2,2 -1,3 -1,2 -1,3 -3,0 -3,-1 1,-2 3,0 0,-3 -3,0 -3,0 -1,2 -1,1 -1,2 -1,2 -1,2 -3,0 -1,2 -2,2 -3,1 0,-3 1,-2 1,-1 2,-2 3,0 1,-3 1,-2 -1,-3 3,0 2,-1 3,0 0,-3 3,0 0,3 3,0 1,-2 1,-2 -1,-3 -2,2 -3,-1 1,-2 1,-2 0,-3 -1,-3 0,-2 2,-1 3,-1 1,-2 1,-3 3,0 3,-1 3,0 3,0 1,-1 -1,-3 2,-2 -2,-3 -2,1 -1,2 -1,3 -3,0 1,-3 -1,-4 2,-2 2,-2 2,1 0,-4 -1,-3 1,-2 1,-2 2,1 2,-2 1,-2 1,-2 3,0 3,-1 0,-3 3,0 2,-2 3,-1 0,3 -2,2 -2,1 -1,2 -3,1 -3,1 -1,2 -2,2 -1,3 -3,0 1,4 0,3 1,3 3,-3 -1,-4 3,-1 1,-3 2,-2 3,-3 4,2 0,-3 2,-1 3,0 -2,-3 1,-3 1,-2 -2,-3 3,0 1,-2 1,-2 1,-2 0,-3 1,-2 3,-1 1,-3 -3,0 2,-4 2,-2 3,0 1,-3 1,-3 3,-1 2,-1 -2,4 3,-1 1,3 -2,2 -3,0 1,4 -3,-1 -3,1 0,4 3,-1 3,1 -2,3 2,1 3,-1 1,-2 0,-3 0,-3 2,-2 2,-3 -2,-3 1,-2 3,0 3,0 2,-3 3,-1 1,-3 -2,-1 -3,0 -1,2 -2,2 -3,0 -3,1 -3,-2 -2,1 -3,1 -3,0 -1,3 -1,2 -2,2 -2,2 -2,2 -1,2 0,3 -1,1 -1,3 -1,1 0,3 -1,2 -1,2 -2,-1 -2,2 -1,2 -3,1 -1,1 -3,1 -1,3 -3,0 -3,1 -2,1 0,3 -3,-2 -1,2 -1,2 -1,2 0,4 -1,1 -1,2 -1,2 -2,2 1,4 -1,2 0,3 -3,0 -2,3 -2,2 -1,2 -2,1 -1,-4 -2,2 -1,1 -2,1 -3,2 -2,2 -3,0 0,3 -2,1 2,2 -3,1 0,3 -1,2 1,3 2,-1 1,-2 0,-3 3,0 0,3 3,-1 0,-3 0,-2 -3,0 0,-3 3,0 1,-2 2,1 0,-3 2,-1 1,3 1,3 -1,1 -3,0 0,3 3,0 -1,3 -2,1 0,2 -3,0 -2,1 -2,1 -3,1 -3,0 -3,1 -1,2 -2,1 -3,0 1,3 -3,0 -1,1 -3,0 0,3 3,0 3,0 -2,3 -3,1 -1,3 0,3 -1,2 -2,2 0,3 0,3 -2,2 -1,2 -2,2 -2,1 0,4 -2,2 -3,1 -3,0 -2,-4 3,0 2,-2 1,-3 0,-3 4,0 1,-2 2,-2 -4,-2 1,-3 3,1 0,-3 0,-3 3,2 0,-3 1,-3 0,-3 -3,0 0,3 -3,0 -2,1 0,3 -2,2 -1,4 0,4 -2,-1 -2,2 0,3 0,3 -3,1 -3,-3 -4,0 0,-3 3,-1 3,1 1,-3 1,-2 2,-2 1,-2 0,-3 2,-2 1,-4 3,-1 1,-1 0,-3 1,-1 -1,-3 0,-2 1,-1 3,-1 0,3 0,3 0,3 3,0 0,-3 0,-3 0,-3 -1,-3 3,0 1,-3 2,1 0,-3 1,-2 1,-2 1,-2 1,-2 1,-1 1,-2 1,-2 1,-2 0,-3 2,1 0,-3 2,-1 4,-1 1,-2 2,-1 1,-2 2,-2 4,1 0,3 -2,-1 -1,2"/>
    <path style="fill:none;stroke:#000000;stroke-width:1"
          d="m 352,353 -2,2 -1,3 -2,2 -2,-1 -3,1 2,2 -3,1 -1,2 -1,2 -1,2 -1,2 0,3 -2,-1 -1,2 0,2 -2,2 3,1 -2,2 -1,1 -3,0 -1,2 -1,2 0,3 3,-1 1,-3 3,0 2,-2 2,-1 1,-1 -1,-3 1,-1 1,-2 0,-3 1,-2 1,-2 1,-2 1,-2 3,0 1,-1 2,-1 1,-1 2,-2 1,-3 2,-1 2,-2 3,3 1,-2 2,-1 3,-1 0,-3 0,-3 -3,1 0,3 -3,1 -3,-1 1,-2 2,-1 0,-3 2,-2 2,1 3,0 1,-2 -3,-2 3,-1 1,-1 2,-2 0,-3 2,-2 1,-3 3,-1 1,-2 3,0 2,-1 3,0 1,-3 2,-1 3,-1 1,-2 2,-1 3,-2 2,-2 0,-3 2,-2 -1,-3 1,-2 -1,-3 1,-2 3,1 2,-2 1,-2 2,-2 1,-2 1,-2 0,-3 3,-1 0,3 3,-1 3,-1 1,-2 1,-3 -2,-1 1,-3 3,-1 1,3 2,-4 3,-1 2,1 -2,2 -2,1 0,3 -3,2 0,4 3,-1 2,-2 2,-2 1,-3 2,-2 -1,-4 1,-2 0,-3 -3,1 -2,-1 0,3 -3,1 -3,1 -3,0 -3,0 -1,2 0,3 -1,2 1,3 -3,-1 -3,0 0,-3 2,-2 0,-3 -3,1 -2,1 -1,3 1,3 -1,2 0,3 -1,1 0,3 -2,2 -3,-1 1,3 -3,0 -2,2 -2,1 0,-4 1,-2 1,-2 3,-2 3,1 -1,-3 1,-3 1,-2 -3,-1 2,-2 1,-2 -4,-1 -1,2 -3,0 0,4 2,-1 1,3 -1,2 -2,1 -2,2 -2,3 0,4 -1,3 -2,2 -1,3 3,1 -1,2 -3,0 -1,3 -2,-1 -1,2 -1,3 3,0 3,-1 1,-2 2,1 1,-2 2,-2 0,-3 -1,-3 4,0 0,3 0,3 -1,3 -1,2 -1,2 -3,1 -3,0 0,3 -3,1 0,-3 -3,0 0,3 1,3 -3,0 -3,1 0,-3 1,-2 1,-1 -1,-3 1,-2 1,-2 0,-3 -4,2 -1,2 0,3 -1,2 -1,2 -2,2 3,1 -1,2 0,3 -3,1 -1,2 -1,1 -1,2 0,3 -1,1 -2,2 -3,1 -1,1 -2,2 -2,2 -1,3 -3,0 1,-3 1,-3 -3,0 0,-3 0,-3 1,-2 1,-2 2,-1 2,-1 -3,-2 3,-1 1,-2 1,-2 0,-2 1,-2 2,1 0,-4 1,-2 1,-2 1,-2 1,-2 3,0 0,3 -1,2 -1,2 -1,2 -1,2 0,3 -2,2 -1,2 -2,2 0,4 -1,2 -3,0 -1,2 -1,3 3,0 2,-2 3,-1 1,-2 0,-3 1,-2 2,-2 1,-2 2,-1 -1,-3 1,-3 2,-2 1,-3 0,-3 1,-2 3,-1 1,-2 1,-2 2,1 3,-1 0,3 2,-2 1,-3 1,-3 -3,-1 2,-2 0,-3 3,2 0,-3 1,-2 -1,-3 3,0 2,-2 -3,-1 1,-2 1,-2 0,-3 -3,0 -2,2 -1,1 0,3 -2,2 0,4 -2,1 -2,2 0,3 0,3 1,3 -3,0 -1,-3 -1,-3 -2,3 0,3 -1,2 -1,2 -2,1 -3,0 1,-3 1,-2 2,-2 -2,-1 -3,1 -2,-1 0,3 0,2 -1,2 -1,1 -1,2 -1,2 -1,2 -1,2 -1,2 -1,2 -1,2 -3,-3 1,-2 1,-2 1,-2 1,-2 1,-2 1,-2 -3,-1 2,-2 1,-2 2,1 0,-3 1,-2 3,-1 0,-3 0,-2 1,-3 3,0 -1,-3 -3,0 0,-3 1,-2 1,-2 -1,-3 2,-2 3,-1 0,4 -1,1 0,3 -1,3 2,1 2,-2 1,-2 1,-2 -1,-3 1,-2 1,-2 1,-2 2,-2 2,-1 1,-3 1,-2 3,1 -1,-3 0,-3 0,-3 2,-1 1,3 0,3 3,-1 1,-1 3,0 1,-2 1,-2 1,-2 2,-2"/>
    <path style="fill:none;stroke:#000000;stroke-width:1"
          d="m 402,244 -2,-1 -3,1 -1,2 -1,2 -2,1 -1,-3 -2,-1 2,-2 2,-1 3,-1 2,-1 2,-2 -3,-1 2,-2 2,-1 2,-1 3,0 1,-3 -1,-3 1,-1 1,-2 3,-1 2,-2 1,-2 3,-1 3,-1 -2,-2 1,-3 3,-1 -1,3 3,0 1,-2 1,-2 3,-2 0,-3 2,1 0,-3 1,-2 1,-2 3,0 2,-1 0,4 -1,2 -2,-1 -1,2 0,3 -1,2 -1,2 -2,-1 -1,2 -1,2 3,1 0,2 -1,3 3,0 1,-3 0,-3 2,1 0,-3 1,-2 0,-3 2,-2 2,-2 0,-3 2,-1 -2,-2 1,-2 3,0 0,-3 1,-2 3,0 1,-2 2,-1 0,-3 1,-2 1,-1 3,0 1,-3 -3,0 -3,0 1,-3 -3,-1 -1,2 0,3 0,2 -2,1 -1,2 3,1 -3,2 -3,0 -1,2 0,3 -3,1 -2,1 -2,1 -3,0 -2,-2 2,-1 1,-1 3,0 3,-1 0,-3 2,-2 2,-1 1,-3 0,-3 2,-1 0,-3 -3,1 0,-3 -3,3 1,3 0,3 -2,-1 -1,2 -1,2 -1,2 -1,2 -3,0 -3,1 -2,2 -3,-1 -1,2 -1,2 -1,2 -1,3 -3,1 2,1 1,3 2,-1 1,-4 2,-2 1,-2 2,-1 1,3 -1,2 -1,2 -2,1 1,3 -1,1 -2,1 -3,0 -2,-1 -1,2 -1,2 -1,2 0,3 -3,0 0,-3 -3,1 1,4 -1,1 -1,2 -3,1 -2,2 0,3 1,3 -3,0 -3,0 -1,2 -2,2 -1,3 -1,2 -3,1 0,-3 1,-2 1,-2 1,-2 0,-2 2,-1 2,-1 3,0 0,-3 -3,0 -3,0 -2,2 -3,0 -1,1 1,3 -1,2 -1,2 0,3 0,2 -3,0 0,-3 -3,0 -1,2 -1,2 -2,2 -2,2 -1,-3 1,-2 1,-2 1,-2 1,-2 3,0 3,0 1,-2 1,-3 -3,0 -2,2 -1,-3 1,-2 3,0 1,-2 1,-2 -3,-1 -2,2 -3,0 -1,2 0,3 1,3 -3,0 -1,1 0,3 -2,1 -1,-3 -1,-3 1,-1 3,-1 1,-2 -3,-1 -3,1 -2,1 -3,0 -3,0 -1,2 -1,2 -1,1 -2,1 -2,1 1,3 -1,2 -2,-1 -3,1 0,3 3,-1 1,3 2,-1 2,-1 1,-2 0,-3 1,-2 3,-1 1,3 -1,1 -1,2 -1,3 -2,2 3,2 2,-1 0,-3 1,-2 2,-2 0,-3 -1,-3 -2,-1 1,-2 3,0 1,3 1,3 0,3 3,0 -1,3 -3,0 -1,2 -1,2 0,3 -3,0 -1,3 -3,0 0,-3 -3,1 0,-3 -3,0 0,3 0,3 -1,2 -1,2 -1,1 -1,2 1,3 -3,-1 -1,4 3,1 4,0 1,-2 -1,-3 1,-2 1,-2 1,-2 1,-2 3,1 -1,3 1,3 -3,0 0,3 3,0 3,0 0,-3 0,-3 1,-2 1,-2 2,-1 2,-2 0,-3 1,-2 2,-1 1,3 0,3 -1,2 -1,2 -2,2 -1,2 -2,1 0,4 1,-1 3,0 2,-2 1,-2 2,-2 1,-3 3,-1 -3,-3 1,-2 2,1 0,-3 2,-2 1,-2 2,1 3,0 -1,3 -3,1 -1,1 1,3 -1,1 0,3 -3,1 0,3 -2,2 -2,2 -1,2 -2,1 -3,1 -3,1 -2,2 0,3 -1,3 -1,2 0,3 2,3 -1,2 -1,2 1,3 -3,-1 -1,2 -1,3 -2,2 -1,2 -1,3 1,3 -2,1 0,3 -1,2 -1,2 -1,1 -1,2 0,3 2,2 1,-3 2,1 2,2 -1,2 -2,1 -1,2 -1,2 -1,2 -1,2 0,3 -3,0 -2,2 -1,4 3,-1 2,-2 1,3 1,3 -1,2 -2,1 -1,-4 -2,2 -3,-1 -1,2 0,3 3,-1 2,1 -2,2 -2,1 -1,2 -3,-3 -1,2 -2,1"/>
    <path style="fill:none;stroke:#000000;stroke-width:1"
          d="m 335,353 -1,3 -2,2 2,2 -2,1 0,3 -2,-1 -3,0 -2,1 -2,1 -1,-3 1,-3 2,1 3,0 1,-2 -3,-1 -3,-2 -3,1 0,3 -1,2 -2,1 2,2 -3,1 0,2 3,0 3,0 0,3 -1,3 3,0 1,-2 0,-3 2,-2 3,0 -1,3 -1,2 -1,3 -2,2 -1,3 -3,0 1,-3 -3,0 -1,1 0,3 2,2 -3,1 -3,1 -1,2 -1,2 -3,0 -2,-1 -1,2 -3,-3 1,-3 2,-2 1,3 3,0 -1,-3 3,0 1,-2 2,1 0,-3 0,-3 3,-1 1,-3 -3,0 -2,1 -1,-3 -3,0 1,-3 2,-1 0,-3 1,-1 0,-3 3,1 -1,-4 0,-3 3,1 3,-1 1,-2 2,-1 -1,-3 -2,1 -3,-1 0,3 -3,0 0,-3 0,-3 -2,1 -1,3 0,3 -1,2 -1,3 0,3 -1,2 0,3 -3,0 0,-3 0,-3 1,-2 -1,-3 1,-2 1,-2 1,-2 1,-2 -1,-3 3,0 0,-3 -3,0 -2,-2 -3,1 2,2 -1,3 2,1 -2,2 -1,2 -1,2 -1,2 -3,-1 -1,2 -1,3 -1,3 -1,2 -1,2 -3,1 -1,2 -1,1 -1,2 -1,2 0,3 -2,-1 -1,2 -1,2 0,3 3,-1 2,-2 2,-1 0,-3 2,1 0,-3 1,-2 1,-3 2,2 1,-3 1,-3 1,-3 1,-2 1,-2 3,0 -1,3 0,3 -2,1 2,2 -3,1 -1,3 3,0 2,-1 3,0 -1,3 -1,1 -3,0 -1,3 3,0 3,0 3,-1 1,3 -1,2 -2,-1 0,3 -3,0 0,-3 -3,0 0,3 -1,2 -1,3 -1,3 -3,0 -1,-3 1,-2 1,-2 1,-2 1,-2 -1,-3 1,-3 -3,0 -1,2 0,3 -1,2 -1,1 -1,2 -3,0 2,3 1,3 -2,2 4,1 -2,2 -2,1 -1,2 -1,3 -2,2 1,4 -2,2 -2,2 -2,2 -2,1 -1,2 4,2 -3,1 -3,1 -3,0 -3,1 -1,4 4,0 3,-1 2,4 2,-1 0,-3 1,-2 3,0 2,-2 2,-2 -3,-2 2,-2 2,-2 2,-2 3,-1 3,3 2,-2 1,-3 -3,-1 -3,0 -4,-1 2,-3 1,-3 2,-2 3,-1 1,-2 3,0 1,3 -2,1 -3,1 -1,3 4,2 1,-3 4,-2 1,-2 3,-1 3,-1 -1,3 -2,2 -1,3 -3,0 0,3 -1,3 -1,2 -1,1 -1,2 -1,2 -3,0 -4,-2 -3,2 4,2 -2,2 -3,1 4,3 0,3 -3,-1 -1,2 -3,-3 -3,1 0,3 -2,2 -3,1 -3,1 -1,-4 -3,1 -2,2 -2,2 -3,3 -4,2 -3,2 -1,-3 -3,1 1,3 -2,2 -2,-3 -1,3 0,2 -3,1 -1,2 -3,0 -1,2 -1,2 0,2 -3,1 -1,3 -3,2 -3,2 -2,2 -2,-1 -1,3 -2,5 4,0 -1,3 -2,1 1,5 4,-1 1,-4 3,-3 -3,-1 1,-3 4,2 0,-3 1,-2 2,-2 2,-2 2,-2 2,-1 0,-4 1,-2 3,-1 1,-3 2,4 2,-2 0,-3 2,-2 4,0 -1,4 0,4 -3,2 -4,1 -3,-1 -1,2 1,3 -4,2 -2,3 -2,2 0,4 -1,3 0,4 -3,-1 -1,3 0,3 4,-1 1,4 0,3 -2,2 0,3 -1,2 -3,-1 -3,0 -1,2 4,1 0,3 -3,0 2,3 -3,0 -2,2 -1,3 -1,2 -1,2 -3,4 5,0 2,-3 2,-3 0,-3 3,-1 3,-1 0,-4 1,-3 3,-1 1,-3 1,-3 1,-3 0,-4 -1,-4 4,1 2,-2 3,0 0,-3 0,-4 -4,1 -4,3 0,-4 2,-4 3,-2 2,-1 5,2 2,-3 -4,-2 2,-3 4,-1 2,-2 0,-4 2,-2 -1,-4 1,-3 2,-2 3,-2 0,-3 3,-3 1,4 2,-2"/>
    <path style="fill:none;stroke:#000000;stroke-width:1"
          d="m 277,432 3,-1 2,-1 -2,4 -2,2 -2,2 -2,1 -2,2 -2,2 5,0 2,1 -4,2 -2,2 -1,1 -1,2 2,3 -4,0 2,4 -3,0 -3,1 2,3 -2,3 -1,3 -4,0 -1,3 1,3 0,4 -3,2 -3,1 -3,2 0,4 3,1 1,-3 2,1 2,-2 2,-2 3,-1 3,-1 1,-3 -4,0 0,-4 3,-1 2,-2 1,-3 2,-2 0,-3 3,-2 0,-3 3,-1 -2,-4 2,-2 1,-2 4,0 4,0 2,5 -3,0 -4,0 0,4 4,0 0,4 -2,2 -3,-2 -2,3 -3,0 2,4 -3,2 -2,2 -2,2 0,3 4,0 2,-2 2,-1 1,-2 2,-3 1,-3 3,2 2,-2 3,0 2,-4 -3,-1 0,-4 4,0 3,1 2,-3 3,-2 0,-4 2,-2 3,-3 -4,-1 1,-3 1,-3 -3,-2 -2,2 -1,3 -1,3 -1,3 0,4 -3,2 -3,-1 1,-4 1,-3 -4,-2 -2,2 -4,0 -2,-4 3,0 2,-2 0,-3 2,-2 1,-3 1,-2 1,-3 4,2 0,4 -2,2 -1,3 -1,3 3,1 2,-4 2,-4 3,-2 -2,-3 2,-1 1,-3 3,1 1,4 -1,2 0,3 4,0 0,4 0,4 4,0 -1,3 0,3 -2,2 -2,2 -2,2 0,4 -2,2 -2,2 -1,3 -3,-1 -2,3 -1,3 -3,2 -3,1 -1,3 -3,-3 -1,2 -1,3 -1,3 -4,0 -3,2 -4,0 1,5 4,0 3,0 3,-1 3,0 0,3 3,0 1,-2 -1,-4 0,-4 3,1 3,-1 1,4 -2,3 0,3 3,1 1,-2 2,-3 0,-3 0,-3 -1,-3 -3,0 -3,-1 4,-2 3,0 0,-3 1,-2 3,-1 2,-2 1,-2 2,-2 1,-3 2,-2 2,-3 2,-2 4,-1 3,-1 -2,-4 -4,1 0,-4 3,-1 1,-2 2,-2 -5,0 -4,0 0,-3 4,-1 3,0 2,-3 1,-3 1,-2 3,1 -1,-3 2,-2 1,-2 1,-3 0,-3 1,-2 1,-2 0,-3 1,-2 1,-2 2,-2 2,-2 0,-3 1,-2 1,-2 3,-1 1,-2 3,0 3,0 -1,3 -3,0 -1,2 -3,1 -1,3 0,3 -1,2 -2,1 -1,2 -1,2 -1,2 0,3 -1,2 0,3 1,3 -3,-1 0,3 -2,2 0,4 3,0 1,-3 2,1 1,-3 2,-1 3,0 1,3 -3,1 -1,2 -2,2 -3,1 -3,1 -4,-2 -1,2 -1,2 1,3 -1,3 0,3 -1,3 2,4 0,3 -4,1 -2,1 -4,1 0,3 -3,2 -2,3 -2,4 -3,3 -3,1 0,4 -1,2 1,4 2,-2 2,-2 0,-3 4,-2 2,-5 3,-2 2,-2 3,-1 0,-4 5,-2 -1,4 4,0 3,0 2,-1 3,0 4,-1 0,-3 4,0 1,3 -1,3 -3,1 -4,1 -3,2 -3,-1 -3,0 -4,0 -3,2 -2,2 -3,2 -2,2 -1,3 -3,1 -1,3 1,3 -3,0 -2,2 -3,2 -2,2 -1,2 -1,2 -3,0 -1,2 -1,2 -3,1 -1,3 -1,3 -3,1 0,-2 1,-2 1,-3 -3,0 1,-3 3,0 2,-1 2,-2 -2,-1 -3,1 -3,0 -3,0 0,-3 -3,1 -3,0 -3,1 -1,3 3,0 3,-1 2,1 3,1 -1,2 0,2 1,3 0,3 -1,2 0,2 3,-1 3,0 -1,3 -2,1 -3,0 -1,2 -3,0 0,-3 1,-2 -4,2 0,-3 1,-2 3,0 0,-3 1,-1 -1,-3 -1,-3 -2,1 -3,0 -3,2 3,1 3,0 0,3 -3,1 -2,4 -2,1 -3,0 -1,2 3,1 3,0 -1,3 3,0 2,-1 0,3 -1,4 4,-2 1,-2 2,3 1,-3 2,1 0,-3 3,1 1,-2 3,-1 2,-1 3,0 0,-3 -3,0 -3,1 1,-3 1,-2"/>
    <path style="fill:none;stroke:#000000;stroke-width:1"
          d="m 290,505 1,-2 0,-3 3,-1 2,-1 1,-2 3,-1 1,-1 3,-1 -2,-2 3,-1 2,-2 3,-1 3,0 2,-4 -3,0 0,-3 3,-1 1,-2 2,-2 2,-2 3,-2 1,-2 3,-1 4,2 -2,3 -2,3 -4,-1 -1,3 -1,2 -1,2 -2,2 -1,2 -1,2 -2,3 -3,0 0,3 -3,-1 -1,2 -3,1 -1,2 -3,0 -1,2 -1,2 -3,0 -1,1 -1,3 3,0 1,3 2,-1 0,-3 2,-1 1,-2 2,-1 3,0 0,-2 1,-1 3,2 0,-3 3,-1 2,-1 2,-1 3,2 3,-1 1,-2 2,1 3,-1 1,-2 0,-3 1,-3 -4,0 -1,2 0,3 -3,-2 -1,2 -2,2 -3,-1 2,-2 1,-3 3,-1 1,-3 3,-1 3,-1 2,-3 2,-3 1,-3 2,-2 3,-2 3,1 3,-2 1,-3 0,-4 2,-1 3,0 1,-3 2,1 3,-1 2,-2 4,2 -2,2 -1,3 -2,-1 -4,1 -3,2 0,3 -1,4 -3,2 -3,2 -4,-1 -2,3 -2,3 -2,2 -1,3 0,4 3,1 1,-3 1,-3 3,0 -1,-3 1,-1 2,-2 2,4 2,-3 3,-2 2,-2 1,-4 2,-1 1,-3 2,-2 3,1 3,0 0,-3 1,-2 2,-2 0,-3 -3,-2 2,-2 3,-1 0,3 3,-1 1,-2 3,-1 2,-2 0,-3 1,-2 0,-3 1,-2 3,-1 1,3 -1,2 -1,2 -1,3 3,1 1,-2 2,-2 1,-2 1,-2 3,-1 1,-3 1,-3 -1,-4 2,-1 -2,-3 3,0 0,-3 -1,-3 -2,1 -3,-2 -2,1 2,4 -1,3 -2,3 3,3 -1,4 -3,0 1,-3 -4,1 1,-3 -3,0 -1,3 -2,-1 -1,3 -1,3 0,3 -2,-1 -1,2 -1,2 3,1 -2,2 -3,-1 -3,0 -1,2 -3,1 -2,2 -3,-1 -2,2 -3,1 0,-4 -3,-1 -1,3 -1,4 -3,0 -4,-1 2,-2 2,-1 1,-3 1,-3 -3,-1 -2,2 -2,2 -2,2 -1,3 -3,-1 -1,3 -2,2 -5,0 1,-3 2,-3 -4,-2 2,-2 4,0 4,0 2,-2 1,-2 1,-2 3,0 -2,-3 -4,0 -2,2 -1,3 -3,-3 -1,3 -4,0 1,-4 0,-3 3,0 3,-1 3,0 3,0 -1,-3 3,0 -1,-3 3,0 0,-3 1,-1 1,-2 -1,-3 -3,1 1,-4 2,-2 3,-1 1,-3 -3,-2 -1,2 -3,-1 0,3 -2,1 0,3 -1,2 -3,1 0,-3 1,-2 -1,-4 3,0 -1,-3 2,-2 2,1 3,-1 1,-1 2,-2 2,-2 3,0 2,-1 1,-1 0,-3 2,1 3,1 -1,2 -1,2 -3,1 -1,2 -3,-1 -1,2 -2,2 2,1 3,-1 0,3 -1,2 -2,1 1,3 -3,0 -2,1 1,3 3,-1 3,-1 0,3 -3,1 -2,2 -1,3 0,3 -2,1 1,3 -3,0 2,3 2,3 3,2 1,-2 2,-1 -4,-2 1,-2 3,1 1,-2 -1,-3 -3,1 0,-3 1,-2 1,-1 1,-2 3,0 0,3 -1,2 1,3 2,-2 1,-3 1,-2 2,1 2,2 -2,2 -1,2 -1,2 -2,1 -1,2 -1,2 1,3 -3,0 0,3 3,1 3,0 1,-2 3,0 2,-2 3,0 1,-2 1,-2 2,-2 0,-3 2,1 0,-3 1,-2 2,-2 2,-1 3,-1 2,-2 2,-3 -2,-1 -4,0 -1,2 -1,2 -3,-3 -1,3 -1,3 -2,-1 0,3 -1,2 -2,1 1,3 -2,1 -1,2 -1,2 -3,1 -3,1 0,-3 3,-1 1,-2 1,-2 1,-2 1,-3 2,-2 0,-3 1,-2 3,0 0,-3 3,-1 2,-1 3,-1 3,0 2,-2 2,-1 1,-3 3,-1 1,3 -2,1 2,2 3,0 3,1 0,2 1,3 3,-1 0,-2 3,0 2,-1 2,-1"/>
    <path style="fill:none;stroke:#000000;stroke-width:1"
          d="m 411,415 2,-1 3,0 1,-2 0,-3 2,-2 0,-3 1,-2 0,-4 2,-2 1,-3 1,-2 1,-1 0,-3 -4,1 -2,2 -1,1 -3,1 4,2 -2,2 -2,-1 -1,2 0,3 3,0 -1,3 -1,2 -1,2 -3,1 3,2 -2,1 -2,1 -3,0 -1,2 -3,0 -2,-1 2,-2 1,-2 3,0 0,-2 1,-1 3,-1 1,-2 -1,-3 0,-3 -2,1 -2,1 1,3 -1,1 -3,1 -1,2 -2,-1 0,3 -2,2 -2,1 -1,-3 2,-2 0,-3 1,-2 -1,-3 -2,1 -1,2 0,3 -1,1 -3,1 0,-3 1,-2 0,-3 2,-2 3,-1 -2,-2 1,-2 -4,0 0,3 -3,1 0,3 -1,2 0,3 -3,0 -3,-1 1,-3 2,1 0,-3 1,-2 -4,-1 -2,2 0,3 -1,2 0,2 -1,2 1,3 3,-1 1,-2 2,1 3,0 -1,3 -3,1 -3,1 -3,1 -4,-1 1,3 -3,0 -1,1 0,3 -2,-1 -3,0 1,3 -1,1 1,3 -1,1 -3,-3 -3,0 -3,-1 1,-2 -1,-3 -2,-1 2,-2 0,-3 0,-3 2,1 0,-3 1,-1 3,0 0,-2 1,-2 0,-3 3,0 1,-2 0,-3 1,-3 2,-1 1,-2 3,0 1,-3 3,0 3,0 -1,-3 -3,0 0,-3 1,-2 2,1 3,0 0,3 3,0 1,-2 2,1 3,0 0,3 -3,1 -4,0 -1,2 0,3 -3,0 -3,0 -1,2 -3,1 -3,1 0,3 -1,2 0,3 0,3 -1,2 -2,-4 -1,2 0,3 -1,2 -3,0 -1,2 -1,2 -1,2 0,3 1,3 2,-1 0,-3 1,-2 3,1 -1,-3 1,-1 3,0 0,-3 3,0 2,1 -1,-4 1,-2 0,-2 1,-2 0,-3 2,-3 4,-1 3,0 3,0 1,-4 3,-1 4,0 0,-4 1,-3 -1,-3 1,-2 3,0 0,3 -1,3 3,0 1,-3 1,-2 3,-1 0,3 -1,3 4,-1 1,-1 1,-2 4,0 2,-2 0,-3 1,-3 0,-3 1,-3 0,-4 -3,-1 0,3 -1,3 0,3 -1,1 -1,2 -1,3 -4,0 2,-4 -3,0 0,-3 1,-2 3,1 -1,-3 2,-1 0,-3 0,-3 -1,-4 3,-1 2,-2 2,-2 3,1 3,0 -1,-3 3,0 0,-3 1,-2 -1,-3 3,-1 1,-2 2,-2 0,-4 -2,1 -2,2 -2,3 -3,0 1,-3 1,-2 2,-2 2,-2 3,0 1,-1 0,-3 0,-3 -1,-3 1,-2 0,-3 0,-3 1,-2 2,-2 2,-1 1,-3 3,-1 0,4 -1,3 -1,3 -3,-1 -1,3 3,0 0,3 -3,1 0,3 3,0 0,3 -3,0 1,3 -1,3 0,3 -1,2 0,3 -1,2 -2,2 -2,2 0,3 -1,2 -1,3 -1,3 -3,1 -3,0 -3,1 -3,2 4,2 3,-1 3,-1 3,0 2,-2 1,-2 1,-2 0,-3 3,0 -2,-3 1,-2 2,-2 0,3 3,0 -1,3 0,3 -2,1 -1,2 1,3 -1,1 -1,2 -3,0 0,3 -3,-1 -3,0 -2,2 -1,3 1,3 3,-1 0,-3 3,0 1,3 -1,3 -1,2 -1,2 -3,1 0,-4 -3,-1 0,3 0,3 0,3 -2,2 -3,1 -2,2 -4,2 -2,3 -1,3 0,3 -3,0 -2,1 -1,-3 3,-1 0,-4 -4,1 -2,4 1,3 0,2 1,3 1,3 2,-1 0,-3 1,-1 3,-1 3,-1 0,-3 1,-2 3,-1 2,-2 3,-3 3,-2 2,-2 1,-2 2,-1 1,-2 3,-1 2,-1 -1,-3 1,-2 1,-2 1,-3 -3,-1 3,-2 2,-2 2,-3 0,-3 2,1 1,4 -2,2 -1,2 -1,2 0,3 -1,2 -1,3 4,-1 -1,3 -2,2 -3,1 -3,1 -1,3 -1,3 -2,3 1,4 0,3 3,0 1,-2"/>
    <path style="fill:none;stroke:#000000;stroke-width:1"
          d="m 433,390 1,-2 4,2 -1,2 0,3 -3,0 -3,1 -4,-2 -2,2 3,2 -2,2 -3,0 1,3 -1,2 -1,2 -1,3 -1,2 0,3 0,2 0,3 0,3 -1,2 -3,1 -1,-3 0,-2 2,-1 0,-3 -2,1 -3,0 -1,2 -3,0 -1,2 1,3 2,-1 2,-1 1,3 -2,2 -3,0 0,4 2,-1 1,3 -2,1 -1,2 0,3 -2,2 2,4 -2,1 -3,3 0,-3 -1,-3 0,-3 1,-3 1,-3 1,-2 0,-3 0,-3 0,-2 -1,-3 -2,1 -1,2 1,3 -1,2 -1,2 -1,4 -1,4 -3,1 -2,2 -2,2 -1,2 -2,2 0,3 3,-1 2,-1 1,-3 2,-1 2,-2 1,4 1,4 -3,-1 0,3 -3,0 -3,0 -1,2 -2,1 0,3 -3,-1 -1,3 -2,1 -3,0 -1,3 3,0 4,0 -2,3 0,3 1,3 3,-1 0,-3 1,-2 2,-2 3,-1 -5,-2 3,-1 1,-3 2,-2 3,-1 0,3 -2,3 2,1 3,-1 1,-2 3,-1 -3,-3 2,-2 2,-1 2,-2 3,-1 2,-3 -1,-4 1,-2 0,-3 1,-2 1,-3 2,-2 -3,-1 1,-2 3,0 2,-1 3,0 1,-2 0,-3 0,-3 1,-2 -1,-3 1,-1 0,-4 2,-2 1,-2 1,-3 2,-2 3,0 2,-2 3,1 1,-2 3,-1 -1,-3 1,-3 -1,-4 3,-2 3,-2 4,0 4,0 1,-3 4,0 3,-2 1,3 3,-1 -1,-3 1,-3 3,-1 1,-3 -4,0 -3,1 -1,2 -1,2 -3,1 -1,1 -3,0 -2,2 -3,0 1,-3 0,-3 -3,0 -1,2 -1,2 -1,2 -3,1 -3,2 -3,3 -2,-5 2,-2 3,0 2,-2 2,-2 1,-2 2,-2 3,0 1,-2 -1,-3 3,1 0,-3 1,-1 1,-3 3,-1 0,-3 3,1 -1,-3 1,-3 1,-3 3,0 0,3 -1,3 1,3 -3,3 -1,2 -3,1 3,2 -3,1 -1,2 1,3 -3,-1 -1,2 1,3 3,-1 3,-1 0,-3 1,-2 3,1 0,-3 0,-3 0,-3 3,1 1,-3 2,-2 -3,-2 3,-2 2,-2 2,-2 -1,-4 -3,1 -1,2 -2,2 -2,-4 0,-3 2,-1 3,0 0,-3 1,-2 3,-1 2,-2 3,-1 1,4 -2,2 -3,1 0,3 4,0 -1,3 -1,3 -1,3 -2,2 0,3 -1,3 0,3 -3,1 -2,2 0,3 3,-1 3,-1 0,4 0,3 0,3 -3,1 -1,3 4,1 1,4 -4,0 -2,3 -5,-1 -3,-1 -2,4 -4,1 -2,3 -3,0 1,-4 -5,1 0,4 1,4 5,1 3,-1 3,-2 0,-3 4,0 1,4 -1,3 -2,2 -4,1 1,5 -3,1 -1,4 -1,5 -1,4 -2,1 -4,1 2,4 3,-1 4,2 2,-4 2,-1 0,6 4,0 2,-4 3,-2 5,-2 1,-4 0,-5 -4,-2 -3,2 0,5 -4,2 -5,-1 2,-4 3,-2 0,-6 4,-1 0,-4 1,-4 2,-2 -3,-3 2,-1 4,0 4,-2 4,-1 4,-3 -4,-1 -1,-4 5,0 4,1 1,5 5,0 7,3 -3,4 -3,-1 -2,2 -3,1 -2,-5 -2,3 -2,-1 -4,0 -3,2 -3,2 -1,3 -2,2 0,5 4,1 2,-3 4,1 -2,-5 2,-3 5,1 -2,4 4,1 2,-3 4,-1 0,3 0,4 -3,2 -4,0 -2,3 -4,-1 -4,2 5,4 -3,2 0,4 -1,4 -5,0 -4,3 -2,3 -4,2 -2,3 -3,-4 -1,4 -3,2 -2,2 -2,1 -1,3 -3,1 0,3 0,3 -1,3 -2,-1 -1,2 -3,0 -3,2 -4,-2 2,-2 2,-1 3,0 1,-2 2,-2 0,-3 1,-3 3,-1 1,-3 3,-2 3,-2 1,-3 -4,-2 -1,3 -2,2 -3,1 -1,3 -3,-1 -1,2"/>
    <path style="fill:none;stroke:#000000;stroke-width:1"
          d="m 439,441 0,3 -3,0 -1,-3 -3,4 -2,2 0,3 3,-1 2,-2 3,1 -2,3 -3,1 -3,1 -2,2 -2,2 -2,4 4,0 4,0 -2,4 0,4 4,-2 2,-3 3,-2 2,-2 2,4 2,-4 3,-1 1,-2 1,-3 1,-2 1,-3 1,-2 2,-1 1,4 2,-2 3,-2 -4,-2 2,-2 3,0 4,1 1,-3 2,-2 4,-1 2,-4 5,1 4,-1 1,-4 1,-4 0,-5 2,-3 2,-3 5,2 2,-2 4,0 4,-1 5,-1 0,-5 4,-2 5,0 3,-1 0,-4 -5,-1 -3,2 -1,-4 -3,1 -1,4 -4,1 1,5 -3,-1 -4,1 0,-5 0,-4 3,-2 3,1 1,-3 1,-4 4,1 1,-4 5,6 4,0 3,-2 2,5 3,-1 4,3 2,-2 3,4 3,3 5,0 5,3 -3,3 -4,1 -4,0 -1,3 -5,0 -5,-1 2,-4 4,0 1,-4 -4,0 -5,-2 0,4 -3,3 -5,0 -3,1 1,6 -4,1 -3,1 -5,0 -3,3 -3,1 -5,-2 -3,2 0,5 5,-1 5,2 -4,3 -2,3 -5,-2 0,4 -3,2 -4,1 -4,0 -1,3 -2,3 -4,-4 -1,4 -3,2 -3,-1 -1,3 -2,1 1,3 -4,-2 -3,1 -1,2 -2,2 -1,3 -3,2 -2,2 2,4 -4,0 -4,-1 -3,2 -3,2 -4,2 2,3 4,2 2,-2 2,-2 4,-1 3,3 2,-2 2,-2 1,-3 -1,-4 2,-2 2,-1 0,-3 3,1 0,-3 2,-1 1,3 3,-1 2,-2 1,-3 3,-1 2,4 3,0 1,-2 -2,-3 2,-1 4,0 2,-3 2,-1 3,-2 4,-2 4,-2 4,-2 3,-4 5,0 -2,-5 2,-3 4,0 4,0 3,-3 2,-5 3,-3 5,3 -2,3 -2,4 -2,5 -4,2 -6,-1 0,5 6,1 -1,4 -3,2 -4,3 -2,-6 -3,1 -1,4 2,5 -2,2 -4,1 1,4 -4,0 -2,2 -1,4 -4,0 -2,-4 2,-1 1,-4 4,-1 1,-3 4,-1 0,-4 -4,0 -4,1 -3,3 -3,3 -3,2 -3,1 -1,3 -2,2 -2,1 -1,3 -2,2 -1,2 2,3 2,-2 1,-2 2,-1 0,-3 3,-1 3,-3 1,4 -2,3 -2,2 -2,2 -2,3 -3,2 -3,2 -1,-4 -3,1 0,3 -4,2 5,2 4,2 3,-2 3,1 1,-4 1,-3 2,-2 2,-2 1,-2 3,-2 3,0 -2,4 3,1 1,4 -3,-1 -2,2 -1,-4 -2,2 0,4 -1,4 6,-1 2,-3 3,3 2,-3 1,-1 4,2 -1,-3 2,-2 2,-1 0,4 2,5 2,-1 0,-3 0,-3 0,-3 0,-4 -4,1 -3,-1 -2,2 -1,3 -3,0 -1,-4 1,-2 2,-3 1,-3 4,-1 1,4 4,0 -1,-4 -2,-4 3,-1 3,-2 2,-2 2,-4 5,2 1,-4 3,-4 0,-5 4,1 0,-5 1,-3 2,-4 2,-4 2,-3 4,1 4,-1 1,-4 5,2 0,5 -2,2 -4,2 -4,0 -2,3 -2,4 -1,5 6,2 2,-4 2,-4 5,-1 3,-3 2,-3 -1,-5 1,-4 2,-5 6,1 1,5 6,0 2,7 4,-1 4,2 -1,3 5,2 1,3 -4,5 0,4 -3,2 -3,4 -3,2 0,5 4,0 3,-1 1,-4 3,-2 3,-4 0,-4 4,-3 2,4 -1,5 -1,4 -2,1 -3,2 -1,4 4,1 3,-3 4,0 0,-4 2,-4 2,-2 3,5 0,3 4,5 0,5 4,0 3,4 1,5 1,4 0,3 -4,2 5,3 0,4 1,7 -4,2 -4,1 -6,-1 1,-3 3,-2 3,0 2,-4 -4,-5 -2,3 -3,2 -3,1 -1,4 -2,2 -4,0 -2,-4 3,-2 0,-4 2,-2 5,-1 2,-3 3,-2 3,-2 1,-5 -4,-1 -3,2 -3,2"/>
    <path style="fill:none;stroke:#000000;stroke-width:1"
          d="m 600,473 -2,4 -3,2 -2,-5 2,-4 1,-4 4,0 1,-3 -1,-5 -4,2 -3,1 -3,3 -1,3 0,5 -4,2 5,4 -1,4 -1,3 -2,4 2,4 -4,0 -4,-1 2,-3 -4,-1 3,-4 2,-6 -3,1 -4,0 -1,4 -2,2 1,4 1,4 -5,-1 0,-4 -3,0 -3,3 -1,-4 3,-3 2,-2 0,-5 2,-3 5,-2 4,0 3,-3 2,-1 0,-6 -4,-1 -4,0 1,5 -5,-1 -3,3 -5,0 -2,4 -5,0 -6,1 1,-4 2,-4 4,-1 3,-3 4,0 5,-2 -6,-4 2,-4 0,-4 3,-2 3,-2 1,-3 3,-2 1,-4 -5,-4 0,4 -4,2 0,4 -5,1 0,-4 -1,-4 3,-2 2,-1 0,-4 -5,-2 -3,-1 0,5 -2,4 0,4 -6,1 -2,4 -3,3 -5,2 -6,-2 -4,1 -3,3 -2,4 -3,4 -3,-1 -3,3 -2,2 -2,1 0,4 4,0 3,-2 3,-2 6,-1 0,4 -4,2 -2,3 0,4 1,3 3,-1 1,-3 2,-3 4,-2 1,-4 1,-4 -5,-2 2,-4 3,-2 4,5 2,-4 6,-1 4,-1 2,-5 2,-5 5,4 -1,4 -1,4 -2,3 -3,3 -5,0 -3,1 0,5 -5,-1 -1,5 5,1 -1,5 4,2 4,2 -4,2 -4,-2 0,3 0,4 3,0 3,0 2,-1 1,-2 4,0 1,-4 4,0 0,5 -3,3 0,4 -3,-3 -3,2 -4,0 -5,0 -4,1 -1,-5 1,-3 -4,1 -2,2 0,4 -4,0 -5,1 -5,0 -1,-5 4,0 2,-2 4,0 2,-1 1,-3 4,-1 3,0 0,-4 -4,-1 -3,3 -4,2 -2,2 -3,0 -4,1 1,-2 0,-3 -1,-3 -1,-3 -3,-1 -2,2 3,3 -2,1 -1,3 3,0 -1,3 0,4 -1,5 -3,1 -6,0 1,-5 -4,-1 -3,3 -3,1 -4,0 -5,0 -5,-1 -3,0 -4,0 -4,-2 -1,3 -4,-1 0,-4 -3,1 -2,2 -4,0 0,-4 2,-3 1,-4 3,-2 2,-3 3,-2 1,-2 0,-3 2,-2 0,-3 -3,1 -2,2 -3,0 0,3 2,1 -3,1 -3,-3 -3,3 3,0 1,4 -3,1 -2,4 -2,3 0,4 -1,3 -5,-2 1,-4 -4,-2 -1,4 -2,1 -4,0 -4,1 -1,-4 -4,0 1,4 -4,0 -4,2 1,-3 2,-3 1,-3 3,-1 -2,-3 0,-3 0,-4 -4,2 0,-4 -3,1 -2,2 -3,1 0,3 4,0 4,1 -1,4 -2,1 -1,3 -1,3 0,3 -4,2 1,-2 -1,-3 -3,1 -1,2 1,3 -1,2 0,3 -1,3 -2,2 -1,3 -3,-1 0,3 -1,2 -3,1 -1,3 -2,3 -2,3 -3,2 -2,2 -4,-2 2,-2 1,-3 3,1 0,-3 2,-2 2,-2 2,-3 2,-2 0,-3 3,-2 2,-1 1,-2 2,-2 0,-4 0,-4 0,-3 1,-3 3,3 2,-1 2,-2 1,-3 -4,-2 -1,3 -3,-1 0,-3 1,-3 2,-2 1,-3 1,-3 3,1 3,-1 2,-2 2,-2 -1,-4 0,-3 3,-1 1,3 2,-2 -1,-3 1,-2 2,-2 2,-2 1,-2 2,-2 2,1 1,-3 3,1 0,-3 3,0 2,-2 -2,-4 -2,2 -3,1 -1,-3 1,-3 3,0 1,-3 2,-2 2,-2 1,-1 2,-3 0,-5 2,-5 -4,0 -4,-2 -2,2 -3,0 -1,3 -3,0 -2,-1 -1,2 -1,2 0,3 -2,-1 -1,2 1,3 -1,2 0,3 -1,2 0,3 4,-2 0,-3 1,-2 2,-1 -1,-3 2,-1 0,-3 3,1 0,-3 3,1 1,-3 4,-1 -1,3 0,3 -3,2 -1,2 -2,1 -1,2 -1,2 -2,2 -1,3 -3,1 1,3 4,0 -1,3 -3,1 -3,-2 0,-3 -3,1 0,3 0,3 3,-1 0,3 -1,2 -3,-1"/>
    <path style="fill:none;stroke:#000000;stroke-width:1"
          d="m 424,439 1,3 -3,-1 1,3 -1,2 -3,0 0,-3 0,-2 1,-3 1,-2 1,-2 0,-3 -3,1 -1,3 -1,2 -1,2 -1,2 1,3 -1,2 2,3 -2,2 2,3 -2,1 -1,3 -3,-3 -2,2 -2,2 0,3 -1,3 -2,2 -1,2 0,3 0,3 -3,1 0,3 3,-1 -1,4 -2,1 -1,3 4,0 -1,3 -2,2 -2,2 -2,2 -2,2 0,3 -2,2 -1,2 -2,1 -2,2 -2,2 -2,2 -1,3 -2,2 -4,-2 2,-2 0,-3 3,-1 2,-3 0,-4 3,1 2,-2 2,-2 1,-3 2,-3 2,-2 1,-2 -1,-3 1,-3 -4,0 1,-3 3,0 1,-3 -2,-1 1,-3 3,0 1,-2 0,-4 -3,1 -1,2 -3,1 -2,2 0,3 -2,3 -1,2 1,4 3,3 -2,2 -2,2 -1,3 -1,2 -3,1 -4,-2 3,-3 0,-3 2,-1 2,-2 -4,-2 2,-2 1,-3 -3,-2 -2,2 -3,0 -1,4 3,1 -1,3 0,4 -3,0 0,3 0,3 0,4 4,-2 0,4 -2,2 -3,0 0,3 -2,1 -1,3 -3,2 -2,-1 0,-4 1,-2 2,-2 1,-3 1,-3 0,-3 -1,-3 1,-2 1,-2 2,-2 -1,-4 -2,2 -3,1 -1,1 0,3 -1,3 1,3 0,3 -1,3 -3,2 -1,2 0,4 -3,0 -1,2 -1,1 1,3 4,-2 0,4 -3,2 0,3 4,-1 1,4 -2,1 -3,3 -2,-4 -2,2 -2,2 -2,2 -2,1 -2,2 -2,2 -3,1 -1,-4 -2,1 -1,3 -1,1 -1,3 -1,3 -4,-1 -2,2 0,4 4,-2 4,1 2,-2 2,-1 0,-3 2,-1 3,-1 3,1 1,-2 0,-3 3,-1 2,-2 3,-1 4,1 1,-3 4,-1 1,-3 0,-3 -2,-4 0,-3 5,1 3,-1 3,1 -2,3 -4,1 1,4 3,0 2,-2 2,-2 2,-2 4,2 -2,2 -2,2 -2,2 -3,2 -3,0 -1,2 -2,2 -3,0 -1,2 -2,2 -3,0 0,3 -3,1 0,-5 -2,2 -2,2 1,3 -3,0 -2,2 -3,-1 0,3 -3,0 -3,2 -4,2 -3,1 -2,2 -4,-2 0,3 -3,0 -2,2 -3,1 -3,1 -3,0 -4,0 1,-4 4,-1 3,-1 0,-4 4,2 1,-2 1,-3 1,-3 2,-2 1,-2 1,-3 3,4 1,-3 -1,-3 3,-1 1,-3 1,-2 2,-2 1,3 4,2 1,-2 1,-3 3,1 1,-3 2,-1 2,-2 -4,-2 2,-2 3,0 -1,-3 -4,-1 -2,2 -2,2 1,4 -2,2 -3,3 -1,-3 0,-3 1,-2 2,1 -1,-4 2,-2 2,-2 3,-1 3,0 1,-3 4,-2 1,-3 3,-3 1,-3 -3,0 -3,0 1,3 -3,0 0,3 -1,2 -3,1 -1,2 -3,0 -2,-1 -1,3 -2,2 -2,2 -2,2 0,3 0,3 -1,2 -2,2 -2,1 -1,2 0,3 -2,-1 -3,0 1,3 -3,-1 -2,2 2,1 -2,2 -1,1 0,3 -2,2 -1,2 -2,-1 -2,2 -1,3 -3,2 -3,0 -1,4 -1,4 -4,-2 -2,2 -4,0 -2,3 -5,1 -3,1 -4,1 -4,0 -4,1 -3,0 0,-4 2,-1 4,-1 4,1 2,-3 2,1 4,0 3,-3 3,-1 0,-3 1,-2 4,0 -1,3 4,0 0,-3 1,-1 1,-2 0,-3 3,0 0,3 3,0 0,-3 2,-1 2,-2 3,-1 1,-2 0,-3 1,-3 2,-3 0,-3 3,0 3,0 2,-2 -3,-2 3,-2 3,1 1,-3 -1,-3 -3,0 -2,1 -2,2 -3,1 0,3 -3,-2 -1,3 -3,1 2,4 -2,2 -1,3 0,4 -2,1 -3,2 -2,-4 1,-4 2,-2 2,-3 0,-3 -3,1 -2,2 -3,2 -2,1 1,4 -1,4 -3,3 -1,4 -4,0 -4,2"/>
    <path style="fill:none;stroke:#000000;stroke-width:1"
          d="m 291,548 0,4 -2,2 -4,1 1,-2 0,-3 -4,1 -1,3 -3,2 -5,0 -4,0 -2,1 -4,3 3,0 1,3 -3,2 -4,1 -5,-2 2,-5 3,-1 2,-2 0,-4 2,-2 1,-4 3,-3 4,0 0,-3 2,-2 1,-3 1,-2 3,3 0,-3 1,-2 1,-2 2,-2 3,1 -1,3 -1,2 -1,2 0,3 -1,4 -3,-1 -3,2 -1,3 -2,1 -3,0 0,4 4,0 3,1 1,-3 1,-2 3,0 4,-1 3,-3 4,-2 2,-1 3,-3 0,-4 1,-1 -1,-3 1,-1 4,-1 2,-1 2,-2 2,-1 3,-1 1,-3 2,3 1,-2 0,-3 1,-2 2,1 3,0 3,-1 3,-2 4,-1 3,0 2,-2 3,-2 0,-3 1,-2 3,0 3,1 1,-3 3,1 0,-3 2,-2 1,-3 3,0 3,-1 3,1 0,-3 1,-3 -4,-3 -1,3 -2,2 -3,0 -3,2 -1,3 -2,2 -3,2 -4,0 1,-3 2,-2 2,-2 1,-2 3,-2 4,-2 1,-3 2,-2 4,0 3,1 0,-4 1,-2 1,-3 3,-2 3,-2 1,3 -2,2 -2,2 -1,5 2,-2 3,0 1,-3 3,-1 1,-2 1,-1 0,-3 -4,0 -1,-3 0,-3 1,-3 3,0 -1,-3 4,2 -1,-3 3,0 0,-3 3,1 -1,-3 -1,-3 -2,1 -2,2 -1,2 -3,1 -2,1 -1,2 -2,3 -1,3 -1,3 -2,2 -3,0 -1,1 -2,2 -2,3 -1,3 -4,1 -3,3 -1,3 -3,0 -2,2 -2,1 -1,3 -3,2 -4,-1 2,4 -3,1 3,3 -1,3 0,4 -4,-1 -2,2 -2,2 -3,1 -1,-4 -2,2 0,3 -1,2 -4,-1 -1,-3 3,0 0,-3 2,-2 3,-1 2,1 2,-2 4,-1 -1,-4 -3,1 -3,0 -1,2 -3,0 -3,-1 -1,3 -2,2 -3,1 -4,-1 -3,0 -1,2 -2,2 0,2 -2,2 -3,0 1,3 3,1 4,-2 2,-3 2,-2 3,0 1,4 -2,2 -2,2 0,3 -4,-1 -2,3 -4,-2 0,4 -4,0 -2,2 1,4 1,4 -2,-1 -2,2 -3,3 0,-3 1,-3 1,-3 -2,-4 2,-3 1,-2 1,-2 3,0 0,-3 -3,0 -3,1 -1,2 -2,1 0,3 -2,-1 -2,2 -4,1 -2,4 -1,2 -2,1 -2,2 -2,3 -1,4 -4,0 2,-3 -1,-3 2,-2 0,-3 3,0 1,-3 -4,-2 -2,2 -3,1 1,3 -2,1 0,4 -2,3 -3,3 4,2 -2,3 -4,-2 -3,0 -2,1 -3,2 -1,5 5,-2 4,-1 3,0 1,4 -3,1 -4,1 -6,2 -2,2 5,1 3,2 1,3 -4,0 -4,0 -4,0 -5,1 -8,0 -4,-6 5,1 4,-4 6,-1 3,-1 -1,-3 1,-4 -3,-1 3,-4 1,-3 4,1 2,-2 4,2 0,-3 2,-4 -3,0 -3,-1 -1,2 -3,1 -2,-3 2,-2 2,-2 1,-3 -3,-2 3,-2 4,-1 0,4 0,4 5,2 0,-4 2,-1 1,-2 3,0 1,-2 1,-4 -3,-1 -2,2 -1,2 -3,1 0,-3 1,-2 1,-3 1,-6 3,-1 2,-1 3,-2 -4,-1 -3,1 0,-3 2,-1 -1,-3 1,-3 3,-4 2,-4 -4,0 -2,3 -2,2 -1,3 -3,1 1,-3 -4,-1 -3,0 1,3 -2,2 -3,2 -1,3 3,1 3,-1 2,-1 1,-3 2,1 3,0 -1,3 -2,3 -1,5 0,3 -1,1 0,3 -2,1 -3,1 -2,-3 -2,2 0,3 -3,0 1,4 1,3 -2,2 -2,2 -1,-4 -3,1 -5,0 3,-5 5,1 -1,-3 0,-3 2,-2 1,-3 2,-1 3,-1 3,1 0,-3 3,-1 -1,-3 -3,1 -3,-1 -2,2 -4,0 -2,4 -1,3 -2,2 -1,3 -5,1 -3,5 -4,1 2,4 -4,0 -1,1"/>
    <path style="fill:none;stroke:#000000;stroke-width:1"
          d="m 216,531 0,3 4,1 -4,2 -2,2 -4,0 2,3 -4,0 -3,-3 1,-3 3,-1 3,0 -1,-4 2,-2 3,-3 -3,-1 0,-3 1,-2 3,3 1,-2 1,-5 -3,2 -3,-3 1,-1 1,-3 3,-2 2,-1 3,0 1,-4 2,-3 2,-4 -3,0 0,-3 3,0 1,-3 2,-3 3,-1 2,-1 2,-3 -4,-2 -3,1 -3,1 -3,3 -1,4 -4,3 0,5 -2,4 -5,1 1,3 -2,2 -3,-1 0,-3 0,-3 1,-2 3,-1 1,-2 1,-4 -1,-4 5,1 0,-4 0,-4 3,-1 0,-4 0,-3 1,-2 -2,-4 -2,4 -1,2 0,3 -3,-1 -1,2 -2,2 -1,4 0,5 -2,2 1,4 -4,2 -2,1 1,3 -2,1 -3,1 -3,0 -2,1 0,3 -2,-1 -1,2 -2,2 2,1 -2,2 -2,1 -1,-3 -3,0 1,3 -1,2 -3,0 0,-3 0,-3 1,-2 3,0 1,-2 2,1 1,-2 -1,-3 2,-2 1,3 2,-2 3,-1 2,-2 3,1 0,-4 -3,0 -3,0 2,-4 6,-2 1,-5 1,-3 3,-1 1,-2 2,-2 3,-3 -3,0 -4,2 -2,2 -3,-1 -1,2 -3,2 -1,5 -4,2 0,4 -1,2 0,3 -3,0 -2,-4 1,-2 0,-4 1,-3 -4,-3 -2,3 -5,-2 0,-5 0,-3 4,-2 3,-1 1,4 2,-2 2,1 3,0 -1,4 3,-1 3,0 -1,-5 5,0 4,-2 -2,-5 2,-1 0,-3 2,-1 1,-3 0,-4 3,1 3,-3 2,6 -2,3 -2,1 -1,3 -2,2 -1,3 5,0 2,-2 2,-2 2,-2 3,1 0,-4 0,-4 -4,-2 2,-2 1,-3 3,-1 1,-3 2,-2 1,-3 4,0 3,0 -2,4 -2,2 -1,2 -1,3 -4,1 1,4 4,0 3,-2 1,-2 1,-3 3,0 -1,-4 2,-2 1,-2 3,1 3,-1 1,-2 1,-2 1,-2 2,-1 3,-1 2,-2 4,1 1,-3 3,-1 2,-3 -5,-1 3,-4 2,-3 -1,-4 0,-3 -2,-4 3,0 2,-2 1,-3 2,-2 1,-2 3,1 3,-1 0,3 -2,2 -2,1 -2,3 -2,3 0,4 4,0 1,-3 1,-3 2,-1 2,-2 2,-2 0,-3 -1,-3 3,0 1,-2 0,-3 1,-2 1,-2 1,-3 -2,-1 -3,1 0,3 -3,0 1,3 0,3 -3,1 -1,-4 -3,0 1,4 -3,0 -4,2 -2,-1 -1,2 0,3 -2,2 -2,-4 -1,3 -1,2 0,3 -1,3 3,0 -1,3 1,4 -2,3 -3,1 1,3 -1,2 0,3 -2,-1 -3,0 1,3 -2,1 -3,0 -1,2 -3,0 -2,2 3,1 -1,2 -3,0 -3,-1 0,-3 1,-2 2,-2 3,0 1,-3 3,0 0,-3 4,-1 2,-1 -2,-3 -4,1 0,-3 2,-2 2,-2 2,1 0,3 3,-1 0,-3 1,-2 -3,-1 -4,0 1,-2 3,-1 1,-2 1,-2 -1,-3 1,-2 0,-3 -4,2 -2,2 2,3 -1,2 -2,1 -3,0 1,3 -3,0 -1,3 4,1 -4,2 -1,2 1,3 -1,3 -5,-1 2,-3 -1,-4 0,-3 1,-2 2,-2 2,-2 1,-3 3,0 -1,-3 -1,-4 3,-1 3,-1 3,-3 4,-1 0,4 3,1 1,-3 0,-3 4,-1 0,4 3,0 1,-3 2,-2 3,-1 2,-2 1,-2 2,-1 0,-3 -3,0 -3,0 -1,2 -2,2 -4,1 1,-3 2,-2 1,-3 3,0 1,-3 0,-3 1,-3 1,-2 2,-2 3,-1 0,3 -1,2 -1,2 -1,2 -1,2 -1,3 3,0 1,-2 2,-2 1,-2 1,-2 0,-3 1,-2 2,1 3,-1 1,-2 1,-2 1,-2 1,-2 0,-3 1,-2 3,0 2,-2 1,-2 0,-3 -1,-3 -2,1 0,3 -1,2 -2,1 -3,0 -1,2 0,3"/>
    <path style="fill:none;stroke:#000000;stroke-width:1"
          d="m 293,348 -1,2 -1,2 -1,2 -1,2 -3,0 0,-3 1,-2 1,-2 0,-2 2,-1 -1,-3 2,-1 0,-4 2,2 3,0 1,-2 -3,-1 1,-2 1,-1 -1,-3 0,-3 -3,1 0,3 -1,2 -2,1 -1,2 -2,1 2,2 -3,1 -2,2 3,1 -1,2 -1,3 -2,2 1,3 -2,1 -3,1 0,-4 1,-3 -1,-3 3,0 -2,-3 1,-3 1,-3 2,1 0,-3 2,-1 3,-2 1,-2 0,-3 -3,1 -1,2 -1,1 -2,1 -4,1 1,-2 1,-2 1,-2 2,-1 3,-1 1,-2 1,-3 2,-1 0,-3 3,-1 1,-1 0,4 -1,1 1,3 -3,0 -1,2 2,2 3,-1 2,-1 1,3 1,3 -1,1 1,3 3,-1 0,-3 -1,-3 0,-2 2,-1 3,0 -1,3 0,3 0,3 3,-1 0,-3 1,-2 0,-3 2,-2 -2,-1 -3,0 -3,0 -3,1 -3,-1 1,-2 2,-1 -3,-2 3,-1 0,-3 -3,1 0,-3 3,-1 2,1 3,0 -1,3 -1,2 0,3 3,0 1,-2 0,-3 2,-2 1,-1 3,0 -1,-3 3,0 1,-2 1,-2 2,1 0,4 -1,2 -2,1 -1,2 -3,1 -2,1 0,3 3,0 2,-2 3,-1 2,-2 2,-3 0,-3 1,-2 2,-2 2,-2 2,1 0,-3 1,-1 3,3 2,-2 2,-1 3,0 -1,-3 1,-2 2,-1 3,-1 1,3 -2,1 -1,2 0,3 -2,1 -3,1 -2,1 -3,1 -2,1 -3,0 0,3 -2,-1 -1,2 0,3 -1,2 -1,1 -1,2 -3,1 -1,2 -1,1 -3,0 0,3 -1,2 -1,2 -1,3 0,3 3,0 0,-3 2,-2 1,3 2,-2 -1,-3 -1,-3 3,0 1,3 2,-1 3,0 2,-2 3,1 -1,2 -2,2 3,1 -2,2 -1,1 1,3 -1,3 -3,0 -3,0 1,-3 3,0 -1,-3 0,-3 -3,0 -1,3 -1,3 -2,-1 -1,2 -1,2 3,1 1,3 2,-1 3,0 3,0 3,0 0,-3 1,-3 1,-2 1,-2 0,-3 1,-2 3,0 2,-1 1,-2 -1,-3 1,-1 3,-1 0,3 1,4 -1,1 -1,2 -3,1 -3,0 1,3 -1,2 -1,2 -1,2 -1,2 0,3 -2,2 -2,-1 -3,0 1,3 0,3 -3,1 3,2 3,0 0,-3 0,-2 3,1 1,-2 2,-1 1,-1 -1,-3 2,-2 1,-2 1,-1 1,-2 0,-3 2,-1 3,-1 1,-3 0,-3 1,-1 1,-2 -3,-1 0,-3 0,-3 -3,0 -3,0 -1,2 -3,1 0,3 0,3 -3,0 0,-3 0,-3 1,-3 2,-1 1,-2 0,-3 -3,1 -2,2 -1,3 -1,2 -1,2 1,3 -3,-1 -3,1 -2,1 -1,-3 3,-1 2,-2 1,-3 1,-2 2,-2 1,-2 3,-1 2,-1 3,0 1,-2 3,0 0,3 0,2 -3,0 0,3 3,0 3,0 1,-2 2,-2 -3,-1 1,-2 3,0 1,-3 -3,0 -3,0 0,-3 2,-2 2,2 2,-2 1,-2 2,-2 2,-2 0,-3 2,-2 1,-2 0,-3 0,-3 -3,1 -3,1 3,2 -2,2 -1,2 -1,1 0,3 -2,2 -2,2 -1,-3 2,-3 -3,0 -3,0 0,-3 1,-2 3,2 1,-2 1,-1 0,-3 1,-2 1,-2 2,1 1,-3 2,3 1,-3 2,1 1,-3 1,-2 1,-3 -4,0 -1,2 -2,1 -3,1 -2,-1 -1,2 -3,0 0,-3 -3,1 0,3 -3,0 -2,1 -1,2 -3,1 -2,2 1,3 -3,0 -1,3 -2,1 -1,3 3,0 3,-1 1,-2 2,-1 1,-3 1,-2 1,-1 3,-1 1,-2 3,0 2,-1 -2,4 -1,2 -3,0 -1,3 -1,2 1,3 -3,-1 0,3 -2,-1 0,3 0,3 -3,1 0,-3 0,-3 -3,1 0,3"/>
    <path style="fill:none;stroke:#000000;stroke-width:1"
          d="m 330,294 -2,1 -1,-3 -3,0 -2,-1 2,-2 1,-2 -1,-3 0,-3 3,0 1,-2 1,-2 1,-1 2,-2 0,-3 3,1 2,-2 3,-1 1,-3 3,0 -1,-3 2,-2 1,-3 1,-2 -3,-1 2,-2 3,0 1,-3 -3,0 1,-3 2,-1 1,-2 -3,-1 -3,0 -1,2 0,3 -1,2 -1,2 -2,2 1,3 2,1 -3,2 -1,3 -3,0 1,3 -2,1 -3,0 -3,1 -2,2 2,2 -3,1 -1,2 -1,3 -3,0 0,3 -2,2 -2,2 -3,1 -2,1 -1,3 0,3 -2,1 -3,0 1,3 -1,2 3,1 1,-2 2,-2 2,-4 1,-2 2,-2 4,-2 -1,2 -1,3 -1,2 3,1 4,1 0,3 -2,-1 0,3 -2,2 -3,-2 2,-2 -2,-2 -2,-1 -1,2 -1,2 -1,2 0,3 -3,-1 -1,2 -1,2 -3,0 -3,0 0,-3 3,0 1,-2 -4,-1 1,-2 -3,-1 1,-3 2,1 0,-3 1,-2 3,0 1,-2 1,-2 1,-3 3,-1 1,-2 3,-1 0,-3 2,-2 3,0 0,-3 2,-2 0,-3 2,-1 0,-3 -1,-3 0,-3 2,-1 2,-2 0,-4 0,-3 0,-3 -3,0 -3,0 0,-3 1,-2 0,-3 1,-2 2,-1 1,3 -1,2 0,3 3,0 1,-2 0,-3 -1,-3 1,-2 2,1 0,-3 -2,-2 1,-2 2,-2 2,-2 1,3 -1,2 -1,1 1,3 3,-1 1,-2 0,-3 -1,-3 2,-1 3,0 0,3 -1,2 0,2 3,-1 1,-3 1,-2 2,-2 1,-3 0,-3 1,-2 0,-3 3,-1 1,-1 1,-2 1,-2 1,-2 2,-2 1,-2 -3,1 -3,1 -2,1 0,-3 -3,0 -1,2 -2,-1 -1,2 -1,2 3,1 3,-1 2,1 -2,2 -2,1 -1,2 0,3 -1,3 -2,1 2,2 -2,2 -2,-1 -3,0 -2,1 -3,0 1,-3 1,-3 -3,0 -1,3 -1,3 -1,2 -2,2 -2,-1 0,3 -3,0 0,3 3,0 0,3 -3,0 -2,-1 -1,2 -1,2 0,3 -1,2 0,3 -1,2 0,3 -1,2 -2,1 -1,2 -1,3 -1,2 -1,2 -3,0 -1,2 -2,1 0,3 -1,2 -3,0 -1,2 -4,0 0,2 -3,0 -1,2 -1,2 -1,3 0,3 -3,2 -1,1 -3,0 -3,1 -2,1 0,3 -3,0 0,-3 -2,1 -2,1 0,2 -3,1 -1,2 1,3 2,-1 1,-2 3,-1 0,3 -1,2 0,2 0,3 -3,-3 -1,1 -1,2 -3,1 3,2 -2,2 -2,2 -1,3 1,3 0,3 -2,2 -2,2 -1,2 -3,1 -3,3 -2,-5 -4,1 1,4 -1,3 -4,-2 -1,3 0,3 -2,3 0,4 -2,2 -1,3 -3,-1 1,4 4,2 4,0 -2,5 -2,1 -1,4 -4,2 3,2 -2,3 3,3 -3,1 -1,3 0,3 -2,-1 -1,3 0,3 3,0 3,1 0,3 4,-1 1,-2 0,-3 3,0 1,-3 -3,0 -3,0 -1,3 -3,0 1,-3 0,-3 3,0 3,0 1,-1 3,0 3,0 0,-3 1,-2 1,-2 2,-2 0,-3 1,-3 4,-1 2,-2 4,-1 1,-3 2,-2 2,-2 -4,-2 3,-1 2,-1 -2,-3 1,-2 2,-1 -4,-2 -2,3 -1,3 -2,2 0,4 -1,2 -1,2 -3,1 -3,0 0,3 -3,1 -2,2 0,3 -2,2 -3,3 1,3 -4,0 -2,-1 1,-3 3,-2 -1,-3 3,-1 0,-3 2,-2 2,-2 2,-2 0,-4 3,2 2,-1 1,-2 1,-3 2,-4 -4,-2 -3,2 -3,2 -3,1 -1,3 -1,3 -4,-2 1,-4 1,-3 3,-2 2,-2 2,-3 4,0 3,-2 2,-2 2,-3 2,-2 1,-3 3,0 -1,-3 3,-1 0,-3 -3,1 0,-3 1,-2 2,-1 1,-2 0,-3"/>
    <path style="fill:none;stroke:#000000;stroke-width:1"
          d="m 272,303 2,1 3,0 3,1 -1,2 -3,0 -1,2 -2,2 2,1 3,-1 3,-1 -1,2 -2,2 -1,2 -3,-1 1,3 -1,2 -2,-1 0,3 -3,1 -1,2 -1,2 -1,2 -1,2 -2,4 3,0 2,-2 1,-3 2,-2 1,-2 2,-2 3,-1 1,-2 1,-2 2,1 0,-3 1,-1 1,-2 1,-2 -1,-3 1,-1 -1,-3 1,-1 1,-2 1,-2 0,-2 1,-2 1,-2 3,3 1,-2 2,1 0,-3 1,-1 1,-2 1,-2 3,-1 2,-2 0,-3 -3,-1 -1,2 -1,2 -3,1 -2,2 -1,1 -1,3 -2,-2 -2,-1 -1,2 -1,2 -3,1 2,2 -2,1 1,3 -2,2 -3,-1 1,-2 0,-2 0,-3 0,-3 3,0 1,-2 1,-2 2,-1 3,0 3,-1 1,-2 2,-1 1,-2 -1,-3 3,1 -1,-3 1,-2 3,0 1,-2 3,-1 3,-1 0,3 -3,1 -1,2 -3,1 1,3 2,-1 3,0 1,-2 3,-2 0,-3 1,-1 3,0 1,-2 1,-4 -4,2 -3,0 1,-3 3,-1 3,-1 1,-2 1,-1 0,-3 0,-3 3,-1 1,-2 1,-2 3,1 0,3 -1,2 -3,1 -1,2 1,3 0,3 -1,1 -1,2 1,3 -3,-1 1,3 -1,2 -3,1 -1,2 0,3 -3,-1 -1,2 -1,2 -3,0 0,3 -1,1 0,3 -3,0 -2,2 -1,2 -1,3 -1,2 -1,2 -3,1 -3,-1 0,2 -1,2 -1,2 -1,2 0,3 3,-1 1,-2 1,-3 3,0 1,-2 3,-1 0,3 -1,2 -3,1 -1,2 -1,2 -3,1 -2,1 -1,2 -1,2 -1,2 -1,2 -1,2 -3,1 -3,2 -1,2 -1,2 -1,1 -2,1 0,3 3,0 2,1 0,3 -1,2 -1,2 0,3 1,3 -2,2 1,3 -4,-1 0,3 4,2 -2,2 0,3 -1,3 1,3 -3,0 -1,3 -2,-1 -3,1 3,2 -2,1 -1,2 0,3 -2,1 -3,1 -5,1 1,-3 2,-2 1,-2 3,0 -1,-3 1,-1 1,-3 2,-2 4,-1 1,-3 0,-4 -3,0 -2,2 0,3 -4,-2 -1,3 -1,3 -2,2 1,3 -2,1 -1,2 -2,2 -2,-1 0,3 0,3 1,4 -4,-2 -1,3 -4,2 -3,1 -4,0 -2,2 -1,3 -3,2 -2,2 0,3 -1,3 -1,5 -4,1 -1,-4 2,-2 0,-4 1,-2 1,-3 2,-2 2,-2 1,-3 3,-1 2,-2 -4,-2 -3,1 -3,2 -1,3 -2,2 -2,2 0,3 -1,4 -3,3 1,5 0,3 -3,2 -3,2 -1,5 -5,-2 -1,4 -5,0 -2,5 -1,3 4,-2 4,0 3,0 3,-2 4,2 1,-3 0,-4 3,-3 3,-3 4,-1 4,-1 1,-4 2,-2 0,-3 0,-3 1,-2 3,1 0,-3 2,-1 1,-3 4,0 0,4 -1,2 -2,2 -2,2 -2,2 0,3 1,4 -3,2 -2,3 -5,1 -4,3 -2,3 -2,2 -1,4 4,0 2,-2 2,-2 2,-2 2,4 2,-2 0,-3 2,-1 4,-1 3,1 -3,3 -2,2 -1,3 -1,2 -3,0 -3,-1 -2,2 -1,3 -4,-2 -2,1 0,4 3,1 -3,3 -3,0 -5,1 -4,0 -1,3 -2,2 2,3 -5,1 -2,6 -6,-1 -5,0 -5,0 -3,5 -1,2 0,2 -3,0 -1,2 -3,0 2,6 -6,0 -2,5 -2,4 6,0 3,-3 2,4 0,4 0,4 4,-3 1,-3 0,-3 5,2 -1,3 0,4 3,3 -3,1 -1,2 3,1 -3,2 -4,0 1,-3 0,-3 -4,2 -3,2 -3,2 -2,1 -4,0 1,-4 3,-2 3,-3 -1,-5 -5,2 -3,4 -3,2 -1,4 -4,2 0,5 6,-1 5,2 -1,5 -4,0 -7,-1 -5,4 -3,3 -4,2 -4,1 0,6 4,0"/>
    <path style="fill:none;stroke:#000000;stroke-width:1"
          d="m 140,531 3,-2 5,0 4,-2 1,-5 6,3 4,-1 5,-1 2,-6 0,-3 -2,-3 -1,-3 4,1 4,-1 -1,6 -1,4 1,3 0,4 3,0 1,-3 2,-3 3,0 3,0 1,-1 1,-2 3,0 2,-2 2,-1 1,-2 1,-1 1,-2 0,-3 3,0 2,-1 3,0 0,3 -2,1 -3,0 1,3 -2,1 -2,2 -3,2 -1,2 -3,1 -1,2 -3,1 -3,0 -2,1 -1,3 -2,2 2,2 3,-1 2,1 -2,2 -3,3 0,6 6,1 3,-3 -3,-3 1,-3 2,1 0,-3 3,0 2,-1 -2,4 3,0 2,-2 -1,-3 3,0 1,-2 1,-1 1,-2 2,-2 -2,-1 -3,1 -2,2 -1,2 -3,0 -2,2 -3,0 -3,-1 1,-2 3,0 1,-1 3,-1 0,-2 3,0 1,-2 1,-2 2,1 1,-2 1,-2 3,0 -1,-3 2,-1 3,0 -1,3 0,3 -3,1 -1,2 3,1 0,6 -1,3 -2,3 -3,1 -1,4 -2,3 -3,-1 -2,2 0,4 4,1 1,-3 4,-1 0,5 3,-1 4,0 6,3 0,-6 4,-2 7,-1 2,-5 5,-1 5,1 -2,4 -3,2 -1,7 -2,3 -6,-1 -3,4 -2,1 -2,2 -5,-2 -4,2 -5,-2 -5,1 -5,-2 -3,-3 -6,-3 -2,3 -4,2 -4,2 -3,3 -4,2 -4,3 -4,3 -5,4 -3,3 -1,5 -4,4 -4,-1 -3,3 -3,2 -3,2 -4,3 -6,1"/>
  </g>
</svg>
